<svg width="104" height="104" viewBox="0 0 104 104" fill="none" xmlns="http://www.w3.org/2000/svg">
<path d="M48.0007 72C47.4743 72.003 46.9525 71.9021 46.4651 71.7031C45.9778 71.504 45.5345 71.2107 45.1607 70.84L29.1607 54.84C28.4075 54.0868 27.9844 53.0652 27.9844 52C27.9844 50.9348 28.4075 49.9132 29.1607 49.16C29.914 48.4068 30.9355 47.9836 32.0007 47.9836C33.0659 47.9836 34.0875 48.4068 34.8407 49.16L48.0007 62.36L73.1607 37.16C73.9139 36.4068 74.9355 35.9836 76.0007 35.9836C77.0659 35.9836 78.0875 36.4068 78.8407 37.16C79.5939 37.9132 80.0171 38.9348 80.0171 40C80.0171 41.0652 79.5939 42.0868 78.8407 42.84L50.8407 70.84C50.467 71.2107 50.0237 71.504 49.5364 71.7031C49.049 71.9021 48.5272 72.003 48.0007 72Z" fill="#00ADEF"/>
<path d="M52 104C41.7154 104 31.6617 100.95 23.1104 95.2364C14.559 89.5226 7.89404 81.4013 3.95829 71.8995C0.0225308 62.3978 -1.00724 51.9423 0.999189 41.8553C3.00562 31.7683 7.95814 22.5028 15.2305 15.2305C22.5028 7.95814 31.7683 3.00562 41.8553 0.999189C51.9423 -1.00724 62.3978 0.0225308 71.8995 3.95829C81.4013 7.89404 89.5226 14.559 95.2364 23.1104C100.95 31.6617 104 41.7154 104 52C104 65.7913 98.5214 79.0177 88.7696 88.7696C79.0177 98.5214 65.7913 104 52 104ZM52 8.00002C43.2976 8.00002 34.7907 10.5806 27.5549 15.4154C20.3192 20.2501 14.6796 27.122 11.3493 35.1619C8.01907 43.2019 7.14772 52.0488 8.84547 60.584C10.5432 69.1191 14.7338 76.9592 20.8873 83.1127C27.0408 89.2662 34.8809 93.4568 43.416 95.1545C51.9512 96.8523 60.7981 95.9809 68.8381 92.6507C76.878 89.3204 83.7499 83.6809 88.5847 76.4451C93.4194 69.2093 96 60.7024 96 52C96 40.3305 91.3643 29.1389 83.1127 20.8873C74.8611 12.6357 63.6695 8.00002 52 8.00002Z" fill="#00ADEF"/>
</svg>
