<svg width="1280" height="612" viewBox="0 0 1280 612" fill="none" xmlns="http://www.w3.org/2000/svg">
<path d="M205 130.715H383.5C395.333 131.548 430 131.215 430 94.7151C430 58.2151 395.333 59.5484 383.5 60.2151" stroke="#00ADEF"/>
<path d="M791 610.715H1032.5C1044.33 611.548 1079 611.215 1079 574.715C1079 538.215 1044.33 539.548 1032.5 540.215" stroke="#00ADEF"/>
<path d="M44 564H269" stroke="#00ADEF"/>
<path d="M157 433L301 433" stroke="#00ADEF"/>
<path d="M-68 245H157" stroke="#00ADEF"/>
<path d="M967 245L1128 245" stroke="#00ADEF"/>
<path d="M1116 407L1323 407" stroke="#00ADEF"/>
<path d="M813 108.398H933.5C931.333 95.5643 925.5 70.3976 971.5 65.3976C971.5 56.0643 973.8 35.0976 983 25.8976C994.5 14.3976 1016 2.39761 1049 25.8976C1061.5 11.5643 1089.1 -9.80239 1131.5 7.39761C1173.9 24.5976 1177.17 63.2309 1169.5 81.8976C1182.67 78.5643 1210 79.1976 1214 108.398H1337.5" stroke="#00ADEF"/>
</svg>
