<svg width="1437" height="647" viewBox="0 0 1437 647" fill="none" xmlns="http://www.w3.org/2000/svg">
<path d="M890 645.715H1131.5C1143.33 646.548 1178 646.215 1178 609.715C1178 573.215 1143.33 574.548 1131.5 575.215" stroke="#00ADEF"/>
<path d="M33 71.7151H211.5C223.333 72.5484 258 72.2151 258 35.7151C258 -0.784939 223.333 0.548396 211.5 1.21506" stroke="#00ADEF"/>
<path d="M0 253H225" stroke="#00ADEF"/>
<path d="M1066 253L1227 253" stroke="#00ADEF"/>
<path d="M1215 415L1422 415" stroke="#00ADEF"/>
<path d="M912 116.398H1032.5C1030.33 103.564 1024.5 78.3976 1070.5 73.3976C1070.5 64.0643 1072.8 43.0976 1082 33.8976C1093.5 22.3976 1115 10.3976 1148 33.8976C1160.5 19.5643 1188.1 -1.80239 1230.5 15.3976C1272.9 32.5976 1276.17 71.2309 1268.5 89.8976C1281.67 86.5643 1309 87.1976 1313 116.398H1436.5" stroke="#00ADEF"/>
<path d="M109 548H334" stroke="#00ADEF"/>
<path d="M222 417L366 417" stroke="#00ADEF"/>
</svg>
