<svg width="104" height="104" viewBox="0 0 104 104" fill="none" xmlns="http://www.w3.org/2000/svg">
<path d="M52 104C41.7154 104 31.6617 100.95 23.1104 95.2364C14.559 89.5226 7.89404 81.4013 3.95829 71.8995C0.0225308 62.3978 -1.00724 51.9423 0.999189 41.8553C3.00562 31.7683 7.95814 22.5028 15.2305 15.2305C22.5028 7.95814 31.7683 3.00562 41.8553 0.999189C51.9423 -1.00724 62.3978 0.0225308 71.8995 3.95829C81.4013 7.89404 89.5226 14.559 95.2364 23.1104C100.95 31.6617 104 41.7154 104 52C104 65.7913 98.5214 79.0177 88.7696 88.7696C79.0177 98.5214 65.7913 104 52 104ZM52 8.00002C43.2976 8.00002 34.7907 10.5806 27.5549 15.4154C20.3192 20.2501 14.6796 27.122 11.3493 35.1619C8.01907 43.2019 7.14772 52.0488 8.84547 60.584C10.5432 69.1191 14.7338 76.9592 20.8873 83.1127C27.0408 89.2662 34.8809 93.4568 43.416 95.1545C51.9512 96.8523 60.7981 95.9809 68.8381 92.6507C76.878 89.3204 83.7499 83.6809 88.5847 76.4451C93.4194 69.2093 96 60.7024 96 52C96 40.3305 91.3643 29.1389 83.1127 20.8873C74.8611 12.6357 63.6695 8.00002 52 8.00002Z" fill="#FBBC41"/>
<path d="M52.0059 24C51.9296 24 51.8557 24.0207 51.7803 24.0239C51.6918 24.0313 51.6055 24.0312 51.5171 24.0479C50.5481 24.1384 49.6562 24.4804 48.9126 25.0254L37.8726 29.3936C37.0505 29.7191 36.449 30.4343 36.2695 31.3008C36.0901 32.1664 36.3584 33.0653 36.9839 33.6899L44.8965 41.606C44.9278 41.6373 44.999 41.6484 44.999 41.6777V60.75V77.375C44.999 78.8251 46.174 80 47.624 80C49.0741 80 50.249 78.8251 50.249 77.375V64.25H53.749V77.375C53.749 78.8251 54.924 80 56.374 80C57.8241 80 58.999 78.8251 58.999 77.375V59.875V56.5459C58.999 56.519 59.0696 56.5095 59.0981 56.481L67.0142 48.5649C68.0396 47.5404 68.043 45.8784 67.0176 44.853L59.1836 37.019C58.6612 36.4966 57.9744 36.2469 57.29 36.2568C57.2773 36.2565 57.2687 36.25 57.2559 36.25H46.9678L43.5225 32.8047L47.1968 31.3486C48.0076 33.2012 49.8542 34.5 52.0059 34.5C54.9054 34.5 57.2559 32.1495 57.2559 29.25C57.2559 26.4512 55.0597 24.1862 52.2998 24.0308C52.2129 24.0208 52.1247 24.0046 52.0366 24.0034C52.0253 24.0033 52.0172 24 52.0059 24ZM63.3398 24.0068C61.8855 24.0068 60.7046 25.1724 60.7046 26.6011C60.7046 27.0847 61.0959 27.4761 61.5796 27.4761C62.0632 27.4761 62.4546 27.0847 62.4546 26.6011C62.4546 26.1525 62.8673 25.7603 63.3398 25.7603C63.8072 25.7603 64.2046 26.1431 64.2046 26.5977C64.2046 26.8309 64.1644 26.9497 64.0303 27.124C63.8987 27.2949 63.7218 27.4436 63.5518 27.5957C63.0647 28.0298 62.4614 28.5724 62.4614 29.4312L62.4546 30.2036C62.4511 30.6864 62.8391 31 63.3228 31H63.3296C63.8098 31 64.2012 30.6984 64.2046 30.2173L64.208 29.4004C64.2362 29.2885 64.537 29.0415 64.7173 28.8809C64.9685 28.657 65.2223 28.4331 65.418 28.1802C65.7897 27.6982 65.9546 27.2112 65.9546 26.5908C65.9546 25.1638 64.7805 24.0068 63.3398 24.0068ZM63.3193 32.9106C63.0873 32.9106 62.8647 33.0028 62.7006 33.1669C62.5365 33.331 62.4443 33.5536 62.4443 33.7856C62.4443 34.0177 62.5365 34.2403 62.7006 34.4044C62.8647 34.5685 63.0873 34.6606 63.3193 34.6606C63.5514 34.6606 63.774 34.5685 63.9381 34.4044C64.1021 34.2403 64.1943 34.0177 64.1943 33.7856C64.1943 33.5536 64.1021 33.331 63.9381 33.1669C63.774 33.0028 63.5514 32.9106 63.3193 32.9106ZM58.999 44.2651L61.4429 46.709L58.999 49.1528V44.2651Z" fill="#FBBC41"/>
</svg>