<svg width="288" height="237" viewBox="0 0 288 237" fill="none" xmlns="http://www.w3.org/2000/svg">
<rect width="288" height="237" rx="10" fill="#F5F5F5" fill-opacity="0.6"/>
<g clip-path="url(#clip0_846_69)">
<path d="M164.266 62.636H139.51V63.1061H164.266V62.636Z" fill="#CCCCCC"/>
<path d="M120.177 62.636H41.6665V63.1061H120.177V62.636Z" fill="#CCCCCC"/>
<path d="M41.6664 72.5068C47.005 72.5068 51.3328 68.1927 51.3328 62.8709C51.3328 57.549 47.005 53.2349 41.6664 53.2349C36.3278 53.2349 32 57.549 32 62.8709C32 68.1927 36.3278 72.5068 41.6664 72.5068Z" fill="#00ADEF"/>
<path d="M85.7548 72.5068C91.0934 72.5068 95.4211 68.1927 95.4211 62.8709C95.4211 57.549 91.0934 53.2349 85.7548 53.2349C80.4162 53.2349 76.0884 57.549 76.0884 62.8709C76.0884 68.1927 80.4162 72.5068 85.7548 72.5068Z" fill="#475564"/>
<path d="M129.842 72.7424C127.884 72.7424 125.969 72.1634 124.341 71.0788C122.712 69.9941 121.443 68.4524 120.694 66.6487C119.944 64.845 119.748 62.8602 120.13 60.9454C120.512 59.0306 121.455 57.2717 122.84 55.8912C124.225 54.5107 125.99 53.5706 127.91 53.1897C129.831 52.8088 131.822 53.0043 133.632 53.7514C135.441 54.4985 136.988 55.7637 138.076 57.387C139.164 59.0104 139.745 60.9188 139.745 62.8712C139.745 65.4892 138.701 68 136.844 69.8512C134.987 71.7024 132.469 72.7424 129.842 72.7424ZM129.842 53.4701C127.977 53.4701 126.154 54.0215 124.603 55.0545C123.052 56.0875 121.843 57.5557 121.129 59.2736C120.416 60.9914 120.229 62.8816 120.593 64.7052C120.957 66.5289 121.855 68.204 123.174 69.5187C124.493 70.8335 126.173 71.7289 128.002 72.0916C129.832 72.4543 131.728 72.2682 133.451 71.5566C135.174 70.8451 136.647 69.6401 137.684 68.0941C138.72 66.5481 139.273 64.7305 139.273 62.8712C139.273 60.3779 138.279 57.9867 136.511 56.2236C134.742 54.4606 132.343 53.4701 129.842 53.4701V53.4701Z" fill="#CCCCCC"/>
<path d="M173.931 72.7424C171.973 72.7424 170.058 72.1634 168.43 71.0788C166.801 69.9941 165.532 68.4524 164.783 66.6487C164.033 64.845 163.837 62.8602 164.219 60.9454C164.601 59.0306 165.544 57.2717 166.929 55.8912C168.314 54.5107 170.078 53.5706 171.999 53.1897C173.92 52.8088 175.911 53.0043 177.721 53.7514C179.53 54.4985 181.077 55.7637 182.165 57.387C183.253 59.0104 183.833 60.9188 183.833 62.8712C183.833 65.4892 182.79 68 180.933 69.8512C179.076 71.7024 176.557 72.7424 173.931 72.7424ZM173.931 53.4701C172.066 53.4701 170.243 54.0215 168.692 55.0545C167.141 56.0875 165.932 57.5557 165.218 59.2736C164.505 60.9914 164.318 62.8816 164.682 64.7052C165.046 66.5289 165.944 68.204 167.263 69.5187C168.582 70.8335 170.262 71.7289 172.091 72.0916C173.921 72.4543 175.817 72.2682 177.54 71.5566C179.263 70.8451 180.736 69.6401 181.772 68.0941C182.809 66.5481 183.362 64.7305 183.362 62.8712C183.362 61.6366 183.118 60.4141 182.644 59.2736C182.17 58.133 181.475 57.0966 180.6 56.2236C179.724 55.3507 178.684 54.6582 177.54 54.1857C176.396 53.7133 175.17 53.4701 173.931 53.4701Z" fill="#CCCCCC"/>
<path d="M40.9224 65.744C40.7526 65.7441 40.5874 65.6892 40.4516 65.5875L40.4432 65.5813L38.669 64.2285C38.5031 64.1017 38.3945 63.9144 38.3671 63.7077C38.3398 63.5011 38.3959 63.2921 38.5231 63.1266C38.6503 62.9612 38.8383 62.853 39.0455 62.8257C39.2528 62.7984 39.4625 62.8543 39.6285 62.9812L40.7775 63.8596L43.4928 60.3281C43.62 60.1628 43.8078 60.0546 44.015 60.0273C44.2222 60 44.4318 60.0559 44.5977 60.1826V60.1826L44.5809 60.2058L44.5982 60.1826C44.7639 60.3095 44.8723 60.4968 44.8996 60.7034C44.9269 60.9099 44.8709 61.1188 44.7439 61.2842L41.5499 65.436C41.4759 65.5318 41.3808 65.6092 41.2719 65.6623C41.1631 65.7155 41.0434 65.7429 40.9222 65.7424L40.9224 65.744Z" fill="white"/>
<path d="M203.738 104.095C203.919 104.178 204.093 104.274 204.258 104.384L220.777 97.3562L221.366 93.0184L227.967 92.978L227.577 102.927L205.773 108.676C205.727 108.827 205.672 108.975 205.608 109.119C205.293 109.79 204.786 110.352 204.151 110.737C203.516 111.121 202.781 111.31 202.039 111.279C201.297 111.248 200.58 111 199.979 110.564C199.378 110.129 198.92 109.526 198.661 108.832C198.403 108.138 198.356 107.383 198.526 106.662C198.697 105.942 199.077 105.287 199.619 104.781C200.162 104.275 200.842 103.94 201.575 103.818C202.308 103.696 203.06 103.793 203.738 104.096L203.738 104.095Z" fill="#FEB8B8"/>
<path d="M230.367 194.25H225.852L223.704 176.888H230.368L230.367 194.25Z" fill="#FEB8B8"/>
<path d="M222.626 192.964H231.335V198.428H217.144C217.144 196.978 217.721 195.588 218.749 194.563C219.778 193.538 221.172 192.962 222.626 192.962V192.964Z" fill="#2F2E41"/>
<path d="M247.928 192.978L243.434 193.419L239.589 176.351L246.221 175.701L247.928 192.978Z" fill="#FEB8B8"/>
<path d="M240.095 192.456L248.76 191.605L249.297 197.043L235.177 198.429C235.035 196.987 235.473 195.548 236.395 194.427C237.317 193.307 238.648 192.598 240.095 192.456H240.095Z" fill="#2F2E41"/>
<path d="M231.624 74.6036C236.62 74.6036 240.669 70.5664 240.669 65.5863C240.669 60.6063 236.62 56.5691 231.624 56.5691C226.628 56.5691 222.578 60.6063 222.578 65.5863C222.578 70.5664 226.628 74.6036 231.624 74.6036Z" fill="#FEB8B8"/>
<path d="M224.843 190.738C224.454 190.739 224.079 190.603 223.781 190.355C223.484 190.106 223.284 189.761 223.216 189.38C220.881 176.45 213.24 134.162 213.057 132.99C213.053 132.963 213.051 132.936 213.051 132.908V129.755C213.051 129.64 213.087 129.528 213.154 129.435L214.163 128.027C214.211 127.959 214.274 127.903 214.347 127.863C214.42 127.824 214.501 127.801 214.585 127.797C220.339 127.529 239.181 126.74 240.091 127.874C241.005 129.012 240.681 132.466 240.607 133.146L240.611 133.217L249.076 187.186C249.143 187.617 249.036 188.056 248.78 188.409C248.524 188.762 248.138 189 247.708 189.071L242.42 189.94C242.026 190.003 241.623 189.923 241.283 189.714C240.944 189.506 240.69 189.183 240.569 188.804C238.934 183.595 233.451 166.072 231.55 159.291C231.54 159.246 231.513 159.207 231.475 159.181C231.437 159.155 231.391 159.144 231.345 159.151C231.3 159.157 231.259 159.181 231.23 159.216C231.201 159.252 231.186 159.297 231.189 159.343C231.284 165.807 231.513 182.298 231.594 187.993L231.602 188.607C231.606 189.022 231.453 189.424 231.174 189.732C230.895 190.04 230.51 190.233 230.095 190.272L224.997 190.733C224.945 190.737 224.894 190.739 224.843 190.738V190.738Z" fill="#475564"/>
<path d="M225.883 78.1496C224.304 79.0852 223.36 80.804 222.818 82.5562C221.814 85.7948 221.21 89.1432 221.019 92.5275L220.446 102.66L213.354 129.523C219.501 134.708 223.046 133.529 231.32 129.289C239.594 125.048 240.539 130.702 240.539 130.702L242.194 107.845L244.557 82.8678C244.027 82.2309 243.426 81.6553 242.767 81.1518C240.582 79.4578 238.04 78.2803 235.332 77.7079C232.624 77.1355 229.822 77.1832 227.135 77.8474L225.883 78.1496Z" fill="#E6E6E6"/>
<path d="M223.579 109.52C223.77 109.592 223.955 109.678 224.132 109.778L240.466 101.627L240.737 97.2119L247.474 96.7488L247.835 106.813L226.008 114.01C225.83 114.772 225.423 115.463 224.842 115.989C224.26 116.516 223.532 116.853 222.754 116.957C221.975 117.06 221.183 116.925 220.484 116.569C219.784 116.214 219.21 115.654 218.837 114.965C218.465 114.276 218.312 113.49 218.398 112.712C218.484 111.933 218.806 111.2 219.321 110.609C219.836 110.018 220.519 109.597 221.28 109.402C222.041 109.207 222.843 109.248 223.58 109.519L223.579 109.52Z" fill="#FEB8B8"/>
<path d="M244.44 82.9802C248.458 84.394 249.167 99.7123 249.167 99.7123C244.439 97.1203 238.765 101.362 238.765 101.362C238.765 101.362 237.584 97.3555 236.165 92.1717C235.737 90.7134 235.686 89.1709 236.016 87.6877C236.347 86.2044 237.049 84.8286 238.056 83.6884C238.056 83.6884 240.421 81.5657 244.44 82.9802Z" fill="#E6E6E6"/>
<path d="M239.733 67.9704C238.606 67.0716 237.068 68.7046 237.068 68.7046L236.167 60.6175C236.167 60.6175 230.532 61.2904 226.925 60.3927C223.317 59.495 222.754 63.652 222.754 63.652C222.568 61.9732 222.531 60.2813 222.642 58.5959C222.867 56.5736 225.797 54.5513 230.982 53.203C236.166 51.8547 238.871 57.6971 238.871 57.6971C242.48 59.4934 240.861 68.8702 239.733 67.9704Z" fill="#2F2E41"/>
<path d="M256 198.429H63.126V199H256V198.429Z" fill="#E6E6E6"/>
<path d="M81.7328 188.345C82.5581 188.634 83.4442 188.707 84.3058 188.555C85.1673 188.404 85.9753 188.034 86.6518 187.481C88.3747 186.04 88.9148 183.665 89.3543 181.466L90.6542 174.962L87.9327 176.83C85.9754 178.173 83.9741 179.56 82.6187 181.506C81.2633 183.452 80.6719 186.108 81.7608 188.214" fill="#E6E6E6"/>
<path d="M82.1529 196.672C81.8102 194.184 81.4579 191.665 81.6983 189.15C81.9117 186.917 82.5952 184.736 83.9867 182.947C84.7253 182 85.624 181.188 86.6424 180.548C86.9078 180.381 87.1524 180.801 86.888 180.967C85.1255 182.077 83.7621 183.716 82.9946 185.649C82.1471 187.798 82.0111 190.14 82.1576 192.422C82.246 193.802 82.433 195.174 82.6216 196.543C82.6364 196.605 82.6271 196.67 82.5956 196.726C82.564 196.781 82.5125 196.822 82.4516 196.841C82.3894 196.858 82.3231 196.85 82.267 196.818C82.211 196.786 82.1698 196.734 82.1523 196.672L82.1529 196.672Z" fill="#F2F2F2"/>
<path d="M84.6187 192.68C84.9726 193.217 85.4592 193.653 86.0314 193.948C86.6036 194.242 87.2423 194.385 87.8859 194.361C89.5397 194.283 90.9187 193.133 92.1598 192.041L95.8312 188.81L93.4015 188.694C91.6542 188.611 89.8617 188.533 88.1963 189.07C86.531 189.607 84.9971 190.9 84.6929 192.616" fill="#E6E6E6"/>
<path d="M81.1846 198.103C82.8325 195.194 84.7466 191.961 88.1645 190.928C89.1148 190.641 90.1113 190.539 91.1003 190.625C91.412 190.651 91.3341 191.131 91.0218 191.104C89.364 190.967 87.7095 191.403 86.3367 192.34C85.0155 193.236 83.987 194.482 83.1165 195.804C82.5832 196.612 82.1056 197.458 81.628 198.3C81.4757 198.569 81.0311 198.375 81.1846 198.103Z" fill="#F2F2F2"/>
<path d="M197.419 114.169H114.846C114.44 114.169 114.051 114.008 113.765 113.722C113.478 113.437 113.317 113.049 113.316 112.645V92.2267C113.317 91.8226 113.478 91.4351 113.765 91.1494C114.051 90.8636 114.44 90.7029 114.846 90.7024H197.419C197.824 90.7029 198.213 90.8636 198.499 91.1494C198.786 91.4351 198.947 91.8226 198.948 92.2267V112.645C198.947 113.049 198.786 113.437 198.499 113.722C198.213 114.008 197.824 114.169 197.419 114.169ZM114.846 91.3123C114.602 91.3125 114.369 91.409 114.197 91.5805C114.025 91.7519 113.928 91.9844 113.928 92.2269V112.645C113.928 112.888 114.025 113.12 114.197 113.292C114.369 113.463 114.602 113.56 114.846 113.56H197.419C197.662 113.56 197.895 113.463 198.067 113.292C198.239 113.12 198.336 112.888 198.336 112.645V92.2267C198.336 91.9842 198.239 91.7516 198.067 91.5801C197.895 91.4086 197.662 91.3122 197.419 91.312L114.846 91.3123Z" fill="#E6E6E6"/>
<path d="M142.062 97.5127C141.786 97.5127 141.522 97.6217 141.327 97.8158C141.133 98.0099 141.023 98.2731 141.023 98.5476C141.023 98.8221 141.133 99.0853 141.327 99.2794C141.522 99.4734 141.786 99.5825 142.062 99.5825H191.002C191.278 99.5825 191.542 99.4734 191.736 99.2794C191.931 99.0853 192.041 98.8221 192.041 98.5476C192.041 98.2731 191.931 98.0099 191.736 97.8158C191.542 97.6217 191.278 97.5127 191.002 97.5127H142.062Z" fill="#E6E6E6"/>
<path d="M142.062 103.722C141.786 103.722 141.522 103.831 141.328 104.026C141.133 104.22 141.023 104.483 141.023 104.757C141.023 105.032 141.133 105.295 141.328 105.489C141.522 105.683 141.786 105.792 142.062 105.792H163.121C163.396 105.792 163.66 105.683 163.855 105.489C164.05 105.295 164.159 105.032 164.159 104.757C164.159 104.483 164.05 104.22 163.855 104.026C163.66 103.831 163.396 103.722 163.121 103.722H142.062Z" fill="#E6E6E6"/>
<path d="M127.734 107.815C131.174 107.815 133.963 105.035 133.963 101.605C133.963 98.176 131.174 95.396 127.734 95.396C124.294 95.396 121.505 98.176 121.505 101.605C121.505 105.035 124.294 107.815 127.734 107.815Z" fill="#E6E6E6"/>
<path d="M126.755 105.056C126.546 105.057 126.342 104.989 126.175 104.864L126.164 104.856L123.978 103.189C123.773 103.033 123.639 102.802 123.606 102.547C123.572 102.292 123.641 102.034 123.798 101.83C123.954 101.626 124.186 101.493 124.442 101.459C124.697 101.425 124.956 101.494 125.16 101.65L126.576 102.733L129.923 98.381C130.079 98.1773 130.311 98.0439 130.566 98.0103C130.821 97.9767 131.08 98.0455 131.284 98.2016L131.263 98.2303L131.285 98.2016C131.489 98.358 131.623 98.5888 131.656 98.8433C131.69 99.0978 131.621 99.3552 131.465 99.5591L127.529 104.678C127.438 104.796 127.321 104.892 127.187 104.957C127.053 105.023 126.905 105.056 126.756 105.056L126.755 105.056Z" fill="#00ADEF"/>
</g>
<path d="M97.2 29V18.35H104.295V19.835H98.88V23.015H103.41V24.41H98.88V29H97.2ZM105.677 29V21.155H107.327V29H105.677ZM105.677 19.865V18.05H107.327V19.865H105.677ZM109.324 18.05H110.974V26.735C110.974 27.135 111.034 27.39 111.154 27.5C111.274 27.61 111.424 27.665 111.604 27.665C111.804 27.665 111.989 27.645 112.159 27.605C112.339 27.565 112.494 27.515 112.624 27.455L112.864 28.76C112.624 28.86 112.339 28.945 112.009 29.015C111.679 29.085 111.384 29.12 111.124 29.12C110.564 29.12 110.124 28.965 109.804 28.655C109.484 28.335 109.324 27.895 109.324 27.335V18.05ZM113.836 18.05H115.486V26.735C115.486 27.135 115.546 27.39 115.666 27.5C115.786 27.61 115.936 27.665 116.116 27.665C116.316 27.665 116.501 27.645 116.671 27.605C116.851 27.565 117.006 27.515 117.136 27.455L117.376 28.76C117.136 28.86 116.851 28.945 116.521 29.015C116.191 29.085 115.896 29.12 115.636 29.12C115.076 29.12 114.636 28.965 114.316 28.655C113.996 28.335 113.836 27.895 113.836 27.335V18.05ZM125.139 29.15C124.519 29.15 123.964 29.045 123.474 28.835C122.984 28.615 122.559 28.315 122.199 27.935C121.849 27.555 121.579 27.125 121.389 26.645C121.199 26.155 121.104 25.635 121.104 25.085C121.104 24.535 121.199 24.015 121.389 23.525C121.579 23.035 121.849 22.605 122.199 22.235C122.559 21.855 122.984 21.56 123.474 21.35C123.974 21.13 124.529 21.02 125.139 21.02C125.749 21.02 126.299 21.13 126.789 21.35C127.289 21.56 127.714 21.855 128.064 22.235C128.424 22.605 128.699 23.035 128.889 23.525C129.079 24.015 129.174 24.535 129.174 25.085C129.174 25.635 129.079 26.155 128.889 26.645C128.699 27.125 128.424 27.555 128.064 27.935C127.714 28.315 127.289 28.615 126.789 28.835C126.299 29.045 125.749 29.15 125.139 29.15ZM122.799 25.1C122.799 25.6 122.904 26.05 123.114 26.45C123.324 26.85 123.604 27.165 123.954 27.395C124.304 27.625 124.699 27.74 125.139 27.74C125.569 27.74 125.959 27.625 126.309 27.395C126.669 27.155 126.954 26.835 127.164 26.435C127.374 26.025 127.479 25.575 127.479 25.085C127.479 24.585 127.374 24.135 127.164 23.735C126.954 23.335 126.669 23.02 126.309 22.79C125.959 22.55 125.569 22.43 125.139 22.43C124.699 22.43 124.304 22.55 123.954 22.79C123.604 23.03 123.324 23.35 123.114 23.75C122.904 24.14 122.799 24.59 122.799 25.1ZM130.562 25.955V21.155H132.212V25.625C132.212 26.325 132.337 26.855 132.587 27.215C132.847 27.565 133.222 27.74 133.712 27.74C134.022 27.74 134.322 27.675 134.612 27.545C134.912 27.415 135.182 27.225 135.422 26.975C135.672 26.715 135.872 26.405 136.022 26.045V21.155H137.672V27.14C137.672 27.33 137.707 27.465 137.777 27.545C137.847 27.625 137.962 27.67 138.122 27.68V29C137.952 29.03 137.812 29.05 137.702 29.06C137.592 29.07 137.487 29.075 137.387 29.075C137.087 29.075 136.837 28.995 136.637 28.835C136.437 28.665 136.322 28.45 136.292 28.19L136.262 27.41C135.912 27.98 135.457 28.415 134.897 28.715C134.337 29.005 133.722 29.15 133.052 29.15C132.232 29.15 131.612 28.88 131.192 28.34C130.772 27.8 130.562 27.005 130.562 25.955ZM144.128 28.595C143.988 28.665 143.813 28.74 143.603 28.82C143.393 28.9 143.153 28.97 142.883 29.03C142.623 29.09 142.353 29.12 142.073 29.12C141.733 29.12 141.418 29.06 141.128 28.94C140.838 28.82 140.603 28.63 140.423 28.37C140.253 28.1 140.168 27.755 140.168 27.335V22.43H139.133V21.155H140.168V18.575H141.818V21.155H143.528V22.43H141.818V26.81C141.838 27.08 141.923 27.28 142.073 27.41C142.233 27.54 142.428 27.605 142.658 27.605C142.888 27.605 143.108 27.565 143.318 27.485C143.528 27.405 143.683 27.34 143.783 27.29L144.128 28.595ZM148.407 26.705C148.407 26.205 148.547 25.77 148.827 25.4C149.117 25.02 149.512 24.73 150.012 24.53C150.512 24.32 151.092 24.215 151.752 24.215C152.102 24.215 152.457 24.24 152.817 24.29C153.187 24.34 153.512 24.42 153.792 24.53V24.035C153.792 23.485 153.627 23.055 153.297 22.745C152.967 22.435 152.492 22.28 151.872 22.28C151.432 22.28 151.017 22.36 150.627 22.52C150.237 22.67 149.822 22.885 149.382 23.165L148.827 22.055C149.347 21.705 149.867 21.445 150.387 21.275C150.917 21.105 151.472 21.02 152.052 21.02C153.102 21.02 153.927 21.3 154.527 21.86C155.137 22.41 155.442 23.195 155.442 24.215V27.14C155.442 27.33 155.472 27.465 155.532 27.545C155.602 27.625 155.717 27.67 155.877 27.68V29C155.727 29.03 155.592 29.05 155.472 29.06C155.352 29.07 155.252 29.075 155.172 29.075C154.822 29.075 154.557 28.99 154.377 28.82C154.197 28.65 154.092 28.45 154.062 28.22L154.017 27.77C153.677 28.21 153.242 28.55 152.712 28.79C152.182 29.03 151.647 29.15 151.107 29.15C150.587 29.15 150.122 29.045 149.712 28.835C149.302 28.615 148.982 28.32 148.752 27.95C148.522 27.58 148.407 27.165 148.407 26.705ZM153.402 27.185C153.522 27.055 153.617 26.925 153.687 26.795C153.757 26.665 153.792 26.55 153.792 26.45V25.55C153.512 25.44 153.217 25.36 152.907 25.31C152.597 25.25 152.292 25.22 151.992 25.22C151.392 25.22 150.902 25.34 150.522 25.58C150.152 25.82 149.967 26.15 149.967 26.57C149.967 26.8 150.027 27.02 150.147 27.23C150.277 27.44 150.457 27.61 150.687 27.74C150.927 27.87 151.222 27.935 151.572 27.935C151.932 27.935 152.277 27.865 152.607 27.725C152.937 27.585 153.202 27.405 153.402 27.185ZM161.6 29V22.625H160.55V21.35H161.6V21.035C161.6 20.395 161.7 19.84 161.9 19.37C162.11 18.9 162.4 18.54 162.77 18.29C163.15 18.03 163.595 17.9 164.105 17.9C164.425 17.9 164.74 17.945 165.05 18.035C165.36 18.115 165.655 18.23 165.935 18.38L165.575 19.61C165.425 19.51 165.245 19.435 165.035 19.385C164.835 19.325 164.64 19.295 164.45 19.295C164.07 19.295 163.775 19.44 163.565 19.73C163.355 20.02 163.25 20.44 163.25 20.99V21.35H165.26V22.625H163.25V29H161.6ZM169.875 29.15C169.255 29.15 168.7 29.045 168.21 28.835C167.72 28.615 167.295 28.315 166.935 27.935C166.585 27.555 166.315 27.125 166.125 26.645C165.935 26.155 165.84 25.635 165.84 25.085C165.84 24.535 165.935 24.015 166.125 23.525C166.315 23.035 166.585 22.605 166.935 22.235C167.295 21.855 167.72 21.56 168.21 21.35C168.71 21.13 169.265 21.02 169.875 21.02C170.485 21.02 171.035 21.13 171.525 21.35C172.025 21.56 172.45 21.855 172.8 22.235C173.16 22.605 173.435 23.035 173.625 23.525C173.815 24.015 173.91 24.535 173.91 25.085C173.91 25.635 173.815 26.155 173.625 26.645C173.435 27.125 173.16 27.555 172.8 27.935C172.45 28.315 172.025 28.615 171.525 28.835C171.035 29.045 170.485 29.15 169.875 29.15ZM167.535 25.1C167.535 25.6 167.64 26.05 167.85 26.45C168.06 26.85 168.34 27.165 168.69 27.395C169.04 27.625 169.435 27.74 169.875 27.74C170.305 27.74 170.695 27.625 171.045 27.395C171.405 27.155 171.69 26.835 171.9 26.435C172.11 26.025 172.215 25.575 172.215 25.085C172.215 24.585 172.11 24.135 171.9 23.735C171.69 23.335 171.405 23.02 171.045 22.79C170.695 22.55 170.305 22.43 169.875 22.43C169.435 22.43 169.04 22.55 168.69 22.79C168.34 23.03 168.06 23.35 167.85 23.75C167.64 24.14 167.535 24.59 167.535 25.1ZM179.784 22.58C179.144 22.59 178.574 22.735 178.074 23.015C177.584 23.295 177.234 23.69 177.024 24.2V29H175.374V21.155H176.904V22.91C177.174 22.37 177.529 21.94 177.969 21.62C178.409 21.29 178.874 21.11 179.364 21.08C179.464 21.08 179.544 21.08 179.604 21.08C179.674 21.08 179.734 21.085 179.784 21.095V22.58ZM192.984 29H191.334V24.605C191.334 23.875 191.214 23.34 190.974 23C190.734 22.66 190.384 22.49 189.924 22.49C189.464 22.49 189.034 22.665 188.634 23.015C188.244 23.355 187.969 23.8 187.809 24.35V29H186.159V24.605C186.159 23.875 186.039 23.34 185.799 23C185.559 22.66 185.214 22.49 184.764 22.49C184.304 22.49 183.874 22.66 183.474 23C183.084 23.34 182.804 23.785 182.634 24.335V29H180.984V21.155H182.484V22.73C182.794 22.18 183.199 21.76 183.699 21.47C184.209 21.17 184.789 21.02 185.439 21.02C186.089 21.02 186.599 21.19 186.969 21.53C187.349 21.87 187.584 22.295 187.674 22.805C188.014 22.225 188.429 21.785 188.919 21.485C189.419 21.175 189.989 21.02 190.629 21.02C191.089 21.02 191.474 21.105 191.784 21.275C192.094 21.445 192.334 21.68 192.504 21.98C192.674 22.27 192.794 22.61 192.864 23C192.944 23.38 192.984 23.785 192.984 24.215V29Z" fill="#475564"/>
<defs>
<clipPath id="clip0_846_69">
<rect width="224" height="146" fill="white" transform="translate(32 53)"/>
</clipPath>
</defs>
</svg>
