<svg width="288" height="237" viewBox="0 0 288 237" fill="none" xmlns="http://www.w3.org/2000/svg">
<rect width="288" height="237" rx="10" fill="#F5F5F5" fill-opacity="0.6"/>
<g clip-path="url(#clip0_846_70)">
<path d="M65.2749 90.803C75.9201 90.803 84.5498 82.1166 84.5498 71.4015C84.5498 60.6863 75.9201 52 65.2749 52C54.6297 52 46 60.6863 46 71.4015C46 82.1166 54.6297 90.803 65.2749 90.803Z" fill="#F0F0F0"/>
<path d="M222.725 134.281C233.37 134.281 242 125.595 242 114.88C242 104.164 233.37 95.478 222.725 95.478C212.08 95.478 203.45 104.164 203.45 114.88C203.45 125.595 212.08 134.281 222.725 134.281Z" fill="#F0F0F0"/>
<path d="M162.512 196.429L159.124 194.993L156.799 177.894H125.842L123.322 194.923L120.291 196.449C120.145 196.522 120.029 196.642 119.96 196.79C119.892 196.938 119.875 197.105 119.912 197.264C119.949 197.422 120.039 197.564 120.166 197.665C120.293 197.767 120.45 197.822 120.613 197.822H162.233C162.399 197.822 162.56 197.764 162.689 197.658C162.818 197.552 162.906 197.404 162.939 197.24C162.972 197.076 162.947 196.906 162.87 196.758C162.792 196.61 162.666 196.494 162.512 196.429Z" fill="#E6E6E6"/>
<path d="M217.525 180.168H65.4557C64.6579 180.167 63.8933 179.846 63.3297 179.278C62.7662 178.709 62.4497 177.939 62.4497 177.136V155.551H220.531V177.136C220.531 177.939 220.215 178.709 219.651 179.278C219.087 179.846 218.323 180.167 217.525 180.168Z" fill="#CCCCCC"/>
<path d="M220.69 165.753H62.3105V73.3966C62.3117 72.4274 62.6947 71.4982 63.3756 70.8129C64.0564 70.1275 64.9796 69.7421 65.9425 69.741H217.058C218.021 69.7421 218.944 70.1275 219.625 70.8129C220.306 71.4982 220.689 72.4274 220.69 73.3966V165.753Z" fill="#3F3D56"/>
<path d="M211.231 159.05H71.7702C71.0278 159.049 70.3161 158.752 69.7912 158.223C69.2663 157.695 68.971 156.978 68.9702 156.231V79.2625C68.971 78.5153 69.2663 77.7989 69.7912 77.2706C70.3161 76.7422 71.0278 76.445 71.7702 76.4441H211.231C211.973 76.445 212.685 76.7422 213.21 77.2706C213.735 77.7989 214.03 78.5153 214.031 79.2625V156.231C214.03 156.978 213.735 157.695 213.21 158.223C212.685 158.752 211.973 159.049 211.231 159.05Z" fill="white"/>
<path d="M180.612 198H102.248C102.167 198.002 102.089 197.977 102.024 197.929C101.959 197.881 101.912 197.813 101.89 197.735C101.876 197.682 101.875 197.627 101.885 197.573C101.896 197.519 101.919 197.469 101.952 197.426C101.985 197.382 102.028 197.347 102.077 197.323C102.125 197.299 102.179 197.286 102.233 197.286H180.583C180.668 197.283 180.751 197.309 180.819 197.36C180.887 197.411 180.936 197.483 180.959 197.565C180.97 197.618 180.97 197.672 180.958 197.724C180.946 197.776 180.922 197.825 180.889 197.866C180.856 197.908 180.814 197.942 180.766 197.965C180.718 197.988 180.665 198 180.612 198Z" fill="#CCCCCC"/>
<path d="M203.607 105.999H165.393C165.298 106.003 165.204 105.99 165.13 105.963C165.057 105.936 165.01 105.897 165 105.855V92.1454C165.01 92.1032 165.057 92.0643 165.13 92.0373C165.204 92.0102 165.298 91.997 165.393 92.0006H203.607C203.702 91.997 203.796 92.0102 203.87 92.0372C203.943 92.0643 203.99 92.1031 204 92.1454V105.855C203.99 105.897 203.943 105.936 203.87 105.963C203.796 105.99 203.702 106.003 203.607 105.999Z" fill="#F0F0F0"/>
<path d="M192.828 114H176.172C176.13 114.001 176.089 113.996 176.057 113.987C176.025 113.977 176.004 113.963 176 113.948V109.052C176.004 109.037 176.025 109.023 176.057 109.013C176.089 109.004 176.13 108.999 176.172 109H192.828C192.87 108.999 192.911 109.004 192.943 109.013C192.975 109.023 192.996 109.037 193 109.052V113.948C192.996 113.963 192.975 113.977 192.943 113.987C192.911 113.996 192.87 114.001 192.828 114Z" fill="#00ADEF"/>
<path d="M87.2754 144.68V90.7159C87.2942 90.5485 87.3773 90.3951 87.5071 90.2885C87.6368 90.182 87.8028 90.1308 87.9695 90.1459H155.379C155.546 90.1308 155.712 90.182 155.841 90.2885C155.971 90.3951 156.054 90.5485 156.073 90.7159V144.68C156.054 144.848 155.971 145.001 155.841 145.108C155.712 145.214 155.546 145.265 155.379 145.25H87.9695C87.8028 145.266 87.6368 145.214 87.5071 145.108C87.3773 145.001 87.2942 144.848 87.2754 144.68Z" fill="#E4E4E4"/>
<path d="M94.6025 96.9004V138.046C94.6028 138.232 94.676 138.409 94.8062 138.54C94.9363 138.671 95.1127 138.745 95.2967 138.745H148.052C148.236 138.745 148.412 138.671 148.542 138.54C148.673 138.409 148.746 138.232 148.746 138.046V96.9004C148.746 96.7151 148.673 96.5376 148.542 96.4066C148.412 96.2756 148.236 96.2019 148.052 96.2017H95.2967C95.1127 96.2019 94.9363 96.2756 94.8062 96.4066C94.676 96.5376 94.6028 96.7151 94.6025 96.9004Z" fill="white"/>
<path d="M116.483 138.745H127.101L126.439 128.749L122.609 129.639L118.884 128.196L118.785 128.159L118.779 128.156C118.777 128.159 118.776 128.162 118.776 128.165C118.717 128.403 117.548 133.115 116.483 138.745Z" fill="#00ADEF"/>
<path d="M110.085 130.381L111.077 138.745H120.025L118.884 128.196L118.873 128.094L118.785 128.159L118.776 128.165L116.568 129.786L110.085 130.381Z" fill="#2F2E41"/>
<path d="M125.53 138.745H133.544L133.659 132.16L127.762 130.191L126.439 128.749C126.439 128.749 126.021 133.089 125.53 138.745Z" fill="#2F2E41"/>
<path d="M106.227 138.745H112.868L112.442 132.753L110.085 130.381C110.085 130.381 108.22 134.318 106.227 138.745Z" fill="#2F2E41"/>
<path d="M131.654 138.745H135.157C135.142 136.826 135.133 135.5 135.133 135.126C135.15 134.547 135.025 133.974 134.768 133.456C134.511 132.938 134.13 132.493 133.66 132.16L131.89 132.753L131.654 138.745Z" fill="#2F2E41"/>
<path d="M132.201 125.603H113.638V117.728C113.638 115.029 115.527 111.785 117.849 110.495C121.108 108.685 124.671 108.653 127.624 110.408C129.014 111.237 130.166 112.414 130.969 113.825C131.771 115.237 132.196 116.833 132.201 118.459V125.603Z" fill="#2F2E41"/>
<path d="M129.17 121.897C130.946 118.627 129.752 114.526 126.503 112.739C123.254 110.951 119.18 112.153 117.404 115.423C115.628 118.694 116.822 122.794 120.071 124.582C123.32 126.37 127.394 125.168 129.17 121.897Z" fill="#FFB8B8"/>
<path d="M129.66 119.009H120.095L120.072 118.899C119.961 118.325 119.818 117.758 119.644 117.201C119.264 117.761 118.913 118.341 118.594 118.938L118.555 119.009H116.696C116.582 119.009 116.469 118.985 116.364 118.938C116.26 118.892 116.166 118.824 116.09 118.739C116.039 118.683 115.921 118.552 116.41 112.534C116.424 112.39 116.474 112.253 116.556 112.135C116.638 112.017 116.749 111.923 116.879 111.861C121.075 109.889 125.329 109.941 129.521 112.017H129.595L129.622 112.122C130.449 118.527 130.33 118.665 130.279 118.724C130.202 118.814 130.107 118.885 130 118.934C129.893 118.983 129.777 119.009 129.66 119.009Z" fill="#2F2E41"/>
</g>
<path d="M28.2669 29V18.35H35.3619V19.835H29.9469V23.015H34.4769V24.41H29.9469V29H28.2669ZM36.7434 29V21.155H38.3934V29H36.7434ZM36.7434 19.865V18.05H38.3934V19.865H36.7434ZM40.3912 18.05H42.0412V26.735C42.0412 27.135 42.1012 27.39 42.2212 27.5C42.3412 27.61 42.4912 27.665 42.6712 27.665C42.8712 27.665 43.0562 27.645 43.2262 27.605C43.4062 27.565 43.5612 27.515 43.6912 27.455L43.9312 28.76C43.6912 28.86 43.4062 28.945 43.0762 29.015C42.7462 29.085 42.4512 29.12 42.1912 29.12C41.6312 29.12 41.1912 28.965 40.8712 28.655C40.5512 28.335 40.3912 27.895 40.3912 27.335V18.05ZM56.888 29H55.2379V24.605C55.2379 23.875 55.1179 23.34 54.878 23C54.6379 22.66 54.2879 22.49 53.828 22.49C53.368 22.49 52.9379 22.665 52.5379 23.015C52.1479 23.355 51.8729 23.8 51.7129 24.35V29H50.0629V24.605C50.0629 23.875 49.9429 23.34 49.7029 23C49.4629 22.66 49.1179 22.49 48.6679 22.49C48.2079 22.49 47.7779 22.66 47.3779 23C46.9879 23.34 46.7079 23.785 46.5379 24.335V29H44.8879V21.155H46.3879V22.73C46.6979 22.18 47.1029 21.76 47.6029 21.47C48.1129 21.17 48.6929 21.02 49.3429 21.02C49.9929 21.02 50.5029 21.19 50.8729 21.53C51.2529 21.87 51.4879 22.295 51.5779 22.805C51.9179 22.225 52.3329 21.785 52.8229 21.485C53.3229 21.175 53.8929 21.02 54.5329 21.02C54.993 21.02 55.3779 21.105 55.6879 21.275C55.9979 21.445 56.2379 21.68 56.4079 21.98C56.5779 22.27 56.6979 22.61 56.7679 23C56.8479 23.38 56.888 23.785 56.888 24.215V29ZM62.3552 30.845C62.5052 30.865 62.6502 30.885 62.7902 30.905C62.9402 30.935 63.0602 30.95 63.1502 30.95C63.3202 30.95 63.4652 30.895 63.5852 30.785C63.7152 30.685 63.8452 30.495 63.9752 30.215C64.1052 29.935 64.2652 29.53 64.4552 29L61.2302 21.155H62.9552L65.3552 27.32L67.4852 21.155H69.0752L65.5202 30.815C65.4102 31.105 65.2502 31.37 65.0402 31.61C64.8302 31.86 64.5702 32.055 64.2602 32.195C63.9502 32.335 63.5852 32.405 63.1652 32.405C63.0452 32.405 62.9202 32.395 62.7902 32.375C62.6602 32.355 62.5152 32.325 62.3552 32.285V30.845ZM73.5497 29.15C72.9297 29.15 72.3747 29.045 71.8847 28.835C71.3947 28.615 70.9697 28.315 70.6097 27.935C70.2597 27.555 69.9897 27.125 69.7997 26.645C69.6097 26.155 69.5147 25.635 69.5147 25.085C69.5147 24.535 69.6097 24.015 69.7997 23.525C69.9897 23.035 70.2597 22.605 70.6097 22.235C70.9697 21.855 71.3947 21.56 71.8847 21.35C72.3847 21.13 72.9397 21.02 73.5497 21.02C74.1597 21.02 74.7097 21.13 75.1997 21.35C75.6997 21.56 76.1247 21.855 76.4747 22.235C76.8347 22.605 77.1097 23.035 77.2997 23.525C77.4897 24.015 77.5847 24.535 77.5847 25.085C77.5847 25.635 77.4897 26.155 77.2997 26.645C77.1097 27.125 76.8347 27.555 76.4747 27.935C76.1247 28.315 75.6997 28.615 75.1997 28.835C74.7097 29.045 74.1597 29.15 73.5497 29.15ZM71.2097 25.1C71.2097 25.6 71.3147 26.05 71.5247 26.45C71.7347 26.85 72.0147 27.165 72.3647 27.395C72.7147 27.625 73.1097 27.74 73.5497 27.74C73.9797 27.74 74.3697 27.625 74.7197 27.395C75.0797 27.155 75.3647 26.835 75.5747 26.435C75.7847 26.025 75.8897 25.575 75.8897 25.085C75.8897 24.585 75.7847 24.135 75.5747 23.735C75.3647 23.335 75.0797 23.02 74.7197 22.79C74.3697 22.55 73.9797 22.43 73.5497 22.43C73.1097 22.43 72.7147 22.55 72.3647 22.79C72.0147 23.03 71.7347 23.35 71.5247 23.75C71.3147 24.14 71.2097 24.59 71.2097 25.1ZM78.9731 25.955V21.155H80.6231V25.625C80.6231 26.325 80.7481 26.855 80.9981 27.215C81.2581 27.565 81.6331 27.74 82.1231 27.74C82.4331 27.74 82.7331 27.675 83.0231 27.545C83.3231 27.415 83.5931 27.225 83.8331 26.975C84.0831 26.715 84.2831 26.405 84.4331 26.045V21.155H86.0831V27.14C86.0831 27.33 86.1181 27.465 86.1881 27.545C86.2581 27.625 86.3731 27.67 86.5331 27.68V29C86.3631 29.03 86.2231 29.05 86.1131 29.06C86.0031 29.07 85.8981 29.075 85.7981 29.075C85.4981 29.075 85.2481 28.995 85.0481 28.835C84.8481 28.665 84.7331 28.45 84.7031 28.19L84.6731 27.41C84.3231 27.98 83.8681 28.415 83.3081 28.715C82.7481 29.005 82.1331 29.15 81.4631 29.15C80.6431 29.15 80.0231 28.88 79.6031 28.34C79.1831 27.8 78.9731 27.005 78.9731 25.955ZM92.5987 22.58C91.9587 22.59 91.3887 22.735 90.8887 23.015C90.3987 23.295 90.0487 23.69 89.8387 24.2V29H88.1887V21.155H89.7187V22.91C89.9887 22.37 90.3437 21.94 90.7837 21.62C91.2237 21.29 91.6887 21.11 92.1787 21.08C92.2787 21.08 92.3587 21.08 92.4187 21.08C92.4887 21.08 92.5487 21.085 92.5987 21.095V22.58ZM96.5891 29.15C95.9291 29.15 95.3041 29.045 94.7141 28.835C94.1241 28.615 93.6191 28.29 93.1991 27.86L93.8141 26.75C94.2641 27.15 94.7141 27.44 95.1641 27.62C95.6241 27.8 96.0791 27.89 96.5291 27.89C96.9891 27.89 97.3641 27.805 97.6541 27.635C97.9441 27.455 98.0891 27.195 98.0891 26.855C98.0891 26.605 98.0141 26.42 97.8641 26.3C97.7141 26.18 97.4941 26.075 97.2041 25.985C96.9241 25.895 96.5841 25.795 96.1841 25.685C95.6241 25.515 95.1541 25.34 94.7741 25.16C94.3941 24.97 94.1091 24.74 93.9191 24.47C93.7291 24.2 93.6341 23.855 93.6341 23.435C93.6341 22.925 93.7641 22.49 94.0241 22.13C94.2841 21.77 94.6441 21.495 95.1041 21.305C95.5741 21.115 96.1141 21.02 96.7241 21.02C97.2941 21.02 97.8191 21.11 98.2991 21.29C98.7891 21.46 99.2191 21.73 99.5891 22.1L98.8841 23.195C98.5341 22.875 98.1741 22.64 97.8041 22.49C97.4441 22.34 97.0541 22.265 96.6341 22.265C96.3941 22.265 96.1641 22.295 95.9441 22.355C95.7241 22.405 95.5391 22.505 95.3891 22.655C95.2491 22.795 95.1791 22.995 95.1791 23.255C95.1791 23.465 95.2391 23.635 95.3591 23.765C95.4791 23.895 95.6591 24.005 95.8991 24.095C96.1391 24.185 96.4341 24.285 96.7841 24.395C97.3941 24.575 97.9141 24.755 98.3441 24.935C98.7741 25.105 99.1041 25.33 99.3341 25.61C99.5741 25.88 99.6941 26.255 99.6941 26.735C99.6941 27.495 99.4091 28.09 98.8391 28.52C98.2791 28.94 97.5291 29.15 96.5891 29.15ZM104.722 29.15C104.112 29.15 103.557 29.045 103.057 28.835C102.567 28.615 102.142 28.32 101.782 27.95C101.422 27.57 101.142 27.14 100.942 26.66C100.752 26.17 100.657 25.65 100.657 25.1C100.657 24.36 100.827 23.685 101.167 23.075C101.507 22.455 101.982 21.96 102.592 21.59C103.202 21.21 103.917 21.02 104.737 21.02C105.557 21.02 106.262 21.21 106.852 21.59C107.452 21.96 107.917 22.45 108.247 23.06C108.577 23.67 108.742 24.325 108.742 25.025C108.742 25.145 108.737 25.26 108.727 25.37C108.717 25.47 108.707 25.555 108.697 25.625H102.412C102.442 26.085 102.567 26.49 102.787 26.84C103.017 27.18 103.307 27.45 103.657 27.65C104.007 27.84 104.382 27.935 104.782 27.935C105.222 27.935 105.637 27.825 106.027 27.605C106.427 27.385 106.697 27.095 106.837 26.735L108.247 27.14C108.077 27.52 107.817 27.865 107.467 28.175C107.127 28.475 106.722 28.715 106.252 28.895C105.782 29.065 105.272 29.15 104.722 29.15ZM102.367 24.53H107.107C107.077 24.08 106.947 23.685 106.717 23.345C106.497 22.995 106.212 22.725 105.862 22.535C105.522 22.335 105.142 22.235 104.722 22.235C104.312 22.235 103.932 22.335 103.582 22.535C103.242 22.725 102.962 22.995 102.742 23.345C102.522 23.685 102.397 24.08 102.367 24.53ZM110.103 18.05H111.753V26.735C111.753 27.135 111.813 27.39 111.933 27.5C112.053 27.61 112.203 27.665 112.383 27.665C112.583 27.665 112.768 27.645 112.938 27.605C113.118 27.565 113.273 27.515 113.403 27.455L113.643 28.76C113.403 28.86 113.118 28.945 112.788 29.015C112.458 29.085 112.163 29.12 111.903 29.12C111.343 29.12 110.903 28.965 110.583 28.655C110.263 28.335 110.103 27.895 110.103 27.335V18.05ZM115.021 29V22.625H113.971V21.35H115.021V21.035C115.021 20.395 115.121 19.84 115.321 19.37C115.531 18.9 115.821 18.54 116.191 18.29C116.571 18.03 117.016 17.9 117.526 17.9C117.846 17.9 118.161 17.945 118.471 18.035C118.781 18.115 119.076 18.23 119.356 18.38L118.996 19.61C118.846 19.51 118.666 19.435 118.456 19.385C118.256 19.325 118.061 19.295 117.871 19.295C117.491 19.295 117.196 19.44 116.986 19.73C116.776 20.02 116.671 20.44 116.671 20.99V21.35H118.681V22.625H116.671V29H115.021ZM126.826 29.15C126.206 29.15 125.651 29.045 125.161 28.835C124.671 28.615 124.246 28.315 123.886 27.935C123.536 27.555 123.266 27.125 123.076 26.645C122.886 26.155 122.791 25.635 122.791 25.085C122.791 24.535 122.886 24.015 123.076 23.525C123.266 23.035 123.536 22.605 123.886 22.235C124.246 21.855 124.671 21.56 125.161 21.35C125.661 21.13 126.216 21.02 126.826 21.02C127.436 21.02 127.986 21.13 128.476 21.35C128.976 21.56 129.401 21.855 129.751 22.235C130.111 22.605 130.386 23.035 130.576 23.525C130.766 24.015 130.861 24.535 130.861 25.085C130.861 25.635 130.766 26.155 130.576 26.645C130.386 27.125 130.111 27.555 129.751 27.935C129.401 28.315 128.976 28.615 128.476 28.835C127.986 29.045 127.436 29.15 126.826 29.15ZM124.486 25.1C124.486 25.6 124.591 26.05 124.801 26.45C125.011 26.85 125.291 27.165 125.641 27.395C125.991 27.625 126.386 27.74 126.826 27.74C127.256 27.74 127.646 27.625 127.996 27.395C128.356 27.155 128.641 26.835 128.851 26.435C129.061 26.025 129.166 25.575 129.166 25.085C129.166 24.585 129.061 24.135 128.851 23.735C128.641 23.335 128.356 23.02 127.996 22.79C127.646 22.55 127.256 22.43 126.826 22.43C126.386 22.43 125.991 22.55 125.641 22.79C125.291 23.03 125.011 23.35 124.801 23.75C124.591 24.14 124.486 24.59 124.486 25.1ZM139.359 29H137.709V24.605C137.709 23.875 137.589 23.34 137.349 23C137.119 22.66 136.774 22.49 136.314 22.49C135.994 22.49 135.674 22.57 135.354 22.73C135.044 22.89 134.764 23.11 134.514 23.39C134.264 23.66 134.084 23.975 133.974 24.335V29H132.324V21.155H133.824V22.73C134.024 22.38 134.284 22.08 134.604 21.83C134.934 21.57 135.304 21.37 135.714 21.23C136.124 21.09 136.559 21.02 137.019 21.02C137.489 21.02 137.874 21.105 138.174 21.275C138.484 21.445 138.724 21.68 138.894 21.98C139.074 22.27 139.194 22.61 139.254 23C139.324 23.38 139.359 23.785 139.359 24.215V29ZM146.761 29L143.776 21.155H145.486L147.721 27.47L149.956 21.155H151.546L148.561 29H146.761ZM152.73 29V21.155H154.38V29H152.73ZM152.73 19.865V18.05H154.38V19.865H152.73ZM155.868 25.085C155.868 24.335 156.018 23.655 156.318 23.045C156.628 22.425 157.048 21.935 157.578 21.575C158.108 21.205 158.718 21.02 159.408 21.02C160.008 21.02 160.548 21.175 161.028 21.485C161.518 21.795 161.898 22.18 162.168 22.64V18.05H163.818V27.14C163.818 27.33 163.853 27.465 163.923 27.545C163.993 27.625 164.108 27.67 164.268 27.68V29C163.958 29.05 163.718 29.075 163.548 29.075C163.238 29.075 162.973 28.985 162.753 28.805C162.543 28.625 162.433 28.41 162.423 28.16L162.408 27.575C162.108 28.075 161.703 28.465 161.193 28.745C160.683 29.015 160.153 29.15 159.603 29.15C159.063 29.15 158.563 29.045 158.103 28.835C157.653 28.625 157.258 28.33 156.918 27.95C156.588 27.57 156.328 27.135 156.138 26.645C155.958 26.155 155.868 25.635 155.868 25.085ZM162.168 26.18V24.125C162.058 23.805 161.878 23.52 161.628 23.27C161.388 23.01 161.113 22.805 160.803 22.655C160.503 22.505 160.203 22.43 159.903 22.43C159.553 22.43 159.233 22.505 158.943 22.655C158.663 22.805 158.418 23.005 158.208 23.255C158.008 23.505 157.853 23.79 157.743 24.11C157.633 24.43 157.578 24.765 157.578 25.115C157.578 25.475 157.638 25.815 157.758 26.135C157.878 26.445 158.048 26.725 158.268 26.975C158.498 27.215 158.758 27.405 159.048 27.545C159.348 27.675 159.673 27.74 160.023 27.74C160.243 27.74 160.463 27.7 160.683 27.62C160.913 27.54 161.128 27.43 161.328 27.29C161.538 27.15 161.713 26.985 161.853 26.795C162.003 26.605 162.108 26.4 162.168 26.18ZM169.468 29.15C168.858 29.15 168.303 29.045 167.803 28.835C167.313 28.615 166.888 28.32 166.528 27.95C166.168 27.57 165.888 27.14 165.688 26.66C165.498 26.17 165.403 25.65 165.403 25.1C165.403 24.36 165.573 23.685 165.913 23.075C166.253 22.455 166.728 21.96 167.338 21.59C167.948 21.21 168.663 21.02 169.483 21.02C170.303 21.02 171.008 21.21 171.598 21.59C172.198 21.96 172.663 22.45 172.993 23.06C173.323 23.67 173.488 24.325 173.488 25.025C173.488 25.145 173.483 25.26 173.473 25.37C173.463 25.47 173.453 25.555 173.443 25.625H167.158C167.188 26.085 167.313 26.49 167.533 26.84C167.763 27.18 168.053 27.45 168.403 27.65C168.753 27.84 169.128 27.935 169.528 27.935C169.968 27.935 170.383 27.825 170.773 27.605C171.173 27.385 171.443 27.095 171.583 26.735L172.993 27.14C172.823 27.52 172.563 27.865 172.213 28.175C171.873 28.475 171.468 28.715 170.998 28.895C170.528 29.065 170.018 29.15 169.468 29.15ZM167.113 24.53H171.853C171.823 24.08 171.693 23.685 171.463 23.345C171.243 22.995 170.958 22.725 170.608 22.535C170.268 22.335 169.888 22.235 169.468 22.235C169.058 22.235 168.678 22.335 168.328 22.535C167.988 22.725 167.708 22.995 167.488 23.345C167.268 23.685 167.143 24.08 167.113 24.53ZM178.359 29.15C177.739 29.15 177.184 29.045 176.694 28.835C176.204 28.615 175.779 28.315 175.419 27.935C175.069 27.555 174.799 27.125 174.609 26.645C174.419 26.155 174.324 25.635 174.324 25.085C174.324 24.535 174.419 24.015 174.609 23.525C174.799 23.035 175.069 22.605 175.419 22.235C175.779 21.855 176.204 21.56 176.694 21.35C177.194 21.13 177.749 21.02 178.359 21.02C178.969 21.02 179.519 21.13 180.009 21.35C180.509 21.56 180.934 21.855 181.284 22.235C181.644 22.605 181.919 23.035 182.109 23.525C182.299 24.015 182.394 24.535 182.394 25.085C182.394 25.635 182.299 26.155 182.109 26.645C181.919 27.125 181.644 27.555 181.284 27.935C180.934 28.315 180.509 28.615 180.009 28.835C179.519 29.045 178.969 29.15 178.359 29.15ZM176.019 25.1C176.019 25.6 176.124 26.05 176.334 26.45C176.544 26.85 176.824 27.165 177.174 27.395C177.524 27.625 177.919 27.74 178.359 27.74C178.789 27.74 179.179 27.625 179.529 27.395C179.889 27.155 180.174 26.835 180.384 26.435C180.594 26.025 180.699 25.575 180.699 25.085C180.699 24.585 180.594 24.135 180.384 23.735C180.174 23.335 179.889 23.02 179.529 22.79C179.179 22.55 178.789 22.43 178.359 22.43C177.919 22.43 177.524 22.55 177.174 22.79C176.824 23.03 176.544 23.35 176.334 23.75C176.124 24.14 176.019 24.59 176.019 25.1ZM186.994 26.705C186.994 26.205 187.134 25.77 187.414 25.4C187.704 25.02 188.099 24.73 188.599 24.53C189.099 24.32 189.679 24.215 190.339 24.215C190.689 24.215 191.044 24.24 191.404 24.29C191.774 24.34 192.099 24.42 192.379 24.53V24.035C192.379 23.485 192.214 23.055 191.884 22.745C191.554 22.435 191.079 22.28 190.459 22.28C190.019 22.28 189.604 22.36 189.214 22.52C188.824 22.67 188.409 22.885 187.969 23.165L187.414 22.055C187.934 21.705 188.454 21.445 188.974 21.275C189.504 21.105 190.059 21.02 190.639 21.02C191.689 21.02 192.514 21.3 193.114 21.86C193.724 22.41 194.029 23.195 194.029 24.215V27.14C194.029 27.33 194.059 27.465 194.119 27.545C194.189 27.625 194.304 27.67 194.464 27.68V29C194.314 29.03 194.179 29.05 194.059 29.06C193.939 29.07 193.839 29.075 193.759 29.075C193.409 29.075 193.144 28.99 192.964 28.82C192.784 28.65 192.679 28.45 192.649 28.22L192.604 27.77C192.264 28.21 191.829 28.55 191.299 28.79C190.769 29.03 190.234 29.15 189.694 29.15C189.174 29.15 188.709 29.045 188.299 28.835C187.889 28.615 187.569 28.32 187.339 27.95C187.109 27.58 186.994 27.165 186.994 26.705ZM191.989 27.185C192.109 27.055 192.204 26.925 192.274 26.795C192.344 26.665 192.379 26.55 192.379 26.45V25.55C192.099 25.44 191.804 25.36 191.494 25.31C191.184 25.25 190.879 25.22 190.579 25.22C189.979 25.22 189.489 25.34 189.109 25.58C188.739 25.82 188.554 26.15 188.554 26.57C188.554 26.8 188.614 27.02 188.734 27.23C188.864 27.44 189.044 27.61 189.274 27.74C189.514 27.87 189.809 27.935 190.159 27.935C190.519 27.935 190.864 27.865 191.194 27.725C191.524 27.585 191.789 27.405 191.989 27.185ZM203.066 29H201.416V24.605C201.416 23.875 201.296 23.34 201.056 23C200.826 22.66 200.481 22.49 200.021 22.49C199.701 22.49 199.381 22.57 199.061 22.73C198.751 22.89 198.471 23.11 198.221 23.39C197.971 23.66 197.791 23.975 197.681 24.335V29H196.031V21.155H197.531V22.73C197.731 22.38 197.991 22.08 198.311 21.83C198.641 21.57 199.011 21.37 199.421 21.23C199.831 21.09 200.266 21.02 200.726 21.02C201.196 21.02 201.581 21.105 201.881 21.275C202.191 21.445 202.431 21.68 202.601 21.98C202.781 22.27 202.901 22.61 202.961 23C203.031 23.38 203.066 23.785 203.066 24.215V29ZM207.771 29.15C207.111 29.15 206.486 29.045 205.896 28.835C205.306 28.615 204.801 28.29 204.381 27.86L204.996 26.75C205.446 27.15 205.896 27.44 206.346 27.62C206.806 27.8 207.261 27.89 207.711 27.89C208.171 27.89 208.546 27.805 208.836 27.635C209.126 27.455 209.271 27.195 209.271 26.855C209.271 26.605 209.196 26.42 209.046 26.3C208.896 26.18 208.676 26.075 208.386 25.985C208.106 25.895 207.766 25.795 207.366 25.685C206.806 25.515 206.336 25.34 205.956 25.16C205.576 24.97 205.291 24.74 205.101 24.47C204.911 24.2 204.816 23.855 204.816 23.435C204.816 22.925 204.946 22.49 205.206 22.13C205.466 21.77 205.826 21.495 206.286 21.305C206.756 21.115 207.296 21.02 207.906 21.02C208.476 21.02 209.001 21.11 209.481 21.29C209.971 21.46 210.401 21.73 210.771 22.1L210.066 23.195C209.716 22.875 209.356 22.64 208.986 22.49C208.626 22.34 208.236 22.265 207.816 22.265C207.576 22.265 207.346 22.295 207.126 22.355C206.906 22.405 206.721 22.505 206.571 22.655C206.431 22.795 206.361 22.995 206.361 23.255C206.361 23.465 206.421 23.635 206.541 23.765C206.661 23.895 206.841 24.005 207.081 24.095C207.321 24.185 207.616 24.285 207.966 24.395C208.576 24.575 209.096 24.755 209.526 24.935C209.956 25.105 210.286 25.33 210.516 25.61C210.756 25.88 210.876 26.255 210.876 26.735C210.876 27.495 210.591 28.09 210.021 28.52C209.461 28.94 208.711 29.15 207.771 29.15ZM221.968 21.155H223.543L220.243 29H218.833L217.423 25.46L216.013 29H214.603L211.288 21.155H212.863L215.383 27.395L216.493 24.5L215.143 21.17H216.538L217.423 23.615L218.293 21.17H219.688L218.353 24.5L219.463 27.395L221.968 21.155ZM227.93 29.15C227.32 29.15 226.765 29.045 226.265 28.835C225.775 28.615 225.35 28.32 224.99 27.95C224.63 27.57 224.35 27.14 224.15 26.66C223.96 26.17 223.865 25.65 223.865 25.1C223.865 24.36 224.035 23.685 224.375 23.075C224.715 22.455 225.19 21.96 225.8 21.59C226.41 21.21 227.125 21.02 227.945 21.02C228.765 21.02 229.47 21.21 230.06 21.59C230.66 21.96 231.125 22.45 231.455 23.06C231.785 23.67 231.95 24.325 231.95 25.025C231.95 25.145 231.945 25.26 231.935 25.37C231.925 25.47 231.915 25.555 231.905 25.625H225.62C225.65 26.085 225.775 26.49 225.995 26.84C226.225 27.18 226.515 27.45 226.865 27.65C227.215 27.84 227.59 27.935 227.99 27.935C228.43 27.935 228.845 27.825 229.235 27.605C229.635 27.385 229.905 27.095 230.045 26.735L231.455 27.14C231.285 27.52 231.025 27.865 230.675 28.175C230.335 28.475 229.93 28.715 229.46 28.895C228.99 29.065 228.48 29.15 227.93 29.15ZM225.575 24.53H230.315C230.285 24.08 230.155 23.685 229.925 23.345C229.705 22.995 229.42 22.725 229.07 22.535C228.73 22.335 228.35 22.235 227.93 22.235C227.52 22.235 227.14 22.335 226.79 22.535C226.45 22.725 226.17 22.995 225.95 23.345C225.73 23.685 225.605 24.08 225.575 24.53ZM237.706 22.58C237.066 22.59 236.496 22.735 235.996 23.015C235.506 23.295 235.156 23.69 234.946 24.2V29H233.296V21.155H234.826V22.91C235.096 22.37 235.451 21.94 235.891 21.62C236.331 21.29 236.796 21.11 237.286 21.08C237.386 21.08 237.466 21.08 237.526 21.08C237.596 21.08 237.656 21.085 237.706 21.095V22.58ZM238.907 29V21.155H240.557V29H238.907ZM238.907 19.865V18.05H240.557V19.865H238.907ZM249.574 29H247.924V24.605C247.924 23.875 247.804 23.34 247.564 23C247.334 22.66 246.989 22.49 246.529 22.49C246.209 22.49 245.889 22.57 245.569 22.73C245.259 22.89 244.979 23.11 244.729 23.39C244.479 23.66 244.299 23.975 244.189 24.335V29H242.539V21.155H244.039V22.73C244.239 22.38 244.499 22.08 244.819 21.83C245.149 21.57 245.519 21.37 245.929 21.23C246.339 21.09 246.774 21.02 247.234 21.02C247.704 21.02 248.089 21.105 248.389 21.275C248.699 21.445 248.939 21.68 249.109 21.98C249.289 22.27 249.409 22.61 249.469 23C249.539 23.38 249.574 23.785 249.574 24.215V29ZM254.595 29.075C254.065 29.075 253.58 28.97 253.14 28.76C252.7 28.54 252.32 28.245 252 27.875C251.69 27.505 251.445 27.08 251.265 26.6C251.095 26.12 251.01 25.615 251.01 25.085C251.01 24.525 251.1 24 251.28 23.51C251.46 23.02 251.71 22.59 252.03 22.22C252.36 21.84 252.745 21.545 253.185 21.335C253.625 21.125 254.115 21.02 254.655 21.02C255.285 21.02 255.835 21.17 256.305 21.47C256.785 21.77 257.18 22.16 257.49 22.64V21.155H258.945V28.775C258.945 29.535 258.76 30.18 258.39 30.71C258.03 31.24 257.535 31.645 256.905 31.925C256.275 32.205 255.565 32.345 254.775 32.345C253.905 32.345 253.185 32.195 252.615 31.895C252.045 31.595 251.56 31.185 251.16 30.665L252.09 29.795C252.39 30.215 252.775 30.535 253.245 30.755C253.725 30.975 254.235 31.085 254.775 31.085C255.225 31.085 255.64 31 256.02 30.83C256.41 30.67 256.72 30.415 256.95 30.065C257.18 29.725 257.295 29.295 257.295 28.775V27.575C257.015 28.045 256.63 28.415 256.14 28.685C255.65 28.945 255.135 29.075 254.595 29.075ZM255.135 27.74C255.385 27.74 255.625 27.7 255.855 27.62C256.085 27.53 256.295 27.415 256.485 27.275C256.685 27.125 256.855 26.96 256.995 26.78C257.135 26.59 257.235 26.39 257.295 26.18V24.125C257.165 23.785 256.98 23.49 256.74 23.24C256.5 22.98 256.23 22.78 255.93 22.64C255.63 22.5 255.325 22.43 255.015 22.43C254.655 22.43 254.33 22.51 254.04 22.67C253.76 22.82 253.52 23.025 253.32 23.285C253.12 23.535 252.965 23.82 252.855 24.14C252.745 24.46 252.69 24.79 252.69 25.13C252.69 25.49 252.75 25.825 252.87 26.135C253 26.445 253.175 26.725 253.395 26.975C253.615 27.215 253.875 27.405 254.175 27.545C254.475 27.675 254.795 27.74 255.135 27.74ZM89.5652 47.15C88.9052 47.15 88.2802 47.045 87.6902 46.835C87.1002 46.615 86.5952 46.29 86.1752 45.86L86.7902 44.75C87.2402 45.15 87.6902 45.44 88.1402 45.62C88.6002 45.8 89.0552 45.89 89.5052 45.89C89.9652 45.89 90.3402 45.805 90.6302 45.635C90.9202 45.455 91.0652 45.195 91.0652 44.855C91.0652 44.605 90.9902 44.42 90.8402 44.3C90.6902 44.18 90.4702 44.075 90.1802 43.985C89.9002 43.895 89.5602 43.795 89.1602 43.685C88.6002 43.515 88.1302 43.34 87.7502 43.16C87.3702 42.97 87.0852 42.74 86.8952 42.47C86.7052 42.2 86.6102 41.855 86.6102 41.435C86.6102 40.925 86.7402 40.49 87.0002 40.13C87.2602 39.77 87.6202 39.495 88.0802 39.305C88.5502 39.115 89.0902 39.02 89.7002 39.02C90.2702 39.02 90.7952 39.11 91.2752 39.29C91.7652 39.46 92.1952 39.73 92.5652 40.1L91.8602 41.195C91.5102 40.875 91.1502 40.64 90.7802 40.49C90.4202 40.34 90.0302 40.265 89.6102 40.265C89.3702 40.265 89.1402 40.295 88.9202 40.355C88.7002 40.405 88.5152 40.505 88.3652 40.655C88.2252 40.795 88.1552 40.995 88.1552 41.255C88.1552 41.465 88.2152 41.635 88.3352 41.765C88.4552 41.895 88.6352 42.005 88.8752 42.095C89.1152 42.185 89.4102 42.285 89.7602 42.395C90.3702 42.575 90.8902 42.755 91.3202 42.935C91.7502 43.105 92.0802 43.33 92.3102 43.61C92.5502 43.88 92.6702 44.255 92.6702 44.735C92.6702 45.495 92.3852 46.09 91.8152 46.52C91.2552 46.94 90.5052 47.15 89.5652 47.15ZM97.6683 47.15C97.0483 47.15 96.4933 47.045 96.0033 46.835C95.5133 46.615 95.0883 46.315 94.7283 45.935C94.3783 45.555 94.1083 45.125 93.9183 44.645C93.7283 44.155 93.6333 43.635 93.6333 43.085C93.6333 42.535 93.7283 42.015 93.9183 41.525C94.1083 41.035 94.3783 40.605 94.7283 40.235C95.0883 39.855 95.5133 39.56 96.0033 39.35C96.5033 39.13 97.0583 39.02 97.6683 39.02C98.2783 39.02 98.8283 39.13 99.3183 39.35C99.8183 39.56 100.243 39.855 100.593 40.235C100.953 40.605 101.228 41.035 101.418 41.525C101.608 42.015 101.703 42.535 101.703 43.085C101.703 43.635 101.608 44.155 101.418 44.645C101.228 45.125 100.953 45.555 100.593 45.935C100.243 46.315 99.8183 46.615 99.3183 46.835C98.8283 47.045 98.2783 47.15 97.6683 47.15ZM95.3283 43.1C95.3283 43.6 95.4333 44.05 95.6433 44.45C95.8533 44.85 96.1333 45.165 96.4833 45.395C96.8333 45.625 97.2283 45.74 97.6683 45.74C98.0983 45.74 98.4883 45.625 98.8383 45.395C99.1983 45.155 99.4833 44.835 99.6933 44.435C99.9033 44.025 100.008 43.575 100.008 43.085C100.008 42.585 99.9033 42.135 99.6933 41.735C99.4833 41.335 99.1983 41.02 98.8383 40.79C98.4883 40.55 98.0983 40.43 97.6683 40.43C97.2283 40.43 96.8333 40.55 96.4833 40.79C96.1333 41.03 95.8533 41.35 95.6433 41.75C95.4333 42.14 95.3283 42.59 95.3283 43.1ZM115.167 47H113.517V42.605C113.517 41.875 113.397 41.34 113.157 41C112.917 40.66 112.567 40.49 112.107 40.49C111.647 40.49 111.217 40.665 110.817 41.015C110.427 41.355 110.152 41.8 109.992 42.35V47H108.342V42.605C108.342 41.875 108.222 41.34 107.982 41C107.742 40.66 107.397 40.49 106.947 40.49C106.487 40.49 106.057 40.66 105.657 41C105.267 41.34 104.987 41.785 104.817 42.335V47H103.167V39.155H104.667V40.73C104.977 40.18 105.382 39.76 105.882 39.47C106.392 39.17 106.972 39.02 107.622 39.02C108.272 39.02 108.782 39.19 109.152 39.53C109.532 39.87 109.767 40.295 109.857 40.805C110.197 40.225 110.612 39.785 111.102 39.485C111.602 39.175 112.172 39.02 112.812 39.02C113.272 39.02 113.657 39.105 113.967 39.275C114.277 39.445 114.517 39.68 114.687 39.98C114.857 40.27 114.977 40.61 115.047 41C115.127 41.38 115.167 41.785 115.167 42.215V47ZM120.623 47.15C120.013 47.15 119.458 47.045 118.958 46.835C118.468 46.615 118.043 46.32 117.683 45.95C117.323 45.57 117.043 45.14 116.843 44.66C116.653 44.17 116.558 43.65 116.558 43.1C116.558 42.36 116.728 41.685 117.068 41.075C117.408 40.455 117.883 39.96 118.493 39.59C119.103 39.21 119.818 39.02 120.638 39.02C121.458 39.02 122.163 39.21 122.753 39.59C123.353 39.96 123.818 40.45 124.148 41.06C124.478 41.67 124.643 42.325 124.643 43.025C124.643 43.145 124.638 43.26 124.628 43.37C124.618 43.47 124.608 43.555 124.598 43.625H118.313C118.343 44.085 118.468 44.49 118.688 44.84C118.918 45.18 119.208 45.45 119.558 45.65C119.908 45.84 120.283 45.935 120.683 45.935C121.123 45.935 121.538 45.825 121.928 45.605C122.328 45.385 122.598 45.095 122.738 44.735L124.148 45.14C123.978 45.52 123.718 45.865 123.368 46.175C123.028 46.475 122.623 46.715 122.153 46.895C121.683 47.065 121.173 47.15 120.623 47.15ZM118.268 42.53H123.008C122.978 42.08 122.848 41.685 122.618 41.345C122.398 40.995 122.113 40.725 121.763 40.535C121.423 40.335 121.043 40.235 120.623 40.235C120.213 40.235 119.833 40.335 119.483 40.535C119.143 40.725 118.863 40.995 118.643 41.345C118.423 41.685 118.298 42.08 118.268 42.53ZM132.68 47.15C132.17 47.15 131.7 47.045 131.27 46.835C130.85 46.615 130.485 46.32 130.175 45.95C129.865 45.57 129.625 45.135 129.455 44.645C129.295 44.145 129.215 43.62 129.215 43.07C129.215 42.51 129.305 41.985 129.485 41.495C129.675 41.005 129.935 40.575 130.265 40.205C130.605 39.835 131 39.545 131.45 39.335C131.9 39.125 132.385 39.02 132.905 39.02C133.505 39.02 134.045 39.165 134.525 39.455C135.015 39.745 135.4 40.12 135.68 40.58V39.155H137.135V50.195H135.485V45.53C134.825 46.61 133.89 47.15 132.68 47.15ZM133.28 45.74C133.61 45.74 133.91 45.675 134.18 45.545C134.46 45.415 134.705 45.24 134.915 45.02C135.135 44.79 135.325 44.53 135.485 44.24V42.17C135.435 41.93 135.335 41.71 135.185 41.51C135.045 41.3 134.87 41.115 134.66 40.955C134.45 40.785 134.225 40.655 133.985 40.565C133.745 40.475 133.51 40.43 133.28 40.43C132.93 40.43 132.61 40.505 132.32 40.655C132.03 40.805 131.775 41.01 131.555 41.27C131.345 41.52 131.18 41.805 131.06 42.125C130.95 42.445 130.895 42.775 130.895 43.115C130.895 43.595 130.995 44.035 131.195 44.435C131.405 44.825 131.685 45.14 132.035 45.38C132.395 45.62 132.81 45.74 133.28 45.74ZM139.039 43.955V39.155H140.689V43.625C140.689 44.325 140.814 44.855 141.064 45.215C141.324 45.565 141.699 45.74 142.189 45.74C142.499 45.74 142.799 45.675 143.089 45.545C143.389 45.415 143.659 45.225 143.899 44.975C144.149 44.715 144.349 44.405 144.499 44.045V39.155H146.149V45.14C146.149 45.33 146.184 45.465 146.254 45.545C146.324 45.625 146.439 45.67 146.599 45.68V47C146.429 47.03 146.289 47.05 146.179 47.06C146.069 47.07 145.964 47.075 145.864 47.075C145.564 47.075 145.314 46.995 145.114 46.835C144.914 46.665 144.799 46.45 144.769 46.19L144.739 45.41C144.389 45.98 143.934 46.415 143.374 46.715C142.814 47.005 142.199 47.15 141.529 47.15C140.709 47.15 140.089 46.88 139.669 46.34C139.249 45.8 139.039 45.005 139.039 43.955ZM151.81 47.15C151.2 47.15 150.645 47.045 150.145 46.835C149.655 46.615 149.23 46.32 148.87 45.95C148.51 45.57 148.23 45.14 148.03 44.66C147.84 44.17 147.745 43.65 147.745 43.1C147.745 42.36 147.915 41.685 148.255 41.075C148.595 40.455 149.07 39.96 149.68 39.59C150.29 39.21 151.005 39.02 151.825 39.02C152.645 39.02 153.35 39.21 153.94 39.59C154.54 39.96 155.005 40.45 155.335 41.06C155.665 41.67 155.83 42.325 155.83 43.025C155.83 43.145 155.825 43.26 155.815 43.37C155.805 43.47 155.795 43.555 155.785 43.625H149.5C149.53 44.085 149.655 44.49 149.875 44.84C150.105 45.18 150.395 45.45 150.745 45.65C151.095 45.84 151.47 45.935 151.87 45.935C152.31 45.935 152.725 45.825 153.115 45.605C153.515 45.385 153.785 45.095 153.925 44.735L155.335 45.14C155.165 45.52 154.905 45.865 154.555 46.175C154.215 46.475 153.81 46.715 153.34 46.895C152.87 47.065 152.36 47.15 151.81 47.15ZM149.455 42.53H154.195C154.165 42.08 154.035 41.685 153.805 41.345C153.585 40.995 153.3 40.725 152.95 40.535C152.61 40.335 152.23 40.235 151.81 40.235C151.4 40.235 151.02 40.335 150.67 40.535C150.33 40.725 150.05 40.995 149.83 41.345C149.61 41.685 149.485 42.08 149.455 42.53ZM159.966 47.15C159.306 47.15 158.681 47.045 158.091 46.835C157.501 46.615 156.996 46.29 156.576 45.86L157.191 44.75C157.641 45.15 158.091 45.44 158.541 45.62C159.001 45.8 159.456 45.89 159.906 45.89C160.366 45.89 160.741 45.805 161.031 45.635C161.321 45.455 161.466 45.195 161.466 44.855C161.466 44.605 161.391 44.42 161.241 44.3C161.091 44.18 160.871 44.075 160.581 43.985C160.301 43.895 159.961 43.795 159.561 43.685C159.001 43.515 158.531 43.34 158.151 43.16C157.771 42.97 157.486 42.74 157.296 42.47C157.106 42.2 157.011 41.855 157.011 41.435C157.011 40.925 157.141 40.49 157.401 40.13C157.661 39.77 158.021 39.495 158.481 39.305C158.951 39.115 159.491 39.02 160.101 39.02C160.671 39.02 161.196 39.11 161.676 39.29C162.166 39.46 162.596 39.73 162.966 40.1L162.261 41.195C161.911 40.875 161.551 40.64 161.181 40.49C160.821 40.34 160.431 40.265 160.011 40.265C159.771 40.265 159.541 40.295 159.321 40.355C159.101 40.405 158.916 40.505 158.766 40.655C158.626 40.795 158.556 40.995 158.556 41.255C158.556 41.465 158.616 41.635 158.736 41.765C158.856 41.895 159.036 42.005 159.276 42.095C159.516 42.185 159.811 42.285 160.161 42.395C160.771 42.575 161.291 42.755 161.721 42.935C162.151 43.105 162.481 43.33 162.711 43.61C162.951 43.88 163.071 44.255 163.071 44.735C163.071 45.495 162.786 46.09 162.216 46.52C161.656 46.94 160.906 47.15 159.966 47.15ZM168.894 46.595C168.754 46.665 168.579 46.74 168.369 46.82C168.159 46.9 167.919 46.97 167.649 47.03C167.389 47.09 167.119 47.12 166.839 47.12C166.499 47.12 166.184 47.06 165.894 46.94C165.604 46.82 165.369 46.63 165.189 46.37C165.019 46.1 164.934 45.755 164.934 45.335V40.43H163.899V39.155H164.934V36.575H166.584V39.155H168.294V40.43H166.584V44.81C166.604 45.08 166.689 45.28 166.839 45.41C166.999 45.54 167.194 45.605 167.424 45.605C167.654 45.605 167.874 45.565 168.084 45.485C168.294 45.405 168.449 45.34 168.549 45.29L168.894 46.595ZM170.037 47V39.155H171.687V47H170.037ZM170.037 37.865V36.05H171.687V37.865H170.037ZM177.195 47.15C176.575 47.15 176.02 47.045 175.53 46.835C175.04 46.615 174.615 46.315 174.255 45.935C173.905 45.555 173.635 45.125 173.445 44.645C173.255 44.155 173.16 43.635 173.16 43.085C173.16 42.535 173.255 42.015 173.445 41.525C173.635 41.035 173.905 40.605 174.255 40.235C174.615 39.855 175.04 39.56 175.53 39.35C176.03 39.13 176.585 39.02 177.195 39.02C177.805 39.02 178.355 39.13 178.845 39.35C179.345 39.56 179.77 39.855 180.12 40.235C180.48 40.605 180.755 41.035 180.945 41.525C181.135 42.015 181.23 42.535 181.23 43.085C181.23 43.635 181.135 44.155 180.945 44.645C180.755 45.125 180.48 45.555 180.12 45.935C179.77 46.315 179.345 46.615 178.845 46.835C178.355 47.045 177.805 47.15 177.195 47.15ZM174.855 43.1C174.855 43.6 174.96 44.05 175.17 44.45C175.38 44.85 175.66 45.165 176.01 45.395C176.36 45.625 176.755 45.74 177.195 45.74C177.625 45.74 178.015 45.625 178.365 45.395C178.725 45.155 179.01 44.835 179.22 44.435C179.43 44.025 179.535 43.575 179.535 43.085C179.535 42.585 179.43 42.135 179.22 41.735C179.01 41.335 178.725 41.02 178.365 40.79C178.015 40.55 177.625 40.43 177.195 40.43C176.755 40.43 176.36 40.55 176.01 40.79C175.66 41.03 175.38 41.35 175.17 41.75C174.96 42.14 174.855 42.59 174.855 43.1ZM189.728 47H188.078V42.605C188.078 41.875 187.958 41.34 187.718 41C187.488 40.66 187.143 40.49 186.683 40.49C186.363 40.49 186.043 40.57 185.723 40.73C185.413 40.89 185.133 41.11 184.883 41.39C184.633 41.66 184.453 41.975 184.343 42.335V47H182.693V39.155H184.193V40.73C184.393 40.38 184.653 40.08 184.973 39.83C185.303 39.57 185.673 39.37 186.083 39.23C186.493 39.09 186.928 39.02 187.388 39.02C187.858 39.02 188.243 39.105 188.543 39.275C188.853 39.445 189.093 39.68 189.263 39.98C189.443 40.27 189.563 40.61 189.623 41C189.693 41.38 189.728 41.785 189.728 42.215V47ZM194.433 47.15C193.773 47.15 193.148 47.045 192.558 46.835C191.968 46.615 191.463 46.29 191.043 45.86L191.658 44.75C192.108 45.15 192.558 45.44 193.008 45.62C193.468 45.8 193.923 45.89 194.373 45.89C194.833 45.89 195.208 45.805 195.498 45.635C195.788 45.455 195.933 45.195 195.933 44.855C195.933 44.605 195.858 44.42 195.708 44.3C195.558 44.18 195.338 44.075 195.048 43.985C194.768 43.895 194.428 43.795 194.028 43.685C193.468 43.515 192.998 43.34 192.618 43.16C192.238 42.97 191.953 42.74 191.763 42.47C191.573 42.2 191.478 41.855 191.478 41.435C191.478 40.925 191.608 40.49 191.868 40.13C192.128 39.77 192.488 39.495 192.948 39.305C193.418 39.115 193.958 39.02 194.568 39.02C195.138 39.02 195.663 39.11 196.143 39.29C196.633 39.46 197.063 39.73 197.433 40.1L196.728 41.195C196.378 40.875 196.018 40.64 195.648 40.49C195.288 40.34 194.898 40.265 194.478 40.265C194.238 40.265 194.008 40.295 193.788 40.355C193.568 40.405 193.383 40.505 193.233 40.655C193.093 40.795 193.023 40.995 193.023 41.255C193.023 41.465 193.083 41.635 193.203 41.765C193.323 41.895 193.503 42.005 193.743 42.095C193.983 42.185 194.278 42.285 194.628 42.395C195.238 42.575 195.758 42.755 196.188 42.935C196.618 43.105 196.948 43.33 197.178 43.61C197.418 43.88 197.538 44.255 197.538 44.735C197.538 45.495 197.253 46.09 196.683 46.52C196.123 46.94 195.373 47.15 194.433 47.15ZM198.936 47V45.08H200.301V47H198.936Z" fill="#475564"/>
<defs>
<clipPath id="clip0_846_70">
<rect width="196" height="146" fill="white" transform="translate(46 52)"/>
</clipPath>
</defs>
</svg>
