<svg width="294" height="199" viewBox="0 0 294 199" fill="none" xmlns="http://www.w3.org/2000/svg">
<path d="M50.08 170.32V146.48H3.36V127.44L56.8 58.64H71.52V127.28H85.6V146.48H71.52V170.32H50.08ZM24.8 127.28H52.48V91.12L24.8 127.28ZM181.029 103.12C181.029 110.16 179.962 116.667 177.829 122.64C175.802 128.507 172.922 133.627 169.189 138C165.562 142.267 161.189 145.627 156.069 148.08C151.055 150.427 145.615 151.6 139.749 151.6C133.775 151.6 128.229 150.427 123.109 148.08C118.095 145.627 113.722 142.267 109.989 138C106.362 133.627 103.482 128.507 101.349 122.64C99.3221 116.667 98.3088 110.16 98.3088 103.12C98.3088 96.08 99.3221 89.6267 101.349 83.76C103.482 77.7867 106.362 72.6667 109.989 68.4C113.722 64.0267 118.095 60.6133 123.109 58.16C128.229 55.7067 133.775 54.48 139.749 54.48C145.615 54.48 151.055 55.7067 156.069 58.16C161.189 60.6133 165.562 64.0267 169.189 68.4C172.922 72.6667 175.802 77.7867 177.829 83.76C179.962 89.6267 181.029 96.08 181.029 103.12ZM159.429 103.12C159.429 98.8533 158.949 94.96 157.989 91.44C157.029 87.8133 155.642 84.72 153.829 82.16C152.122 79.6 150.042 77.6267 147.589 76.24C145.242 74.8533 142.629 74.16 139.749 74.16C136.762 74.16 134.042 74.8533 131.589 76.24C129.135 77.6267 127.002 79.6 125.189 82.16C123.482 84.72 122.149 87.8133 121.189 91.44C120.229 94.96 119.749 98.8533 119.749 103.12C119.749 107.387 120.229 111.28 121.189 114.8C122.149 118.32 123.482 121.36 125.189 123.92C127.002 126.48 129.135 128.453 131.589 129.84C134.042 131.227 136.762 131.92 139.749 131.92C142.629 131.92 145.242 131.227 147.589 129.84C150.042 128.453 152.122 126.48 153.829 123.92C155.642 121.36 157.029 118.32 157.989 114.8C158.949 111.28 159.429 107.387 159.429 103.12ZM238.986 170.32V146.48H192.266V127.44L245.706 58.64H260.426V127.28H274.506V146.48H260.426V170.32H238.986ZM213.706 127.28H241.386V91.12L213.706 127.28Z" fill="#475564" fill-opacity="0.12"/>
<path d="M76.02 132.06V138H46.8V95.4H75.48V101.34H53.52V113.46H72.54V119.04H53.52V132.06H76.02ZM83.2453 138V95.4H101.785C103.705 95.4 105.465 95.8 107.065 96.6C108.705 97.4 110.105 98.46 111.265 99.78C112.425 101.06 113.325 102.54 113.965 104.22C114.645 105.86 114.985 107.54 114.985 109.26C114.985 110.7 114.785 112.08 114.385 113.4C113.985 114.72 113.425 115.94 112.705 117.06C111.985 118.18 111.105 119.16 110.065 120C109.025 120.8 107.885 121.4 106.645 121.8L116.785 138H109.165L99.8053 123.18H89.9653V138H83.2453ZM89.9653 117.24H101.725C102.685 117.24 103.545 117.04 104.305 116.64C105.105 116.2 105.785 115.62 106.345 114.9C106.905 114.14 107.345 113.28 107.665 112.32C107.985 111.36 108.145 110.34 108.145 109.26C108.145 108.18 107.945 107.16 107.545 106.2C107.185 105.24 106.685 104.4 106.045 103.68C105.445 102.96 104.725 102.4 103.885 102C103.085 101.56 102.245 101.34 101.365 101.34H89.9653V117.24ZM123.382 138V95.4H141.922C143.842 95.4 145.602 95.8 147.202 96.6C148.842 97.4 150.242 98.46 151.402 99.78C152.562 101.06 153.462 102.54 154.102 104.22C154.782 105.86 155.122 107.54 155.122 109.26C155.122 110.7 154.922 112.08 154.522 113.4C154.122 114.72 153.562 115.94 152.842 117.06C152.122 118.18 151.242 119.16 150.202 120C149.162 120.8 148.022 121.4 146.782 121.8L156.922 138H149.302L139.942 123.18H130.102V138H123.382ZM130.102 117.24H141.862C142.822 117.24 143.682 117.04 144.442 116.64C145.242 116.2 145.922 115.62 146.482 114.9C147.042 114.14 147.482 113.28 147.802 112.32C148.122 111.36 148.282 110.34 148.282 109.26C148.282 108.18 148.082 107.16 147.682 106.2C147.322 105.24 146.822 104.4 146.182 103.68C145.582 102.96 144.862 102.4 144.022 102C143.222 101.56 142.382 101.34 141.502 101.34H130.102V117.24ZM180.629 138.3C177.629 138.3 174.889 137.7 172.409 136.5C169.969 135.26 167.849 133.64 166.049 131.64C164.289 129.6 162.929 127.28 161.969 124.68C161.009 122.08 160.529 119.42 160.529 116.7C160.529 113.86 161.029 111.14 162.029 108.54C163.069 105.94 164.489 103.64 166.289 101.64C168.089 99.64 170.229 98.06 172.709 96.9C175.189 95.7 177.889 95.1 180.809 95.1C183.809 95.1 186.529 95.74 188.969 97.02C191.449 98.26 193.569 99.9 195.329 101.94C197.089 103.98 198.449 106.3 199.409 108.9C200.369 111.46 200.849 114.08 200.849 116.76C200.849 119.6 200.329 122.32 199.289 124.92C198.289 127.52 196.889 129.82 195.089 131.82C193.289 133.78 191.149 135.36 188.669 136.56C186.229 137.72 183.549 138.3 180.629 138.3ZM167.369 116.7C167.369 118.7 167.669 120.64 168.269 122.52C168.909 124.4 169.809 126.06 170.969 127.5C172.129 128.94 173.529 130.1 175.169 130.98C176.809 131.82 178.649 132.24 180.689 132.24C182.769 132.24 184.629 131.8 186.269 130.92C187.949 130 189.349 128.8 190.469 127.32C191.629 125.84 192.509 124.18 193.109 122.34C193.709 120.5 194.009 118.62 194.009 116.7C194.009 114.66 193.689 112.72 193.049 110.88C192.409 109 191.509 107.36 190.349 105.96C189.189 104.52 187.789 103.38 186.149 102.54C184.509 101.66 182.689 101.22 180.689 101.22C178.609 101.22 176.729 101.68 175.049 102.6C173.409 103.48 172.009 104.64 170.849 106.08C169.729 107.52 168.869 109.18 168.269 111.06C167.669 112.9 167.369 114.78 167.369 116.7ZM207.874 138V95.4H226.414C228.334 95.4 230.094 95.8 231.694 96.6C233.334 97.4 234.734 98.46 235.894 99.78C237.054 101.06 237.954 102.54 238.594 104.22C239.274 105.86 239.614 107.54 239.614 109.26C239.614 110.7 239.414 112.08 239.014 113.4C238.614 114.72 238.054 115.94 237.334 117.06C236.614 118.18 235.734 119.16 234.694 120C233.654 120.8 232.514 121.4 231.274 121.8L241.414 138H233.794L224.434 123.18H214.594V138H207.874ZM214.594 117.24H226.354C227.314 117.24 228.174 117.04 228.934 116.64C229.734 116.2 230.414 115.62 230.974 114.9C231.534 114.14 231.974 113.28 232.294 112.32C232.614 111.36 232.774 110.34 232.774 109.26C232.774 108.18 232.574 107.16 232.174 106.2C231.814 105.24 231.314 104.4 230.674 103.68C230.074 102.96 229.354 102.4 228.514 102C227.714 101.56 226.874 101.34 225.994 101.34H214.594V117.24Z" fill="#475564"/>
</svg>
