<svg width="104" height="111" viewBox="0 0 104 111" fill="none" xmlns="http://www.w3.org/2000/svg">
<path d="M52 0.212158C41.7154 0.212158 31.6617 3.44674 23.1104 9.50686C14.559 15.567 7.89404 24.1805 3.95829 34.2581C0.0225307 44.3357 -1.00724 55.4248 0.999189 66.1232C3.00562 76.8215 7.95814 86.6486 15.2305 94.3617C22.5028 102.075 31.7683 107.327 41.8553 109.455C51.9423 111.583 62.3978 110.491 71.8995 106.317C81.4013 102.143 89.5226 95.0738 95.2364 86.0042C100.95 76.9346 104 66.2716 104 55.3637C104 40.7366 98.5214 26.7086 88.7696 16.3657C79.0177 6.02275 65.7913 0.212158 52 0.212158ZM52 102.636C43.1846 102.636 34.5672 99.8639 27.2375 94.6695C19.9077 89.4751 14.1949 82.0921 10.8214 73.4541C7.44789 64.8162 6.56522 55.3112 8.28502 46.1412C10.0048 36.9712 14.2498 28.548 20.4833 21.9368C26.7167 15.3256 34.6586 10.8233 43.3046 8.99928C51.9506 7.17525 60.9124 8.11141 69.0568 11.6894C77.2011 15.2673 84.1622 21.3264 89.0598 29.1003C93.9574 36.8743 96.5714 46.014 96.5714 55.3637C96.5714 67.9012 91.8755 79.9252 83.5168 88.7905C75.158 97.6559 63.8211 102.636 52 102.636Z" fill="#F84D44"/>
<path d="M76.921 28.9304C76.5757 28.5612 76.1649 28.2681 75.7123 28.0681C75.2596 27.8681 74.7742 27.7651 74.2838 27.7651C73.7935 27.7651 73.308 27.8681 72.8554 28.0681C72.4028 28.2681 71.992 28.5612 71.6467 28.9304L51.9981 49.8092L32.3495 28.9304C31.6501 28.1886 30.7015 27.7719 29.7124 27.7719C28.7233 27.7719 27.7747 28.1886 27.0752 28.9304C26.3758 29.6722 25.9829 30.6783 25.9829 31.7274C25.9829 32.7764 26.3758 33.7825 27.0752 34.5243L46.761 55.3637L27.0752 76.2031C26.7271 76.5693 26.4508 77.005 26.2622 77.4851C26.0736 77.9651 25.9766 78.48 25.9766 79.0001C25.9766 79.5201 26.0736 80.035 26.2622 80.5151C26.4508 80.9951 26.7271 81.4308 27.0752 81.7971C27.4205 82.1663 27.8313 82.4594 28.284 82.6594C28.7366 82.8594 29.2221 82.9623 29.7124 82.9623C30.2027 82.9623 30.6882 82.8594 31.1408 82.6594C31.5934 82.4594 32.0042 82.1663 32.3495 81.7971L51.9981 60.9183L71.6467 81.7971C71.992 82.1663 72.4028 82.4594 72.8554 82.6594C73.308 82.8594 73.7935 82.9623 74.2838 82.9623C74.7742 82.9623 75.2596 82.8594 75.7123 82.6594C76.1649 82.4594 76.5757 82.1663 76.921 81.7971C77.2691 81.4308 77.5454 80.9951 77.734 80.5151C77.9226 80.035 78.0197 79.5201 78.0197 79.0001C78.0197 78.48 77.9226 77.9651 77.734 77.4851C77.5454 77.005 77.2691 76.5693 76.921 76.2031L57.2353 55.3637L76.921 34.5243C77.2691 34.1581 77.5454 33.7224 77.734 33.2424C77.9226 32.7623 78.0197 32.2474 78.0197 31.7274C78.0197 31.2073 77.9226 30.6924 77.734 30.2124C77.5454 29.7323 77.2691 29.2966 76.921 28.9304Z" fill="#F84D44"/>
</svg>
