<svg width="386" height="354" viewBox="0 0 386 354" fill="none" xmlns="http://www.w3.org/2000/svg">
<path d="M369.064 242.164C330.306 323.617 227.998 358.603 147.837 352.637C125.949 351.009 81.9126 347.732 47.5275 318.496C-18.5057 262.35 -8.3358 144.99 54.8761 75.8952C63.0173 66.9967 119.364 7.38154 207.171 8.17957C271.457 8.76322 316.58 41.4153 322.067 45.4823C328.998 50.6211 344.285 62.8319 358.063 82.2038C390.439 127.722 393.285 191.264 369.064 242.164Z" fill="url(#paint0_linear_460_473)"/>
<path d="M368.201 292.284C368.201 295.648 365.386 298.4 361.946 298.4H23.7758C20.3358 298.4 17.5228 295.648 17.5228 292.284L14.7085 102.007C14.7085 98.6426 18.7563 92.0737 26.1766 92.5681L356.674 84.1951C360.99 84.086 365.163 85.7118 368.218 88.6945C371.274 91.6772 372.947 95.7553 372.845 99.9759L368.201 292.284Z" fill="#00ADEF"/>
<path d="M362.026 286.415C362.026 289.601 359.364 292.208 356.11 292.208H31.9312C28.6772 292.208 26.0145 289.601 26.0145 286.415L23.3586 113.68C23.6715 103.286 32.9786 99.5496 38.621 99.7702C38.621 99.7702 296.935 92.9845 355.372 91.4492C358.405 91.3699 361.336 92.5136 363.483 94.6103C365.631 96.707 366.812 99.5769 366.736 102.546L362.026 286.415Z" fill="#E9F0FF"/>
<path d="M383.41 314.196H2.12659C1.55739 314.196 1.09155 313.777 1.09155 313.265V298.406C1.09155 297.894 1.55739 297.476 2.12659 297.476H383.41C383.979 297.476 384.445 297.894 384.445 298.406V313.265C384.444 313.777 383.979 314.196 383.41 314.196Z" fill="url(#paint1_linear_460_473)"/>
<path d="M36.356 110.013L261.965 105.26C265.633 105.183 268.671 107.144 268.671 109.593V111.847C268.671 114.199 265.859 116.121 262.334 116.18L36.8232 119.99C33.295 120.049 30.3387 118.22 30.1651 115.869L30.0686 114.559C29.8894 112.138 32.723 110.09 36.356 110.013Z" fill="#BDD0FB"/>
<path d="M261.934 110.635C262.414 107.199 259.759 104.071 256.006 103.649C252.254 103.226 248.823 105.668 248.345 109.105C248.094 110.9 248.7 112.61 249.872 113.897L242.886 118.729C242.445 119.049 242.399 119.639 242.787 120.009L242.85 120.07C243.193 120.398 243.769 120.412 244.132 120.101L250.478 114.481C251.491 115.339 252.795 115.926 254.273 116.092C258.024 116.514 261.455 114.071 261.934 110.635ZM254.504 114.427C251.756 114.117 249.811 111.826 250.163 109.309C250.514 106.792 253.027 105.003 255.775 105.313C258.523 105.623 260.468 107.914 260.116 110.431C259.765 112.947 257.252 114.737 254.504 114.427Z" fill="url(#paint2_linear_460_473)"/>
<path d="M32.1081 197.896L35.8707 279.734C35.9975 282.493 40.2823 284.684 45.4768 284.645L155.93 283.837C161.123 283.799 165.291 281.549 165.278 278.791L164.894 196.186C164.88 193.359 160.489 191.092 155.168 191.166L41.3367 192.741C36.1091 192.812 31.98 195.119 32.1081 197.896Z" fill="#BDD0FB"/>
<path d="M186.516 125.47L255.757 124.713C262.844 124.635 268.721 126.705 268.78 129.299L269.956 180.745C270.015 183.337 264.241 185.441 257.156 185.41L185.073 185.087C181.016 185.068 177.728 183.879 177.633 182.395L174.252 130.205C174.087 127.661 179.565 125.546 186.516 125.47Z" fill="#BDD0FB"/>
<path d="M49.4861 124.292L148.019 123.511C158.105 123.432 166.466 125.564 166.55 128.237L168.224 181.258C168.308 183.929 160.091 186.098 150.009 186.066L47.4312 185.732C41.6606 185.714 36.9801 184.488 36.8437 182.959L32.0337 129.172C31.7994 126.55 39.596 124.37 49.4861 124.292Z" fill="#BDD0FB"/>
<path d="M186.351 191.718L255.593 190.516C262.68 190.393 268.556 193.677 268.616 197.793L269.791 279.437C269.851 283.551 264.077 286.891 256.992 286.84L184.908 286.327C180.852 286.298 177.564 284.41 177.469 282.055L174.088 199.229C173.922 195.195 179.401 191.838 186.351 191.718Z" fill="#BDD0FB"/>
<path d="M288.001 102.965L342.02 102.183C347.549 102.102 352.133 104.24 352.18 106.92L353.098 160.059C353.145 162.737 348.64 164.911 343.112 164.878L286.875 164.544C283.71 164.525 281.146 163.296 281.07 161.764L278.433 107.856C278.304 105.227 282.578 103.043 288.001 102.965Z" fill="#BDD0FB"/>
<path d="M289.328 172.012L343.347 171.399C348.876 171.336 353.46 173.014 353.507 175.115L354.425 216.81C354.472 218.911 349.967 220.616 344.438 220.59L288.202 220.328C285.037 220.313 282.473 219.349 282.397 218.147L279.76 175.849C279.631 173.788 283.904 172.073 289.328 172.012Z" fill="#BDD0FB"/>
<path opacity="0.37" d="M291.904 229.904L345.923 229.197C351.452 229.125 356.036 231.056 356.083 233.476L357.001 281.473C357.048 283.892 352.542 285.855 347.014 285.825L290.778 285.522C287.613 285.505 285.048 284.396 284.973 283.012L282.336 234.321C282.208 231.947 286.482 229.974 291.904 229.904Z" fill="white"/>
<path d="M272.795 290.896L270.327 149.394C270.3 147.841 271.966 146.572 274.029 146.572C277.367 146.572 280.073 144.536 280.073 142.026V107.462C280.073 105.261 282.496 103.499 285.418 103.572L298.728 103.904C302.004 103.986 304.623 105.983 304.684 108.451L309.236 290.897H272.795V290.896Z" fill="#BDD0FB"/>
<path d="M309.713 219.708L309.768 221.257C315.065 227.886 319.881 226.195 323.2 224.206C321.203 219.741 320.849 219.248 319.256 217.695C313.266 221.611 309.713 219.708 309.713 219.708Z" fill="url(#paint3_linear_460_473)"/>
<path d="M333.848 212.433L324.527 199.331C323.916 206.721 322.459 213.643 319.254 217.696C320.848 219.247 321.202 219.741 323.199 224.206C331.481 219.241 333.848 212.433 333.848 212.433Z" fill="url(#paint4_linear_460_473)"/>
<path d="M343 322.388C338.352 322.58 333.855 322.46 330.852 322.321C333.586 320.571 339.886 316.763 345.157 315.248L348.776 315.053C348.776 315.053 350.002 316.73 350.439 320.566C349.838 321.239 348.087 322.177 343 322.388Z" fill="url(#paint5_linear_460_473)"/>
<path d="M330.813 322.345C330.826 322.337 330.838 322.328 330.851 322.321C333.854 322.46 338.352 322.58 342.998 322.388C348.085 322.177 349.838 321.239 350.438 320.566C350.459 320.744 350.479 320.918 350.496 321.104C350.572 321.947 349.876 322.685 348.938 322.749C345.133 323.008 335.696 323.594 331.147 323.378C330.547 323.351 330.324 322.658 330.813 322.345Z" fill="url(#paint6_linear_460_473)"/>
<path d="M376.235 321.269C376.576 319.307 377.121 316.472 377.543 315.747C378.205 314.61 380.469 315.747 380.469 315.747C380.469 315.747 382.058 316.414 382.79 317.524C383.256 318.232 384.546 320.247 385.42 321.615C385.52 321.772 385.562 321.939 385.556 322.102L376.49 322.387C376.268 322.068 376.164 321.678 376.235 321.269Z" fill="url(#paint7_linear_460_473)"/>
<path d="M385.556 322.103C385.541 322.569 385.13 322.992 384.551 323.005L378.092 323.165C377.409 323.182 376.818 322.863 376.489 322.388L385.556 322.103Z" fill="url(#paint8_linear_460_473)"/>
<path d="M375.542 309.228C375.621 309.463 376.792 314.57 377.305 316.81C377.447 317.43 378.067 317.865 378.77 317.833C379.153 317.815 379.6 317.784 380.068 317.73C380.899 317.633 381.531 317.01 381.564 316.258C381.646 314.295 381.688 310.525 380.886 309.064C379.779 307.051 375.542 309.228 375.542 309.228Z" fill="url(#paint9_linear_460_473)"/>
<path d="M349.487 310.69C348.984 310.675 349.687 313.022 348.928 315.329C348.757 315.85 348.324 316.258 347.72 316.265C347.329 316.27 346.866 316.263 346.396 316.229C345.687 316.178 345.12 315.684 345.053 315.048L344.435 309.065L349.487 310.69Z" fill="url(#paint10_linear_460_473)"/>
<path d="M335.432 247.087C335.656 248.069 343.571 289.583 344.052 311.066C344.061 311.426 344.356 311.727 344.752 311.778C345.757 311.905 347.714 312.066 349.612 311.75C349.873 311.706 350.068 311.514 350.085 311.276C350.362 307.273 352.586 273.426 349.862 257.493C349.862 257.493 372.369 300.085 375.782 311.829C375.864 312.115 376.157 312.307 376.485 312.291C377.448 312.245 379.453 312.089 381.045 311.563C381.616 311.374 381.941 310.835 381.796 310.304C379.89 303.275 366.531 254.851 357.461 244.182L335.432 247.087Z" fill="url(#paint11_linear_460_473)"/>
<path d="M349.86 257.758C349.935 257.758 350.009 257.733 350.067 257.682C350.184 257.579 350.185 257.411 350.071 257.307L347.057 254.536C346.942 254.431 346.756 254.429 346.639 254.532C346.522 254.635 346.521 254.804 346.635 254.908L349.649 257.679C349.707 257.732 349.783 257.758 349.86 257.758Z" fill="url(#paint12_linear_460_473)"/>
<path d="M322.565 195.112C328.346 193.75 339.012 191.596 347.501 192.073C350.274 192.229 350.799 194.576 350.909 196.33C352.192 216.66 354.159 233.686 357.46 244.183C350.041 246.822 342.687 248.047 335.432 247.087C329.996 236.62 325.244 224.535 321.184 210.811C321.184 210.811 318.802 199.865 321.115 196.216C321.474 195.648 321.95 195.257 322.565 195.112Z" fill="url(#paint13_linear_460_473)"/>
<path d="M336.473 180.871C336.473 180.871 337.932 188.703 338.368 192.323C338.438 192.912 338.096 193.468 337.51 193.74C335.914 194.478 332.509 195.668 328.797 194.576C328.185 194.397 327.786 193.865 327.799 193.286L328.054 182.831L336.473 180.871Z" fill="url(#paint14_linear_460_473)"/>
<path d="M301.366 139.582C301.573 139.477 301.646 139.241 301.53 139.056L300.938 138.111L300.892 138.134L297.404 133.047C297.28 132.865 297.014 132.809 296.813 132.92L296.153 133.287C295.95 133.399 295.888 133.638 296.012 133.819L299.232 138.514C299.36 138.701 299.289 138.946 299.077 139.054L273.773 151.885C273.566 151.99 273.493 152.225 273.609 152.411L274.202 153.356L274.21 153.352L282.432 166.462C282.55 166.648 282.812 166.714 283.018 166.61L283.694 166.266C283.9 166.161 283.973 165.926 283.858 165.74L275.846 152.965C275.729 152.779 275.802 152.544 276.01 152.439L301.366 139.582Z" fill="#00ADEF"/>
<path d="M291.017 121.974L238.573 148.566L245.299 159.289L297.742 132.697L291.017 121.974Z" fill="#00ADEF"/>
<path d="M336.788 257.404L332.908 259.169C332.806 259.215 332.682 259.179 332.631 259.088L280.001 165.611C279.95 165.519 279.99 165.408 280.092 165.362L283.972 163.596C284.074 163.55 284.198 163.586 284.249 163.678L336.879 257.155C336.93 257.246 336.89 257.358 336.788 257.404Z" fill="#00ADEF"/>
<path d="M245.3 159.29C246.532 158.666 246.013 155.741 244.141 152.758C242.27 149.774 239.755 147.862 238.524 148.486C237.293 149.11 237.812 152.035 239.683 155.018C241.554 158.002 244.069 159.914 245.3 159.29Z" fill="#E9F0FF"/>
<path d="M297.4 132.925C298.631 132.301 298.112 129.376 296.24 126.393C294.369 123.409 291.854 121.497 290.623 122.121C289.392 122.745 289.911 125.67 291.782 128.653C293.653 131.637 296.168 133.549 297.4 132.925Z" fill="#E9F0FF"/>
<path d="M308.865 219.946C308.499 219.446 308.406 218.828 308.603 218.256C308.984 217.147 309.78 215.52 311.112 215.879C313.094 216.415 313.358 220.818 313.358 220.818L312.832 223.645L313.493 225.055C312.183 224.486 310.573 222.45 308.865 219.946Z" fill="url(#paint15_linear_460_473)"/>
<path d="M354.746 229.894C355.556 228.871 356.368 227.754 357.17 226.52C365.1 214.308 350.556 195.606 350.556 195.606L346.124 207.47C352.677 214.041 349.925 220.381 347.695 225.642C344.776 232.529 332.151 238.368 332.151 238.368L334.556 241.036C334.556 241.036 347.535 238.983 354.746 229.894Z" fill="url(#paint16_linear_460_473)"/>
<path d="M359.731 214.252C359.567 204.771 351.192 194.699 349.662 192.926C349.553 192.799 349.337 192.825 349.264 192.97L346.124 207.47C347.457 210.272 347.187 212.035 348.518 214.559C352.121 214.106 355.464 214.083 359.017 214.775C359.388 214.848 359.737 214.594 359.731 214.252Z" fill="url(#paint17_linear_460_473)"/>
<path d="M332.152 238.369C331.414 238.033 325.636 238.79 326.522 239.505C328.075 240.758 328.143 241.707 326.509 242.879C325.703 243.458 323.851 244.337 323.345 242.985C323.203 242.604 323.184 242.112 322.781 241.939C322.484 241.811 321.643 242.726 321.593 243.019C321.312 244.665 322.773 246.033 324.384 246.578C325.166 246.843 325.998 246.956 326.824 247.068C327.283 247.13 328.428 247.283 328.531 247.242C328.651 247.195 328.721 247.086 328.81 247C329.186 246.624 331.201 245.097 331.641 244.587C331.878 244.312 334.897 240.888 334.744 240.561C334.743 240.56 332.776 238.652 332.152 238.369Z" fill="url(#paint18_linear_460_473)"/>
<path d="M326.363 172.528C326.363 172.528 321.695 180.429 322.293 183.621C322.892 186.813 328.677 186.584 333.73 183.991L337.261 175.46L326.363 172.528Z" fill="url(#paint19_linear_460_473)"/>
<path d="M333.507 179.802C333.301 179.72 333.226 179.494 333.348 179.325C333.722 178.81 334.423 177.763 334.647 176.845C334.647 176.845 335.486 176.362 332.51 175.721C329.535 175.081 325.098 174.087 324.165 171.81C323.256 169.59 325.645 164.007 329.456 168.456C329.601 168.626 329.885 168.629 330.03 168.46C330.654 167.729 332.297 166.211 334.578 167.131C336.713 167.992 336.952 169.399 336.923 170.108C336.915 170.316 337.122 170.478 337.351 170.44C338.43 170.255 341.019 170.095 342.228 172.484C343.223 174.452 342.577 175.565 341.987 176.11C341.795 176.286 341.879 176.577 342.141 176.649C342.851 176.845 343.766 177.385 343.675 178.879C343.548 180.944 340.981 180.762 340.249 180.668C340.129 180.653 340.008 180.689 339.928 180.77C339.301 181.393 336.477 184.042 333.419 184.362C333.154 184.389 332.949 184.155 333.035 183.928L334.359 180.47C334.421 180.309 334.335 180.133 334.161 180.064L333.507 179.802Z" fill="url(#paint20_linear_460_473)"/>
<path d="M332.974 180.293C332.974 180.293 336.299 178.242 336.541 179.969C336.784 181.697 333.548 182.47 331.945 181.827L332.974 180.293Z" fill="url(#paint21_linear_460_473)"/>
<path d="M322.991 322.662C312.781 325.728 302.862 325.731 293.296 322.93C290.878 322.221 289.24 320.195 289.24 317.908V275.784C300.994 278.11 313.316 278.228 326.294 275.784V318.56C326.296 320.426 324.959 322.071 322.991 322.662Z" fill="#BDD0FB"/>
<path d="M307.768 278.797C318 278.797 326.295 277.298 326.295 275.448C326.295 273.599 318 272.1 307.768 272.1C297.535 272.1 289.24 273.599 289.24 275.448C289.24 277.298 297.535 278.797 307.768 278.797Z" fill="#7D97F4"/>
<path d="M326.295 308.219C313.944 312.082 301.592 312.082 289.241 308.219V291.415C301.704 294.177 314.061 294.318 326.295 291.415V308.219Z" fill="#00ADEF"/>
<path d="M291.227 279.613C291.624 280.946 293.316 281.846 294.807 281.516C295.852 281.285 296.747 280.549 297.823 280.533C299.045 280.514 300.021 281.42 300.734 282.313C302.029 283.935 303.013 285.758 303.632 287.675C303.839 288.313 304.021 288.992 304.52 289.483C305.588 290.534 307.607 290.198 308.794 289.255C309.98 288.313 310.625 286.953 311.507 285.771C312.389 284.588 313.744 283.486 315.324 283.571C315.853 283.6 316.366 283.763 316.895 283.783C318.068 283.828 319.22 283.08 319.545 282.067C319.644 281.756 319.676 281.421 319.854 281.14C320.389 280.298 321.805 280.217 322.537 279.534C323.002 279.101 323.156 278.472 323.698 278.046C323.903 277.884 325.307 277.363 325.336 277.282C325.583 276.603 324.799 275.99 324.072 275.699C319.812 273.993 314.943 275.694 310.325 276.275C305.788 276.846 301.446 275.915 296.953 275.95C294.477 275.971 290.302 276.508 291.227 279.613Z" fill="#00ADEF"/>
<path d="M307.982 278.892C318.214 278.892 326.509 277.393 326.509 275.544C326.509 273.694 318.214 272.195 307.982 272.195C297.749 272.195 289.454 273.694 289.454 275.544C289.454 277.393 297.749 278.892 307.982 278.892Z" fill="#7D97F4"/>
<path d="M307.488 277.569C315.912 277.569 322.741 276.662 322.741 275.544C322.741 274.426 315.912 273.519 307.488 273.519C299.064 273.519 292.236 274.426 292.236 275.544C292.236 276.662 299.064 277.569 307.488 277.569Z" fill="#F1F6FF"/>
<path d="M105.941 319.372H5.783C2.58967 319.372 0 317.043 0 314.172V227.221C0 224.355 2.58002 222.029 5.76784 222.021L106.728 221.777C109.939 221.77 112.544 224.117 112.526 227.004L111.725 314.198C111.707 317.061 109.123 319.372 105.941 319.372Z" fill="#00ADEF"/>
<path d="M101.033 228.434L11.4751 228.93C8.23767 228.947 5.6287 231.319 5.64386 234.23L6.2682 307.361C6.28336 310.227 8.84133 312.559 12.0291 312.611L99.0456 314.038C102.295 314.092 104.975 311.76 105.02 308.838L106.936 233.784C106.983 230.828 104.32 228.416 101.033 228.434Z" fill="#BDD0FB"/>
<path opacity="0.6" d="M97.3913 235.216V235.772C97.3913 236.643 96.6058 237.35 95.6355 237.35H26.6323C25.6634 237.35 24.8765 236.644 24.8765 235.772V235.216C24.8765 234.345 25.662 233.638 26.6323 233.638H95.6355C96.6058 233.638 97.3913 234.344 97.3913 235.216Z" fill="white"/>
<path opacity="0.6" d="M89.693 242.199C89.6433 243.025 88.8922 243.676 87.9716 243.692L27.625 244.681C26.6437 244.697 25.8374 243.986 25.8374 243.103V242.975C25.8374 242.112 26.6065 241.409 27.5643 241.396L87.9109 240.536C88.9294 240.521 89.7467 241.284 89.693 242.199Z" fill="white"/>
<path d="M95.8523 309.902C95.8316 309.902 95.8123 309.902 95.7916 309.902L14.1681 309.021C12.8257 309.006 11.5715 308.521 10.6371 307.654C9.70268 306.788 9.20239 305.645 9.2272 304.438L11.3276 252.797C11.3524 251.609 11.8968 250.489 12.8602 249.656C13.8236 248.823 15.1094 248.38 16.4256 248.401L97.9058 249.827C100.658 249.875 102.858 251.929 102.81 254.403C102.81 254.407 102.81 254.412 102.81 254.416L100.851 305.499C100.804 307.932 98.5674 309.902 95.8523 309.902ZM16.3278 249.895C15.4609 249.895 14.6422 250.191 14.0151 250.734C13.3729 251.29 13.009 252.038 12.9925 252.839L10.8921 304.48C10.8755 305.272 11.2091 306.034 11.832 306.613C12.4564 307.192 13.2929 307.515 14.1888 307.525L95.8109 308.406C95.8247 308.406 95.8371 308.406 95.8509 308.406C97.6619 308.406 99.1545 307.091 99.1876 305.459L101.146 254.37C101.175 252.722 99.7085 251.355 97.8741 251.323L16.3939 249.896C16.3719 249.896 16.3498 249.895 16.3278 249.895ZM101.978 254.388H101.983H101.978Z" fill="white"/>
<path d="M100.921 259.858H12.0278C11.5688 259.858 11.1953 259.524 11.1953 259.11C11.1953 258.696 11.5674 258.361 12.0278 258.361H100.921C101.38 258.361 101.754 258.696 101.754 259.11C101.754 259.524 101.38 259.858 100.921 259.858Z" fill="white"/>
<path d="M91.0964 58.9315C91.0082 59.0033 90.8952 59.0504 90.767 59.0603C90.4555 59.0851 90.1826 58.8782 90.155 58.5981C90.0903 57.9191 90.0379 57.2301 90.0007 56.5523C89.9855 56.2722 90.2267 56.0343 90.5382 56.0194C90.8497 56.0058 91.1157 56.2214 91.1308 56.5027C91.1667 57.1681 91.2177 57.8447 91.2824 58.5101C91.2976 58.675 91.2245 58.8286 91.0964 58.9315Z" fill="url(#paint22_linear_460_473)"/>
<path d="M185.75 11.45C185.554 11.6086 185.253 11.6272 185.033 11.4797C183.808 10.6594 182.53 9.8713 181.236 9.14143C180.971 8.99149 180.891 8.67798 181.058 8.44006C181.221 8.19966 181.574 8.13027 181.837 8.28021C183.156 9.02619 184.458 9.82793 185.708 10.6644C185.959 10.8317 186.01 11.1501 185.824 11.3756C185.802 11.4041 185.777 11.4277 185.75 11.45ZM175.282 5.85144C175.119 5.98403 174.878 6.02368 174.666 5.9357C173.282 5.36073 171.853 4.82541 170.416 4.34709C170.122 4.24919 169.973 3.95675 170.082 3.69404C170.19 3.4301 170.516 3.29627 170.808 3.39417C172.273 3.8824 173.732 4.42763 175.141 5.01376C175.425 5.13148 175.548 5.43383 175.417 5.6891C175.384 5.7523 175.337 5.80683 175.282 5.85144ZM163.763 2.29254C163.629 2.40035 163.443 2.44992 163.256 2.41027C161.764 2.09676 160.244 1.83281 158.737 1.62463C158.428 1.5825 158.216 1.32227 158.264 1.0447C158.311 0.768365 158.599 0.576295 158.907 0.619666C160.444 0.831564 161.993 1.10047 163.513 1.42017C163.817 1.48337 164.005 1.75722 163.935 2.03108C163.906 2.13641 163.846 2.22563 163.763 2.29254ZM91.0619 50.1183C90.9503 50.2087 90.8001 50.2595 90.6375 50.2471C90.326 50.2248 90.0944 49.9795 90.1193 49.7007C90.2433 48.3066 90.4293 46.8977 90.6747 45.5123C90.7229 45.2359 91.0123 45.0463 91.3224 45.0897C91.6312 45.1343 91.8406 45.3945 91.7924 45.6721C91.5526 47.0315 91.3693 48.4132 91.248 49.7812C91.2342 49.9163 91.1653 50.034 91.0619 50.1183ZM151.683 0.9022C151.579 0.986463 151.44 1.03603 151.29 1.03231C149.764 0.998854 148.217 1.01992 146.692 1.09427C146.381 1.10914 146.113 0.894764 146.097 0.614712C146.08 0.333421 146.319 0.0942603 146.63 0.0793903C148.185 0.00256188 149.763 -0.0185052 151.318 0.0161915C151.629 0.0236265 151.877 0.256592 151.869 0.536644C151.866 0.682866 151.794 0.811741 151.683 0.9022ZM93.2671 39.3462C93.1265 39.4602 92.9253 39.5085 92.7296 39.4577C92.4305 39.3796 92.2582 39.0971 92.3451 38.827C92.782 37.4787 93.2823 36.133 93.8308 34.8257C93.9397 34.563 94.2677 34.4304 94.5585 34.5295C94.8507 34.6286 94.9981 34.9211 94.8879 35.1838C94.3504 36.4663 93.8597 37.7873 93.4297 39.1107C93.3994 39.2049 93.3415 39.2854 93.2671 39.3462ZM139.546 1.76838C139.472 1.8291 139.377 1.87247 139.271 1.89105C137.774 2.13889 136.263 2.44496 134.782 2.79937C134.48 2.87248 134.171 2.71014 134.09 2.43876C134.01 2.16739 134.189 1.88857 134.491 1.8167C136 1.45486 137.54 1.14259 139.065 0.889804C139.373 0.838998 139.668 1.02116 139.724 1.2975C139.761 1.47841 139.688 1.65313 139.546 1.76838ZM97.8469 29.1974C97.676 29.3362 97.4183 29.3721 97.2033 29.2692C96.9276 29.1379 96.8229 28.8293 96.969 28.5815C97.7008 27.3448 98.4961 26.118 99.3326 24.9371C99.4994 24.7004 99.8495 24.631 100.113 24.781C100.376 24.9321 100.453 25.2457 100.286 25.4823C99.4663 26.641 98.6863 27.843 97.9682 29.0573C97.9351 29.1131 97.8938 29.159 97.8469 29.1974ZM127.862 4.84895C127.815 4.88736 127.76 4.91958 127.696 4.94189C126.282 5.4611 124.874 6.03731 123.507 6.65442C123.228 6.78081 122.888 6.6792 122.747 6.42889C122.607 6.17858 122.72 5.8725 122.999 5.74735C124.391 5.11785 125.827 4.53048 127.269 4.00259C127.559 3.89603 127.888 4.02118 128.006 4.28017C128.099 4.48339 128.034 4.70892 127.862 4.84895ZM117.117 10.0002C117.098 10.0163 117.076 10.0311 117.054 10.0448C115.787 10.8093 114.537 11.6309 113.337 12.4859C113.091 12.6607 112.737 12.6235 112.543 12.4029C112.349 12.1823 112.402 11.8639 112.635 11.6892C113.858 10.818 115.133 9.98158 116.424 9.20091C116.683 9.04477 117.034 9.10673 117.208 9.33969C117.365 9.55283 117.323 9.83412 117.117 10.0002ZM104.642 20.1093C104.436 20.2766 104.121 20.2853 103.901 20.1217C103.662 19.942 103.63 19.6211 103.83 19.4055C104.828 18.3299 105.886 17.2766 106.975 16.2753C107.202 16.0783 107.551 16.0709 107.774 16.2666C107.997 16.4624 108.002 16.7846 107.784 16.9854C106.716 17.968 105.678 19.0015 104.699 20.056C104.68 20.0758 104.661 20.0932 104.642 20.1093Z" fill="url(#paint23_linear_460_473)"/>
<path d="M193.116 17.2976C192.89 17.481 192.541 17.4711 192.329 17.2716C191.815 16.7908 191.284 16.3112 190.75 15.8466C190.525 15.652 190.52 15.3298 190.736 15.1278C190.958 14.9333 191.311 14.9209 191.535 15.1154C192.08 15.5888 192.623 16.077 193.145 16.5678C193.361 16.7697 193.353 17.0919 193.129 17.2865C193.126 17.2902 193.12 17.2939 193.116 17.2976Z" fill="url(#paint24_linear_460_473)"/>
<path d="M209.65 56.2151C209.546 56.3006 209.404 56.3502 209.251 56.3465C208.939 56.3365 208.695 56.0999 208.706 55.8198C208.734 55.1482 208.746 54.4704 208.745 53.8074C208.745 53.5273 208.997 53.2993 209.309 53.2981C209.622 53.2981 209.875 53.5249 209.875 53.8062C209.876 54.4827 209.863 55.173 209.835 55.8582C209.831 55.9995 209.759 56.1271 209.65 56.2151Z" fill="url(#paint25_linear_460_473)"/>
<path d="M190.114 93.9206L189.733 94.2279C189.498 94.4138 189.141 94.394 188.935 94.1845C188.729 93.9751 188.75 93.6566 188.979 93.4708C188.98 93.4695 188.981 93.4683 188.983 93.467L189.356 93.1672C190.347 92.363 191.322 91.5166 192.253 90.6504C192.477 90.4534 192.828 90.4435 193.053 90.638C193.277 90.8326 193.283 91.1548 193.066 91.3568C192.118 92.2378 191.125 93.1015 190.114 93.9206ZM183.885 98.3345C183.865 98.3494 183.846 98.3642 183.826 98.3766C182.562 99.1548 181.248 99.8996 179.921 100.59C179.651 100.73 179.305 100.647 179.149 100.404C178.992 100.161 179.087 99.8512 179.356 99.7087C180.658 99.0322 181.948 98.3011 183.187 97.5377C183.445 97.3791 183.797 97.4386 183.973 97.6691C184.134 97.8822 184.092 98.166 183.885 98.3345ZM197.854 86.296C197.657 86.4558 197.357 86.4732 197.138 86.3257C196.888 86.1572 196.836 85.8387 197.023 85.6144C197.926 84.5314 198.79 83.4025 199.595 82.2625C199.762 82.0233 200.111 81.9552 200.375 82.1051C200.638 82.2551 200.717 82.5686 200.55 82.8065C199.73 83.9688 198.849 85.1188 197.93 86.2241C197.905 86.2501 197.881 86.2749 197.854 86.296ZM173.37 103.504C173.325 103.541 173.271 103.572 173.212 103.595C171.798 104.133 170.345 104.626 168.895 105.062C168.599 105.151 168.279 105.007 168.18 104.741C168.081 104.476 168.239 104.186 168.537 104.098C169.959 103.67 171.384 103.186 172.774 102.658C173.06 102.549 173.392 102.669 173.514 102.928C173.607 103.134 173.544 103.363 173.37 103.504ZM204.023 77.0555C203.859 77.1881 203.617 77.2278 203.404 77.1385C203.122 77.0196 203.001 76.7172 203.133 76.4632C203.77 75.2451 204.364 73.9836 204.898 72.7135C205.009 72.4507 205.335 72.3182 205.628 72.4185C205.92 72.5177 206.066 72.8113 205.956 73.0741C205.41 74.3677 204.805 75.654 204.156 76.8956C204.124 76.9576 204.077 77.0121 204.023 77.0555ZM161.917 106.679C161.844 106.739 161.753 106.781 161.65 106.799C160.149 107.069 158.617 107.291 157.095 107.457C156.785 107.491 156.504 107.292 156.467 107.014C156.428 106.735 156.65 106.482 156.96 106.447C158.453 106.284 159.958 106.067 161.429 105.802C161.735 105.746 162.033 105.924 162.095 106.2C162.135 106.383 162.061 106.563 161.917 106.679ZM208.002 66.8894C207.869 66.9984 207.678 67.048 207.489 67.0058C207.186 66.9402 207 66.6638 207.073 66.3924C207.429 65.0777 207.732 63.7357 207.975 62.4011C208.026 62.1235 208.315 61.9364 208.624 61.9823C208.931 62.0269 209.141 62.2896 209.09 62.5659C208.842 63.9253 208.533 65.2933 208.17 66.6329C208.144 66.7345 208.084 66.8237 208.002 66.8894ZM149.993 107.714C149.892 107.796 149.759 107.845 149.611 107.844C148.083 107.836 146.532 107.774 145.001 107.66C144.69 107.637 144.46 107.392 144.484 107.112C144.509 106.831 144.783 106.623 145.095 106.647C146.597 106.76 148.119 106.819 149.618 106.828C149.931 106.829 150.182 107.058 150.18 107.338C150.179 107.488 150.106 107.622 149.993 107.714ZM138.078 106.563C137.949 106.668 137.767 106.717 137.582 106.683C136.404 106.46 135.213 106.2 134.044 105.912C133.73 105.834 133.416 105.755 133.104 105.673C132.804 105.594 132.633 105.312 132.72 105.042C132.807 104.772 133.121 104.618 133.42 104.696C133.726 104.777 134.033 104.855 134.342 104.931C135.489 105.213 136.657 105.468 137.814 105.688C138.12 105.746 138.314 106.015 138.251 106.29C138.227 106.4 138.164 106.493 138.078 106.563ZM126.654 103.301C126.494 103.43 126.262 103.472 126.051 103.39C124.644 102.844 123.243 102.24 121.887 101.598C121.611 101.467 121.505 101.16 121.651 100.912C121.796 100.664 122.139 100.569 122.415 100.699C123.745 101.33 125.12 101.921 126.5 102.457C126.787 102.569 126.919 102.867 126.795 103.125C126.762 103.195 126.714 103.253 126.654 103.301ZM116.191 98.0458C115.999 98.2007 115.709 98.223 115.488 98.0842C114.234 97.2936 112.998 96.4485 111.812 95.5724C111.571 95.394 111.537 95.0743 111.735 94.8574C111.934 94.6455 112.291 94.6096 112.53 94.788C113.692 95.648 114.906 96.4782 116.136 97.2527C116.391 97.4138 116.454 97.731 116.275 97.9603C116.25 97.9925 116.221 98.021 116.191 98.0458Z" fill="url(#paint26_linear_460_473)"/>
<path d="M107.109 90.9827C106.881 91.1673 106.53 91.1549 106.319 90.9542C105.802 90.4622 105.287 89.9504 104.785 89.4362C104.58 89.2243 104.629 88.9033 104.839 88.7187C105.074 88.5341 105.431 88.5551 105.637 88.767C106.129 89.2726 106.634 89.7745 107.142 90.2577C107.357 90.4622 107.346 90.7831 107.118 90.9765C107.114 90.9777 107.111 90.9802 107.109 90.9827Z" fill="url(#paint27_linear_460_473)"/>
<path d="M112.059 76.8384C112.201 77.08 112.499 77.2139 112.799 77.173L121.373 75.9784C124.032 78.7269 127.198 81.1148 130.796 83.0082L131.077 90.8001C131.087 91.074 131.288 91.3106 131.579 91.3912L141.523 94.1521C141.814 94.2326 142.129 94.1384 142.308 93.9179L147.428 87.6266C151.588 87.8868 155.699 87.5213 159.62 86.5993L165.952 91.9327C166.174 92.1198 166.503 92.1595 166.772 92.0318L175.974 87.6625C176.243 87.5349 176.392 87.2672 176.346 86.9971L175.018 79.2882C178.074 76.8979 180.73 74.0515 182.836 70.8161L191.502 70.5633C191.807 70.5546 192.07 70.3737 192.16 70.1122L195.23 61.1716C195.32 60.9101 195.215 60.6264 194.97 60.4653L187.973 55.8618C188.262 52.122 187.856 48.4255 186.83 44.9001L192.763 39.2073C192.972 39.0078 193.016 38.7117 192.874 38.47L188.011 30.1974C187.869 29.9557 187.572 29.8219 187.271 29.8628L178.697 31.0573C176.039 28.3089 172.873 25.921 169.275 24.0275L168.993 16.2356C168.984 15.963 168.782 15.7251 168.492 15.6446L158.548 12.8837C158.257 12.8031 157.941 12.8973 157.762 13.1179L152.642 19.4092C148.483 19.1489 144.372 19.5145 140.45 20.4364L134.12 15.103C133.898 14.9159 133.569 14.8763 133.3 15.0039L124.098 19.3732C123.829 19.5009 123.68 19.7673 123.726 20.0387L125.054 27.7475C121.998 30.1379 119.342 32.9842 117.236 36.2197L108.57 36.4725C108.266 36.4812 108.002 36.6621 107.912 36.9236L104.841 45.8642C104.752 46.1256 104.857 46.4094 105.102 46.5705L112.099 51.174C111.81 54.9138 112.218 58.6102 113.242 62.1357L107.31 67.8284C107.102 68.0279 107.058 68.3241 107.2 68.5657L112.059 76.8384Z" fill="url(#paint28_linear_460_473)"/>
<path opacity="0.7" d="M156.793 60.2522C156.791 60.2546 156.789 60.2559 156.787 60.2584C154.784 61.8792 152.2 62.7032 149.508 62.5756C146.817 62.4492 144.341 61.3872 142.539 59.588C140.734 57.7875 139.819 55.4628 139.96 53.0439C140.251 48.0488 145.007 44.1975 150.563 44.4602C153.254 44.5866 155.729 45.6486 157.532 47.4478C159.336 49.2483 160.251 51.573 160.111 53.9919C159.969 56.4083 158.792 58.6313 156.793 60.2522ZM144.413 47.915C142.751 49.2632 141.771 51.1133 141.654 53.1232C141.537 55.1369 142.297 57.07 143.798 58.5669C145.298 60.065 147.358 60.9473 149.596 61.0527C151.835 61.158 153.986 60.4727 155.651 59.1245C155.652 59.1233 155.655 59.1208 155.656 59.1196C157.319 57.7713 158.298 55.9213 158.416 53.9113C158.533 51.8989 157.772 49.9646 156.271 48.4677C154.772 46.9695 152.711 46.0872 150.473 45.9819C148.235 45.8766 146.083 46.5618 144.418 47.91C144.417 47.9113 144.416 47.9138 144.413 47.915Z" fill="white"/>
<path opacity="0.7" d="M167.64 70.7106C161.066 76.044 151.62 78.2262 142.562 75.7119C140.792 75.22 139.083 74.562 137.483 73.7528L138.314 72.4244C139.811 73.1803 141.408 73.7962 143.062 74.2559C153.105 77.044 163.661 73.6549 169.637 66.4987C169.648 66.4851 169.659 66.4714 169.67 66.459C169.681 66.4454 169.692 66.4318 169.705 66.4181C171.305 64.485 172.57 62.2806 173.405 59.8506C175.318 54.283 174.705 48.3796 171.678 43.2259C170.719 41.5926 169.554 40.097 168.213 38.7611C165.322 35.8813 161.613 33.7425 157.383 32.5678C144.6 29.0176 130.988 35.4811 127.04 46.9731C125.742 50.7526 125.607 54.7687 126.649 58.5878L125.002 58.9509C123.887 54.8641 124.032 50.5667 125.42 46.5233C129.645 34.2283 144.208 27.3125 157.884 31.1105C162.41 32.367 166.378 34.6545 169.47 37.7364C170.905 39.1664 172.152 40.7661 173.178 42.5133C176.415 48.0264 177.072 54.3437 175.026 60.3004C173.598 64.4516 170.992 67.9906 167.64 70.7106Z" fill="white"/>
<path d="M184.929 88.033C184.853 87.9859 184.793 87.9178 184.761 87.8335C184.684 87.6266 184.807 87.4023 185.037 87.3329C185.599 87.1619 186.174 87.007 186.746 86.8695C186.98 86.8137 187.22 86.9389 187.283 87.1495C187.345 87.3602 187.206 87.577 186.972 87.6328C186.418 87.7654 185.862 87.9166 185.318 88.0814C185.181 88.1223 185.04 88.0999 184.929 88.033Z" fill="url(#paint29_linear_460_473)"/>
<path d="M219.968 118.26C219.815 118.166 219.739 117.992 219.793 117.824C220.128 116.786 220.388 115.718 220.566 114.648C220.602 114.432 220.825 114.283 221.065 114.316C221.305 114.348 221.47 114.549 221.434 114.764C221.251 115.87 220.982 116.974 220.635 118.044C220.567 118.254 220.323 118.374 220.09 118.313C220.048 118.301 220.005 118.282 219.968 118.26ZM220.995 109.672C220.887 109.607 220.813 109.499 220.803 109.373C220.722 108.292 220.558 107.208 220.316 106.151C220.268 105.938 220.421 105.728 220.658 105.685C220.895 105.641 221.128 105.779 221.176 105.992C221.426 107.083 221.594 108.203 221.678 109.319C221.695 109.537 221.511 109.726 221.27 109.741C221.168 109.746 221.073 109.721 220.995 109.672ZM192.51 86.7714C192.399 86.7032 192.323 86.5904 192.318 86.4616C192.308 86.2435 192.496 86.0601 192.738 86.0514C193.4 86.0266 194.072 86.0229 194.741 86.0403C195.318 86.0551 195.9 86.0873 196.472 86.1332C196.714 86.153 196.892 86.3451 196.869 86.5632C196.847 86.78 196.633 86.9399 196.392 86.9201C195.838 86.8742 195.274 86.8445 194.715 86.8296C194.067 86.8123 193.415 86.816 192.774 86.8395C192.676 86.842 192.585 86.8172 192.51 86.7714ZM218.668 101.296C218.603 101.256 218.55 101.2 218.515 101.131C218.023 100.146 217.451 99.1804 216.816 98.2622C216.688 98.0763 216.751 97.8334 216.956 97.7182C217.163 97.6029 217.432 97.6599 217.561 97.8446C218.217 98.7938 218.809 99.7901 219.316 100.807C219.415 101.007 219.316 101.24 219.095 101.329C218.951 101.387 218.789 101.37 218.668 101.296ZM202.03 87.9164C201.873 87.8209 201.799 87.64 201.859 87.4702C201.934 87.2621 202.181 87.1481 202.412 87.2137C203.593 87.5533 204.762 87.9696 205.884 88.4504C206.103 88.5434 206.195 88.7801 206.092 88.9771C205.987 89.1741 205.725 89.2571 205.506 89.1642C204.419 88.6983 203.289 88.2955 202.143 87.9672C202.103 87.9535 202.065 87.9374 202.03 87.9164ZM213.259 94.1605C213.235 94.1456 213.212 94.1295 213.191 94.1097C212.349 93.3352 211.443 92.6054 210.497 91.9412C210.305 91.8073 210.272 91.5583 210.421 91.386C210.57 91.215 210.844 91.1927 211.037 91.3179C212.014 92.0044 212.95 92.7578 213.82 93.557C213.989 93.7132 213.986 93.9635 213.813 94.1159C213.661 94.2497 213.428 94.2646 213.259 94.1605Z" fill="url(#paint30_linear_460_473)"/>
<path d="M216.774 124.59C216.578 124.469 216.523 124.232 216.651 124.051C216.96 123.614 217.258 123.166 217.533 122.715C217.651 122.524 217.918 122.455 218.13 122.56C218.354 122.659 218.42 122.906 218.303 123.096C218.017 123.562 217.711 124.026 217.392 124.476C217.261 124.659 216.989 124.714 216.785 124.596C216.782 124.595 216.778 124.592 216.774 124.59Z" fill="url(#paint31_linear_460_473)"/>
<path d="M198.484 135.605C198.39 135.546 198.32 135.456 198.299 135.347C198.256 135.132 198.416 134.928 198.654 134.89C199.22 134.8 199.789 134.692 200.346 134.57C200.581 134.518 200.818 134.648 200.876 134.86C200.934 135.072 200.789 135.285 200.554 135.337C199.979 135.463 199.392 135.575 198.807 135.668C198.689 135.686 198.575 135.662 198.484 135.605Z" fill="url(#paint32_linear_460_473)"/>
<path d="M180.134 132.765C179.947 132.649 179.886 132.423 180 132.243C180.12 132.053 180.389 131.988 180.6 132.096C181.627 132.622 182.703 133.092 183.8 133.492C184.028 133.574 184.134 133.804 184.043 134.006C183.952 134.208 183.695 134.306 183.471 134.224C182.339 133.812 181.227 133.326 180.166 132.782C180.153 132.777 180.144 132.771 180.134 132.765ZM175.378 129.677C175.361 129.667 175.346 129.656 175.331 129.643C174.423 128.908 173.56 128.113 172.767 127.278C172.61 127.112 172.632 126.863 172.816 126.721C173 126.58 173.277 126.6 173.435 126.765C174.202 127.573 175.037 128.343 175.918 129.055C176.099 129.201 176.114 129.45 175.951 129.612C175.802 129.763 175.557 129.787 175.378 129.677ZM189.03 135.63C188.893 135.545 188.815 135.394 188.844 135.237C188.886 135.022 189.112 134.877 189.352 134.915C190.515 135.093 191.706 135.205 192.891 135.246C193.133 135.253 193.322 135.436 193.313 135.656C193.303 135.874 193.099 136.044 192.856 136.035C191.633 135.993 190.403 135.879 189.203 135.694C189.141 135.682 189.081 135.661 189.03 135.63ZM169.541 122.995C169.485 122.96 169.436 122.913 169.402 122.856C168.823 121.887 168.312 120.876 167.882 119.85C167.796 119.646 167.911 119.418 168.138 119.341C168.365 119.264 168.619 119.367 168.703 119.571C169.119 120.565 169.614 121.544 170.175 122.482C170.289 122.674 170.21 122.913 169.996 123.017C169.847 123.089 169.672 123.076 169.541 122.995ZM166.582 114.928C166.484 114.867 166.413 114.772 166.395 114.658C166.22 113.575 166.123 112.467 166.108 111.367C166.105 111.149 166.3 110.97 166.542 110.966C166.785 110.964 166.983 111.139 166.987 111.357C167.002 112.424 167.095 113.496 167.264 114.545C167.299 114.761 167.133 114.962 166.894 114.993C166.779 115.007 166.67 114.981 166.582 114.928ZM166.849 106.435C166.707 106.348 166.63 106.191 166.666 106.03C166.91 104.953 167.235 103.88 167.635 102.844C167.715 102.638 167.964 102.529 168.193 102.6C168.423 102.67 168.543 102.896 168.465 103.101C168.077 104.105 167.762 105.144 167.526 106.187C167.478 106.401 167.246 106.539 167.008 106.496C166.95 106.484 166.896 106.463 166.849 106.435Z" fill="url(#paint33_linear_460_473)"/>
<path d="M170.321 98.5128C170.128 98.3951 170.072 98.1609 170.194 97.98C170.505 97.5252 170.835 97.0754 171.176 96.6404C171.314 96.4645 171.584 96.4199 171.782 96.5413C171.784 96.5426 171.786 96.5438 171.788 96.545C171.986 96.6702 172.033 96.9168 171.894 97.0952C171.563 97.5165 171.243 97.9527 170.943 98.3926C170.816 98.5785 170.546 98.6368 170.339 98.5228C170.332 98.5203 170.327 98.5166 170.321 98.5128Z" fill="url(#paint34_linear_460_473)"/>
<path d="M178.389 98.2921C178.285 98.3751 178.25 98.5102 178.304 98.6267L179.832 101.95C178.752 103.321 177.907 104.855 177.356 106.51L173.505 107.472C173.37 107.505 173.273 107.613 173.265 107.738L172.972 112.043C172.963 112.17 173.045 112.286 173.174 112.334L176.866 113.711C177.189 115.415 177.819 117.031 178.705 118.509L176.737 121.639C176.668 121.75 176.684 121.886 176.777 121.98L179.955 125.211C180.047 125.305 180.198 125.336 180.327 125.287L184.023 123.913C185.548 124.885 187.254 125.643 189.095 126.14L190.165 129.602C190.202 129.724 190.322 129.81 190.461 129.818L195.249 130.082C195.39 130.089 195.519 130.016 195.573 129.9L197.104 126.58C198.999 126.29 200.796 125.724 202.441 124.927L205.922 126.696C206.045 126.758 206.196 126.743 206.301 126.66L209.894 123.803C209.999 123.72 210.033 123.585 209.979 123.468L208.451 120.145C209.532 118.774 210.376 117.24 210.928 115.585L214.778 114.623C214.913 114.59 215.01 114.482 215.018 114.357L215.312 110.052C215.32 109.925 215.239 109.809 215.109 109.761L211.417 108.384C211.094 106.68 210.465 105.064 209.578 103.586L211.546 100.456C211.615 100.345 211.599 100.209 211.506 100.115L208.328 96.8844C208.236 96.7902 208.086 96.7592 207.956 96.8076L204.26 98.1818C202.736 97.2103 201.029 96.4507 199.188 95.955L198.118 92.4928C198.081 92.3713 197.961 92.2846 197.822 92.2772L193.034 92.0132C192.894 92.0058 192.764 92.0789 192.71 92.1954L191.179 95.5151C189.284 95.8051 187.487 96.3714 185.843 97.1681L182.361 95.3986C182.239 95.3367 182.087 95.3515 181.982 95.4346L178.389 98.2921Z" fill="url(#paint35_linear_460_473)"/>
<path opacity="0.7" d="M191.371 114.702C191.369 114.701 191.368 114.701 191.367 114.7C190.282 114.034 189.55 113.027 189.307 111.866C189.065 110.705 189.339 109.529 190.079 108.553C190.821 107.578 191.94 106.92 193.231 106.702C195.897 106.251 198.473 107.833 198.974 110.23C199.217 111.391 198.943 112.567 198.203 113.542C197.461 114.517 196.342 115.175 195.051 115.394C193.762 115.613 192.454 115.366 191.371 114.702ZM196.168 108.375C195.407 107.908 194.45 107.702 193.474 107.867C192.528 108.027 191.71 108.509 191.167 109.223C190.624 109.936 190.422 110.799 190.602 111.648C190.779 112.498 191.316 113.234 192.109 113.722C192.111 113.722 192.111 113.723 192.112 113.723C192.906 114.21 193.863 114.39 194.807 114.23C195.752 114.07 196.571 113.589 197.114 112.874C197.657 112.161 197.858 111.298 197.679 110.449C197.497 109.571 196.932 108.842 196.168 108.375Z" fill="white"/>
<path opacity="0.7" d="M187.341 120.209C183.892 118.095 181.729 114.448 182.003 110.439C182.05 109.745 182.17 109.057 182.358 108.387C182.383 108.302 182.408 108.215 182.436 108.131L183.704 108.451C183.495 109.118 183.366 109.812 183.318 110.511C183.265 111.287 183.315 112.048 183.455 112.781C183.455 112.784 183.457 112.785 183.457 112.788C183.457 112.791 183.458 112.795 183.458 112.799C184.092 116.068 186.541 118.824 189.886 120.124C190.752 120.461 191.678 120.701 192.647 120.826C192.679 120.83 192.709 120.835 192.741 120.839C192.765 120.841 192.792 120.845 192.816 120.847C192.881 120.855 192.946 120.862 193.012 120.868C193.188 120.886 193.368 120.899 193.547 120.909C196.458 121.07 199.264 120.202 201.448 118.464C202.14 117.914 202.744 117.297 203.251 116.628C204.344 115.185 204.99 113.5 205.111 111.712C205.289 109.095 204.324 106.572 202.392 104.608C200.461 102.644 197.793 101.474 194.882 101.314C192.907 101.205 190.939 101.578 189.193 102.393L188.587 101.341C190.545 100.427 192.75 100.008 194.964 100.131C198.226 100.31 201.214 101.621 203.379 103.822C205.544 106.023 206.626 108.851 206.426 111.783C206.29 113.786 205.566 115.675 204.341 117.292C203.773 118.042 203.096 118.733 202.321 119.35C199.873 121.297 196.728 122.27 193.467 122.09C191.193 121.966 189.099 121.287 187.341 120.209Z" fill="white"/>
<path d="M310.304 49.8966C310.187 49.8322 310.106 49.7182 310.099 49.5856C310.073 49.0738 310.033 48.5621 309.983 48.0627C309.961 47.8508 310.136 47.6624 310.372 47.6438C310.607 47.6252 310.817 47.7814 310.838 47.9933C310.889 48.5038 310.929 49.0267 310.956 49.5484C310.967 49.7616 310.784 49.9425 310.548 49.9524C310.459 49.9574 310.375 49.9363 310.304 49.8966Z" fill="#91B3FA"/>
<path d="M247.827 83.1385C246.973 82.6688 246.128 82.1645 245.316 81.6415C245.123 81.5176 245.079 81.276 245.217 81.1038C245.354 80.9315 245.621 80.8881 245.815 81.0145C246.748 81.6168 247.725 82.1893 248.717 82.7209C248.719 82.7221 248.72 82.7221 248.721 82.7233C248.921 82.8336 248.986 83.0678 248.866 83.25C248.745 83.4334 248.482 83.4929 248.278 83.3838C248.129 83.3033 247.977 83.2215 247.827 83.1385ZM253.359 85.6825C253.181 85.5846 253.104 85.3826 253.187 85.2042C253.278 85.0071 253.53 84.9154 253.749 84.9972C254.81 85.3962 255.905 85.7605 257.002 86.079C257.229 86.1435 257.352 86.3615 257.279 86.5648C257.206 86.7667 256.965 86.8795 256.739 86.8138C255.618 86.4892 254.502 86.1174 253.418 85.7097C253.398 85.7023 253.377 85.6924 253.359 85.6825ZM262.169 88.0096C262.023 87.9291 261.939 87.7742 261.97 87.6131C262.012 87.4037 262.234 87.2637 262.468 87.3008C263.603 87.4818 264.76 87.6193 265.904 87.7122C266.139 87.7308 266.314 87.9192 266.292 88.1311C266.272 88.343 266.062 88.5003 265.827 88.4805C264.658 88.3863 263.478 88.2438 262.318 88.0604C262.264 88.0518 262.214 88.0344 262.169 88.0096ZM271.33 88.5288C271.213 88.4644 271.131 88.3516 271.124 88.219C271.113 88.0059 271.295 87.825 271.532 87.8151C272.68 87.7643 273.841 87.6664 274.983 87.5264C275.218 87.4979 275.435 87.6453 275.467 87.856C275.499 88.0666 275.335 88.2612 275.101 88.2909C273.935 88.4347 272.748 88.5338 271.576 88.5858C271.485 88.5883 271.401 88.5672 271.33 88.5288ZM280.386 87.193C280.298 87.1447 280.228 87.0666 280.197 86.9687C280.132 86.7643 280.266 86.5499 280.494 86.4929C281.6 86.2128 282.708 85.8845 283.786 85.5201C284.008 85.4458 284.256 85.5462 284.339 85.7457C284.421 85.9452 284.31 86.1682 284.088 86.2426C282.987 86.6156 281.855 86.9501 280.725 87.2364C280.607 87.2661 280.484 87.2475 280.386 87.193ZM288.888 84.0815C288.826 84.0468 288.772 83.9984 288.735 83.9365C288.622 83.7494 288.699 83.5152 288.908 83.4136C289.921 82.9179 290.921 82.3789 291.88 81.8101C292.079 81.6924 292.345 81.7419 292.474 81.9204C292.605 82.0976 292.55 82.338 292.353 82.4545C291.373 83.0356 290.352 83.5858 289.318 84.0926C289.178 84.1595 289.015 84.1509 288.888 84.0815ZM296.417 79.3565C296.382 79.3367 296.349 79.3119 296.318 79.2822C296.162 79.1223 296.179 78.8782 296.357 78.7382C297.222 78.0542 298.064 77.3293 298.861 76.582C299.025 76.4284 299.295 76.4234 299.467 76.5709C299.638 76.7183 299.644 76.9625 299.48 77.1161C298.667 77.8794 297.805 78.6192 296.923 79.3181C296.78 79.4309 296.573 79.442 296.417 79.3565ZM302.592 73.2449C302.582 73.24 302.574 73.2338 302.564 73.2288C302.373 73.1037 302.329 72.8633 302.468 72.6898C303.063 71.9475 303.634 71.1768 304.163 70.3986C304.233 70.2945 304.304 70.1904 304.374 70.0863C304.495 69.9029 304.758 69.8434 304.962 69.9525C304.964 69.9537 304.965 69.9537 304.967 69.955C305.166 70.0652 305.232 70.3007 305.111 70.4816C305.04 70.5882 304.968 70.6947 304.896 70.8013C304.355 71.5969 303.773 72.3837 303.165 73.1409C303.031 73.3069 302.782 73.349 302.592 73.2449ZM307.089 66.0491C306.911 65.9512 306.834 65.748 306.918 65.5708C307.365 64.6191 307.773 63.6364 308.13 62.6488C308.203 62.4456 308.445 62.3353 308.67 62.401C308.894 62.4691 309.018 62.6848 308.945 62.8868C308.58 63.8942 308.164 64.8979 307.708 65.8694C307.615 66.0665 307.365 66.1582 307.145 66.0751C307.128 66.0677 307.108 66.059 307.089 66.0491ZM309.702 58.1333C309.556 58.0528 309.472 57.8979 309.504 57.7355C309.708 56.7132 309.865 55.6748 309.971 54.6463C309.993 54.4344 310.202 54.2783 310.438 54.2981C310.674 54.3179 310.847 54.505 310.825 54.7182C310.718 55.7677 310.557 56.8285 310.348 57.8718C310.307 58.0813 310.084 58.2213 309.851 58.1841C309.797 58.1754 309.748 58.1581 309.702 58.1333Z" fill="#91B3FA"/>
<path d="M240.946 78.3789C240.92 78.3653 240.895 78.3479 240.873 78.3281C240.451 77.9663 240.038 77.5958 239.645 77.229C239.481 77.0753 239.485 76.8312 239.656 76.6837C239.827 76.535 240.098 76.5412 240.262 76.6936C240.648 77.053 241.052 77.4161 241.465 77.7705C241.636 77.918 241.643 78.1621 241.479 78.3157C241.337 78.4508 241.114 78.4719 240.946 78.3789Z" fill="#91B3FA"/>
<path d="M228.206 51.8137C228.083 51.7456 228 51.6254 228 51.4854C227.998 50.9711 228.009 50.4469 228.029 49.9265C228.038 49.7134 228.237 49.5473 228.475 49.556C228.712 49.5647 228.896 49.7431 228.887 49.9562C228.865 50.4655 228.855 50.9798 228.858 51.4829C228.859 51.696 228.667 51.8695 228.43 51.8707C228.348 51.8707 228.271 51.8497 228.206 51.8137Z" fill="#91B3FA"/>
<path d="M228.83 45.2634C228.684 45.1829 228.6 45.028 228.631 44.8669C228.831 43.8458 229.083 42.8161 229.38 41.8086C229.44 41.6029 229.675 41.479 229.905 41.5336C230.134 41.5893 230.271 41.7987 230.211 42.0057C229.921 42.9933 229.675 44.002 229.478 45.002C229.436 45.2114 229.214 45.3514 228.98 45.3143C228.925 45.3056 228.874 45.2882 228.83 45.2634ZM231.359 37.4641C231.182 37.3662 231.105 37.1655 231.187 36.987C231.63 36.0242 232.124 35.0688 232.654 34.1469C232.763 33.9573 233.022 33.8842 233.233 33.9821C233.447 34.0812 233.527 34.3129 233.418 34.5025C232.898 35.4059 232.415 36.3414 231.98 37.2844C231.89 37.4815 231.639 37.5744 231.42 37.4926C231.397 37.4839 231.378 37.4753 231.359 37.4641ZM235.721 30.3501C235.713 30.3451 235.704 30.3414 235.698 30.3364C235.505 30.2137 235.458 29.9721 235.594 29.7986C236.261 28.9498 236.977 28.1158 237.722 27.319C237.875 27.1555 238.145 27.1356 238.327 27.272C238.509 27.4095 238.533 27.6524 238.38 27.816C237.649 28.5966 236.949 29.4132 236.296 30.2447C236.163 30.4095 235.911 30.4554 235.721 30.3501ZM241.715 24.2719C241.68 24.2533 241.649 24.2298 241.62 24.2013C241.461 24.0427 241.475 23.7998 241.65 23.6561C242.507 22.9584 243.41 22.2855 244.331 21.656C244.52 21.5272 244.788 21.5594 244.932 21.7292C245.075 21.8989 245.039 22.1406 244.85 22.2694C243.949 22.8865 243.065 23.5458 242.225 24.2286C242.083 24.3463 241.873 24.3587 241.715 24.2719ZM249.041 19.5197C248.981 19.4863 248.93 19.4404 248.893 19.3809C248.775 19.1951 248.848 18.9596 249.054 18.8555C250.06 18.3425 251.103 17.8629 252.153 17.4268C252.368 17.3375 252.623 17.4218 252.723 17.6164C252.822 17.8097 252.728 18.0389 252.513 18.1281C251.484 18.5544 250.462 19.0253 249.477 19.5271C249.336 19.5978 249.17 19.5903 249.041 19.5197ZM257.341 16.314C257.254 16.2669 257.187 16.1913 257.155 16.0971C257.086 15.8927 257.214 15.677 257.44 15.6151C258.547 15.3115 259.681 15.0476 260.811 14.8295C261.043 14.7849 261.272 14.9174 261.321 15.1256C261.371 15.3338 261.224 15.5395 260.992 15.5841C259.887 15.7972 258.776 16.0562 257.691 16.3536C257.567 16.3883 257.442 16.3697 257.341 16.314ZM266.215 14.8183C266.101 14.7551 266.022 14.6461 266.011 14.5172C265.994 14.3053 266.171 14.1194 266.407 14.1033C267.562 14.0252 268.733 13.9918 269.888 14.0017C270.125 14.0042 270.316 14.1789 270.313 14.3908C270.31 14.6039 270.116 14.7749 269.879 14.7725C268.747 14.7625 267.601 14.796 266.47 14.8716C266.378 14.8803 266.29 14.8592 266.215 14.8183ZM275.241 15.1132C275.099 15.0352 275.015 14.8852 275.04 14.7278C275.075 14.5172 275.294 14.371 275.528 14.4032C276.669 14.5556 277.82 14.7526 278.949 14.9906C279.18 15.0376 279.322 15.2471 279.268 15.454C279.215 15.6609 278.983 15.7898 278.753 15.7415C277.646 15.5085 276.519 15.3152 275.403 15.1665C275.343 15.1578 275.29 15.1405 275.241 15.1132ZM283.981 17.1702C283.807 17.0748 283.728 16.8803 283.804 16.7031C283.888 16.5036 284.136 16.4044 284.358 16.48C285.443 16.853 286.518 17.2706 287.557 17.7204C287.769 17.8159 287.86 18.0439 287.757 18.2359C287.654 18.428 287.397 18.5086 287.184 18.4156C286.166 17.9745 285.112 17.5655 284.051 17.2012C284.028 17.1938 284.003 17.1826 283.981 17.1702ZM294.802 22.7143C294.787 22.7056 294.773 22.6969 294.758 22.687C293.871 22.0538 292.942 21.4466 291.999 20.8828C291.802 20.7651 291.748 20.5259 291.879 20.3475C292.01 20.1703 292.275 20.117 292.475 20.2397C293.438 20.8146 294.385 21.4342 295.292 22.0823C295.478 22.2149 295.508 22.4578 295.361 22.6238C295.225 22.7787 294.984 22.8134 294.802 22.7143Z" fill="#91B3FA"/>
<path d="M300.113 27.2595C300.077 27.2397 300.044 27.2149 300.014 27.1851C299.639 26.801 299.253 26.4231 298.867 26.06C298.703 25.9063 298.71 25.6622 298.881 25.5148C299.053 25.3673 299.323 25.3722 299.487 25.5271C299.881 25.8977 300.275 26.2843 300.657 26.6758C300.813 26.8357 300.796 27.0798 300.619 27.2198C300.475 27.3338 300.27 27.345 300.113 27.2595Z" fill="#91B3FA"/>
<path d="M295.624 35.4183C295.525 35.251 295.319 35.1593 295.113 35.1878L289.188 36.0268C287.344 34.1308 285.151 32.484 282.66 31.1804L282.451 25.7937C282.444 25.6053 282.303 25.4405 282.102 25.386L275.222 23.4913C275.021 23.4356 274.803 23.5012 274.679 23.6537L271.151 28.0106C268.275 27.8371 265.433 28.0961 262.725 28.7392L258.338 25.0614C258.183 24.9325 257.956 24.9052 257.77 24.9944L251.415 28.0292C251.229 28.1184 251.127 28.303 251.159 28.4889L252.092 33.8161C249.983 35.4741 248.151 37.4456 246.701 39.6848L240.71 39.8731C240.501 39.8793 240.317 40.0057 240.257 40.1866L238.15 46.3726C238.088 46.5535 238.161 46.7493 238.33 46.8608L243.176 50.0331C242.983 52.6192 243.271 55.1744 243.986 57.6093L239.894 61.5536C239.751 61.6924 239.721 61.8969 239.82 62.0642L243.194 67.778C243.293 67.9452 243.498 68.0369 243.705 68.0084L249.63 67.1695C251.473 69.0655 253.667 70.7123 256.157 72.0159L256.365 77.4026C256.372 77.5909 256.513 77.7557 256.714 77.8103L263.594 79.705C263.795 79.7607 264.013 79.695 264.137 79.5414L267.665 75.1845C270.542 75.358 273.384 75.099 276.092 74.4558L280.479 78.1337C280.633 78.2626 280.86 78.2898 281.047 78.2006L287.401 75.1671C287.588 75.0779 287.69 74.8933 287.658 74.7074L286.725 69.3802C288.833 67.7222 290.665 65.7507 292.115 63.5115L298.106 63.3244C298.316 63.3182 298.499 63.1918 298.56 63.0109L300.667 56.825C300.729 56.644 300.656 56.4482 300.486 56.3367L295.64 53.1644C295.833 50.5783 295.545 48.0231 294.83 45.5882L298.921 41.6439C299.064 41.5051 299.094 41.3006 298.995 41.1334L295.624 35.4183Z" fill="#00ADEF"/>
<path d="M265.747 56.9971C265.178 56.6836 264.656 56.2958 264.195 55.8385C262.936 54.5857 262.292 52.9673 262.387 51.2808C262.481 49.5943 263.3 48.0416 264.693 46.9078C266.086 45.774 267.886 45.1965 269.762 45.2808C271.638 45.365 273.366 46.1011 274.626 47.3539C275.885 48.6067 276.529 50.2251 276.434 51.9116C276.34 53.5981 275.522 55.1508 274.128 56.2846C272.735 57.4184 270.935 57.9959 269.059 57.9116C267.868 57.8583 266.738 57.5424 265.747 56.9971ZM272.404 47.1841C271.595 46.7393 270.672 46.4815 269.697 46.4369C268.165 46.3675 266.694 46.8397 265.556 47.7653C264.417 48.691 263.749 49.9599 263.673 51.3378C263.596 52.7158 264.121 54.038 265.15 55.0615C266.18 56.0851 267.591 56.6861 269.124 56.7542C270.656 56.8236 272.127 56.3515 273.265 55.4259C274.404 54.5002 275.072 53.2313 275.148 51.8533C275.225 50.4754 274.7 49.1532 273.671 48.1296C273.296 47.7579 272.868 47.4406 272.404 47.1841ZM269.73 45.8595L269.734 45.862L269.73 45.8595Z" fill="#E9F0FF"/>
<path d="M259.888 65.4844C253.047 61.7223 249.612 54.1361 252.067 46.9303C252.52 45.6007 253.147 44.3616 253.919 43.2265C258.103 37.0752 266.542 33.986 274.556 36.1917C274.7 36.2314 274.845 36.2735 274.987 36.3156C275.95 36.6044 276.884 36.965 277.772 37.3912C277.875 37.4408 277.979 37.4916 278.082 37.5424L277.454 38.5536C276.423 38.0356 275.321 37.6131 274.179 37.2983C274.168 37.2946 274.157 37.2921 274.147 37.2896C265.342 34.8819 255.995 39.3541 253.299 47.2686C250.599 55.1931 255.573 63.6145 264.388 66.042C271.829 68.0916 279.664 65.2229 283.549 59.5104C284.266 58.4558 284.849 57.3059 285.269 56.0717C286.157 53.467 286.242 50.6987 285.519 48.0679L286.769 47.7891C287.55 50.6231 287.458 53.6033 286.501 56.41C286.048 57.7396 285.421 58.9788 284.649 60.1138C280.465 66.2651 272.026 69.3543 264.012 67.1486C262.53 66.7422 261.151 66.1783 259.888 65.4844Z" fill="#E9F0FF"/>
<path d="M111.887 129.497L107.864 133.064C102.152 132.571 97.7502 130.973 94.3694 128.946C96.4036 124.397 98.4696 121.7 100.093 120.119C105.412 126.841 111.887 129.497 111.887 129.497Z" fill="url(#paint36_linear_460_473)"/>
<path d="M83.8811 116.147L93.377 102.799C94 110.328 96.8295 115.989 100.094 120.116C98.4709 121.697 96.405 124.395 94.3707 128.944C85.9333 123.888 83.8811 116.147 83.8811 116.147Z" fill="url(#paint37_linear_460_473)"/>
<path d="M73.7829 221.646C78.5171 221.842 83.0997 221.719 86.1593 221.578C83.3739 219.795 76.9556 215.916 71.586 214.372L67.8993 214.174C67.8993 214.174 66.6506 215.881 66.2041 219.791C66.8147 220.476 68.6008 221.432 73.7829 221.646Z" fill="url(#paint38_linear_460_473)"/>
<path d="M86.1966 221.603C86.1842 221.596 86.1704 221.587 86.158 221.578C83.0984 221.72 78.5158 221.842 73.7816 221.647C68.5995 221.432 66.8133 220.477 66.2028 219.792C66.1821 219.971 66.1615 220.151 66.1449 220.34C66.0677 221.198 66.7761 221.951 67.7312 222.016C71.6082 222.28 81.2212 222.876 85.8575 222.658C86.4681 222.629 86.6955 221.923 86.1966 221.603Z" fill="url(#paint39_linear_460_473)"/>
<path d="M39.9231 220.508C39.5757 218.509 39.0203 215.62 38.5903 214.882C37.9164 213.723 35.6092 214.882 35.6092 214.882C35.6092 214.882 33.9898 215.561 33.2442 216.692C32.7687 217.413 31.4553 219.465 30.565 220.859C30.463 221.019 30.4203 221.19 30.4258 221.355L39.6626 221.646C39.8886 221.32 39.9947 220.924 39.9231 220.508Z" fill="url(#paint40_linear_460_473)"/>
<path d="M30.4255 221.356C30.4407 221.831 30.8597 222.261 31.4496 222.276L38.0305 222.438C38.7252 222.456 39.3274 222.131 39.6637 221.646L30.4255 221.356Z" fill="url(#paint41_linear_460_473)"/>
<path d="M40.6286 208.241C40.5486 208.48 39.3551 213.684 38.8328 215.966C38.688 216.597 38.0554 217.04 37.3401 217.008C36.9487 216.991 36.4939 216.959 36.0171 216.904C35.1708 216.806 34.5272 216.171 34.4941 215.404C34.4101 213.404 34.3673 209.563 35.1846 208.075C36.312 206.022 40.6286 208.241 40.6286 208.241Z" fill="url(#paint42_linear_460_473)"/>
<path d="M67.1731 209.731C67.6844 209.716 66.9691 212.107 67.7437 214.457C67.9187 214.987 68.3597 215.404 68.9744 215.41C69.3727 215.415 69.8455 215.407 70.3251 215.373C71.0459 215.321 71.6261 214.818 71.6923 214.171L72.3221 208.075L67.1731 209.731Z" fill="url(#paint43_linear_460_473)"/>
<path d="M81.4927 144.932C81.2639 145.932 73.2 188.226 72.7107 210.112C72.7024 210.479 72.402 210.786 71.9982 210.837C70.9742 210.966 68.9799 211.131 67.0476 210.809C66.783 210.764 66.5832 210.568 66.5666 210.327C66.2841 206.249 64.0183 171.765 66.794 155.533C66.794 155.533 43.8633 198.925 40.3874 210.89C40.3033 211.182 40.0056 211.377 39.6707 211.361C38.6881 211.314 36.6469 211.156 35.0248 210.619C34.4431 210.427 34.1124 209.877 34.2598 209.337C36.2017 202.177 49.8116 152.843 59.0526 141.973L81.4927 144.932Z" fill="url(#paint44_linear_460_473)"/>
<path d="M66.793 155.803C66.7172 155.803 66.6414 155.777 66.5822 155.726C66.4636 155.622 66.4609 155.45 66.578 155.343L69.6487 152.521C69.7645 152.414 69.9561 152.411 70.0746 152.517C70.1931 152.621 70.1959 152.793 70.0787 152.9L67.008 155.723C66.9488 155.776 66.8716 155.803 66.793 155.803Z" fill="url(#paint45_linear_460_473)"/>
<path d="M94.601 91.9797C88.7105 90.5918 77.846 88.4196 69.1963 88.883C67.2103 88.9896 65.6185 90.4022 65.5055 92.1879C64.1989 112.899 62.4141 131.279 59.0513 141.971C66.6094 144.66 74.1014 145.908 81.4928 144.931C87.0305 134.266 91.8721 121.955 96.0081 107.974C96.0081 107.974 98.4352 96.8224 96.0784 93.1049C95.7105 92.5262 95.2281 92.1271 94.601 91.9797Z" fill="url(#paint46_linear_460_473)"/>
<path d="M80.4331 77.4717C80.4331 77.4717 78.946 85.4494 78.5022 89.1397C78.4305 89.7394 78.7792 90.3057 79.376 90.5821C81.0009 91.3342 84.4712 92.5461 88.2531 91.4346C88.876 91.2512 89.284 90.7097 89.2702 90.1211L89.0111 79.4705L80.4331 77.4717Z" fill="url(#paint47_linear_460_473)"/>
<path d="M90.1328 68.6316C90.1328 68.6316 93.0022 74.5585 93.1952 77.6701C93.3881 80.7816 94.1337 82.8002 90.1328 83.426C86.1318 84.053 82.7621 82.26 80.9359 79.162C80.9359 79.162 78.0747 74.3875 78.717 72.4309C79.3592 70.4755 90.1328 68.6316 90.1328 68.6316Z" fill="url(#paint48_linear_460_473)"/>
<path d="M82.3033 76.9338H82.8091C82.8091 76.9338 80.7253 73.0911 82.5569 72.4158C84.3886 71.7404 91.6408 70.4108 93.2064 68.0973C94.7156 65.8668 93.369 62.9845 91.3568 62.179C91.23 62.1282 91.0798 62.1815 91.0137 62.293L90.8469 62.5768C90.7325 62.7713 90.4142 62.7416 90.3452 62.5309C90.2805 62.3302 89.98 62.2868 89.8587 62.464C89.3791 63.1555 88.0822 64.2806 84.6036 64.8581C79.6668 65.6772 76.4032 67.474 76.3233 70.5409C76.3177 70.7354 76.0876 70.842 75.9029 70.7416C75.539 70.5421 74.9547 70.448 74.176 71.0378C72.8212 72.0626 73.3752 74.7206 76.3467 76.9077C76.4873 77.0118 76.4873 77.2101 76.3343 77.2993C75.7954 77.6141 74.9933 78.365 77.073 79.365C79.201 80.3886 80.4607 80.277 80.9361 80.1667C81.0643 80.137 81.1498 80.0329 81.1415 79.914L80.9541 77.1952C80.9444 77.0552 81.0684 76.9362 81.2256 76.9362H82.3033V76.9338Z" fill="url(#paint49_linear_460_473)"/>
<path d="M82.4271 77.5028C82.4271 77.5028 81.3329 73.7171 79.4447 74.7778C77.5566 75.8398 80.4246 79.0195 81.942 79.162L82.4271 77.5028Z" fill="url(#paint50_linear_460_473)"/>
<path d="M21.1657 139.103L17.2901 139.984C10.6389 141.496 6.16656 145.989 7.30083 150.021L8.64873 154.814C9.78162 158.847 16.0925 160.89 22.7438 159.378L26.6193 158.497C26.8756 158.439 27.1306 158.376 27.3842 158.308L141.032 127.733L138.096 117.291L21.9402 138.944C21.6811 138.991 21.4234 139.045 21.1657 139.103ZM22.8347 143.887C27.8418 142.75 32.5112 143.995 33.2623 146.67C34.0148 149.346 30.5651 152.436 25.5581 153.575C20.551 154.713 15.8816 153.467 15.1305 150.792C14.378 148.117 17.8276 145.025 22.8347 143.887Z" fill="url(#paint51_linear_460_473)"/>
<path d="M175.883 103.101L153.395 108.211C151.793 108.576 150.472 109.587 149.814 110.95L146.45 117.935C145.489 119.929 146.143 122.254 148.042 123.598L154.694 128.307C155.993 129.225 157.691 129.55 159.292 129.187L181.78 124.077C185.172 123.306 188.054 126.489 186.453 129.286C182.621 135.978 175.591 141.269 166.644 143.303C150.47 146.979 136.157 138.168 132.225 124.182C128.293 110.195 136.23 96.3279 152.404 92.6525C161.351 90.619 170.334 92.2721 177.242 96.5224C180.129 98.2981 179.275 102.33 175.883 103.101Z" fill="url(#paint52_linear_460_473)"/>
<path d="M176.419 105.007L153.931 110.118C152.329 110.482 151.006 111.493 150.35 112.856L146.986 119.841C146.025 121.835 146.679 124.16 148.578 125.504L155.23 130.213C156.529 131.131 158.227 131.456 159.828 131.093L182.316 125.981C185.708 125.211 188.59 128.394 186.989 131.191C183.157 137.882 176.127 143.174 167.18 145.207C151.006 148.882 136.693 140.073 132.761 126.085C128.829 112.099 136.768 98.2314 152.94 94.556C161.887 92.5226 170.87 94.1756 177.778 98.426C180.664 100.204 179.811 104.236 176.419 105.007Z" fill="#00ADEF"/>
<path d="M21.5929 140.623L17.7174 141.504C11.0661 143.016 6.5938 147.509 7.72808 151.541L9.07597 156.335C10.2089 160.367 16.5197 162.41 23.171 160.898L27.0465 160.017C27.3029 159.959 27.5579 159.896 27.8115 159.828L141.459 129.254L138.524 118.811L22.3675 140.465C22.1084 140.512 21.8507 140.565 21.5929 140.623ZM23.262 145.408C28.269 144.27 32.9384 145.515 33.6896 148.191C34.4421 150.866 30.9924 153.957 25.9853 155.095C20.9783 156.233 16.3089 154.988 15.5577 152.312C14.8052 149.636 18.2549 146.545 23.262 145.408Z" fill="#00ADEF"/>
<path d="M50.2626 119.563C47.3504 126.912 48.9905 134.789 48.9905 134.789L45.1508 135.71C45.1508 135.71 40.1906 130.405 41.3249 118.634C44.8696 118.148 48.1897 118.896 50.2626 119.563Z" fill="url(#paint53_linear_460_473)"/>
<path d="M41.3262 118.635C41.453 117.312 41.6542 115.91 41.9519 114.422C44.5457 101.441 63.0565 91.4542 67.4117 89.2671C67.8169 89.0638 68.3089 89.3377 68.2951 89.7553L67.6763 107.402C57.3672 108.648 52.4884 113.951 50.2625 119.565C48.1897 118.896 44.8696 118.148 41.3262 118.635Z" fill="url(#paint54_linear_460_473)"/>
<path d="M119.986 135.971C120.706 135.793 121.29 135.332 121.595 134.72C122.185 133.533 122.848 131.629 121.431 131.051C119.319 130.188 115.48 133.726 115.48 133.726L113.604 136.459L111.888 137.209C113.459 137.598 116.49 136.95 119.986 135.971Z" fill="url(#paint55_linear_460_473)"/>
<path d="M48.734 133.063H53.4806C53.4806 133.063 49.6298 135.14 49.5016 137.323C49.3735 139.507 51.0301 144.031 51.806 145.262C52.6536 146.609 41.0573 143.257 45.1506 133.063H48.734Z" fill="url(#paint56_linear_460_473)"/>
<path d="M283.181 342.253V345.911C283.181 346.848 282.646 347.621 281.938 347.705L218.458 352.878C217.987 352.936 217.514 352.926 217.046 352.853C216.923 352.833 216.802 352.809 216.679 352.782L172.449 345.286C171.979 345.177 171.634 344.624 171.634 343.982V340.117L218.562 334.887L224.603 332.317L230.609 333.096L234.156 332.485L242.263 334.606L283.181 342.253Z" fill="url(#paint57_linear_460_473)"/>
<path d="M283.181 342.253V345.911C283.181 346.848 282.646 347.621 281.938 347.705L218.461 352.878C217.99 352.936 217.403 352.922 217.052 352.852V333.145L224.606 332.315L230.61 333.093L234.157 332.482L242.263 334.604L283.181 342.253Z" fill="url(#paint58_linear_460_473)"/>
<path d="M234.157 332.483L171.635 339.946L216.732 347.583C217.287 347.71 217.851 347.74 218.409 347.671L283.183 342.254L234.157 332.483Z" fill="url(#paint59_linear_460_473)"/>
<path d="M257.075 339.223C257.075 341.901 247.704 343.982 234.768 344.522C231.503 344.657 228.012 344.694 224.39 344.62C206.587 344.25 192.282 341.273 192.282 337.977C192.282 337.902 192.292 337.74 192.307 337.74H192.282L192.356 337.581C192.373 337.527 192.396 337.478 192.423 337.428L196.528 327.777L201.487 316.131L208.431 299.81L213.745 287.317L220.356 271.783C221.183 269.837 222.716 268.629 224.372 268.629C224.598 268.629 224.818 268.65 225.035 268.695C226.434 268.968 227.683 270.101 228.4 271.788L235.066 287.431L240.39 300.089L247.415 316.737V316.741L252.459 328.703V328.706L252.539 328.714L256.74 338.435C256.924 338.692 257.075 338.957 257.075 339.223Z" fill="url(#paint60_linear_460_473)"/>
<path d="M252.543 328.71C248.49 329.928 242.009 330.805 234.253 331.131C231.126 331.264 227.819 331.306 224.372 331.248C212.411 331.043 202.04 329.659 196.52 327.777L201.483 316.13C207.291 317.305 215.385 318.096 224.382 318.218C227.291 318.258 230.126 318.224 232.825 318.126C238.506 317.924 243.514 317.433 247.462 316.737L252.463 328.699V328.702L252.543 328.71Z" fill="white"/>
<path d="M240.453 300.086C237.359 300.388 233.958 300.591 230.35 300.684C228.416 300.736 226.424 300.752 224.39 300.735C218.569 300.684 213.122 300.349 208.43 299.81L213.745 287.317C217.07 287.552 220.654 287.687 224.39 287.707C225.711 287.715 227.012 287.707 228.288 287.682C230.631 287.643 232.901 287.559 235.067 287.428L240.453 300.086Z" fill="white"/>
<defs>
<linearGradient id="paint0_linear_460_473" x1="408.373" y1="398.157" x2="158.211" y2="97.8427" gradientUnits="userSpaceOnUse">
<stop stop-color="#DAE3FE"/>
<stop offset="1" stop-color="#E9EFFD"/>
</linearGradient>
<linearGradient id="paint1_linear_460_473" x1="206.721" y1="168.343" x2="192.52" y2="341.455" gradientUnits="userSpaceOnUse">
<stop stop-color="#09005D"/>
<stop offset="1" stop-color="#1A0F91"/>
</linearGradient>
<linearGradient id="paint2_linear_460_473" x1="242.522" y1="111.963" x2="261.99" y2="111.963" gradientUnits="userSpaceOnUse">
<stop stop-color="#DAE3FE"/>
<stop offset="1" stop-color="#E9EFFD"/>
</linearGradient>
<linearGradient id="paint3_linear_460_473" x1="314.144" y1="217.158" x2="328.181" y2="258.53" gradientUnits="userSpaceOnUse">
<stop stop-color="#FEBBBA"/>
<stop offset="1" stop-color="#FF928E"/>
</linearGradient>
<linearGradient id="paint4_linear_460_473" x1="427.161" y1="-15.5752" x2="400.199" y2="59.8234" gradientUnits="userSpaceOnUse">
<stop stop-color="#FF928E"/>
<stop offset="1" stop-color="#FE7062"/>
</linearGradient>
<linearGradient id="paint5_linear_460_473" x1="350.502" y1="318.77" x2="330.546" y2="318.77" gradientUnits="userSpaceOnUse">
<stop stop-color="#09005D"/>
<stop offset="1" stop-color="#1A0F91"/>
</linearGradient>
<linearGradient id="paint6_linear_460_473" x1="340.524" y1="282.404" x2="340.524" y2="319.542" gradientUnits="userSpaceOnUse">
<stop stop-color="#4F52FF"/>
<stop offset="1" stop-color="#4042E2"/>
</linearGradient>
<linearGradient id="paint7_linear_460_473" x1="385.557" y1="318.815" x2="376.213" y2="318.815" gradientUnits="userSpaceOnUse">
<stop stop-color="#09005D"/>
<stop offset="1" stop-color="#1A0F91"/>
</linearGradient>
<linearGradient id="paint8_linear_460_473" x1="384.317" y1="291.151" x2="380.916" y2="330.878" gradientUnits="userSpaceOnUse">
<stop stop-color="#4F52FF"/>
<stop offset="1" stop-color="#4042E2"/>
</linearGradient>
<linearGradient id="paint9_linear_460_473" x1="381.605" y1="313.023" x2="375.542" y2="313.023" gradientUnits="userSpaceOnUse">
<stop stop-color="#FEBBBA"/>
<stop offset="1" stop-color="#FF928E"/>
</linearGradient>
<linearGradient id="paint10_linear_460_473" x1="349.487" y1="312.666" x2="344.434" y2="312.666" gradientUnits="userSpaceOnUse">
<stop stop-color="#FEBBBA"/>
<stop offset="1" stop-color="#FF928E"/>
</linearGradient>
<linearGradient id="paint11_linear_460_473" x1="365.938" y1="257.813" x2="400.55" y2="134.246" gradientUnits="userSpaceOnUse">
<stop stop-color="#4F52FF"/>
<stop offset="1" stop-color="#4042E2"/>
</linearGradient>
<linearGradient id="paint12_linear_460_473" x1="348.319" y1="256.279" x2="353.79" y2="222.284" gradientUnits="userSpaceOnUse">
<stop stop-color="#4F52FF"/>
<stop offset="1" stop-color="#4042E2"/>
</linearGradient>
<linearGradient id="paint13_linear_460_473" x1="314.685" y1="218.272" x2="355.487" y2="220.85" gradientUnits="userSpaceOnUse">
<stop stop-color="#FF928E"/>
<stop offset="1" stop-color="#FE7062"/>
</linearGradient>
<linearGradient id="paint14_linear_460_473" x1="334.4" y1="199.692" x2="332.378" y2="185.822" gradientUnits="userSpaceOnUse">
<stop stop-color="#FEBBBA"/>
<stop offset="1" stop-color="#FF928E"/>
</linearGradient>
<linearGradient id="paint15_linear_460_473" x1="314.768" y1="212.692" x2="299.759" y2="257.314" gradientUnits="userSpaceOnUse">
<stop stop-color="#FEBBBA"/>
<stop offset="1" stop-color="#FF928E"/>
</linearGradient>
<linearGradient id="paint16_linear_460_473" x1="358.312" y1="207.192" x2="325.848" y2="247.386" gradientUnits="userSpaceOnUse">
<stop stop-color="#FEBBBA"/>
<stop offset="1" stop-color="#FF928E"/>
</linearGradient>
<linearGradient id="paint17_linear_460_473" x1="315.714" y1="202.001" x2="356.515" y2="204.58" gradientUnits="userSpaceOnUse">
<stop stop-color="#FF928E"/>
<stop offset="1" stop-color="#FE7062"/>
</linearGradient>
<linearGradient id="paint18_linear_460_473" x1="360.962" y1="209.332" x2="328.498" y2="249.526" gradientUnits="userSpaceOnUse">
<stop stop-color="#FEBBBA"/>
<stop offset="1" stop-color="#FF928E"/>
</linearGradient>
<linearGradient id="paint19_linear_460_473" x1="323.885" y1="181.638" x2="337.243" y2="172.577" gradientUnits="userSpaceOnUse">
<stop stop-color="#FEBBBA"/>
<stop offset="1" stop-color="#FF928E"/>
</linearGradient>
<linearGradient id="paint20_linear_460_473" x1="345.626" y1="165.624" x2="328.793" y2="180.412" gradientUnits="userSpaceOnUse">
<stop stop-color="#09005D"/>
<stop offset="1" stop-color="#1A0F91"/>
</linearGradient>
<linearGradient id="paint21_linear_460_473" x1="327.619" y1="184.546" x2="339.637" y2="176.393" gradientUnits="userSpaceOnUse">
<stop stop-color="#FEBBBA"/>
<stop offset="1" stop-color="#FF928E"/>
</linearGradient>
<linearGradient id="paint22_linear_460_473" x1="90.0005" y1="57.5398" x2="91.284" y2="57.5398" gradientUnits="userSpaceOnUse">
<stop stop-color="#FEBBBA"/>
<stop offset="1" stop-color="#FF928E"/>
</linearGradient>
<linearGradient id="paint23_linear_460_473" x1="90.1173" y1="25.125" x2="185.937" y2="25.125" gradientUnits="userSpaceOnUse">
<stop stop-color="#FEBBBA"/>
<stop offset="1" stop-color="#FF928E"/>
</linearGradient>
<linearGradient id="paint24_linear_460_473" x1="190.578" y1="16.2015" x2="193.303" y2="16.2015" gradientUnits="userSpaceOnUse">
<stop stop-color="#FEBBBA"/>
<stop offset="1" stop-color="#FF928E"/>
</linearGradient>
<linearGradient id="paint25_linear_460_473" x1="208.706" y1="54.8222" x2="209.877" y2="54.8222" gradientUnits="userSpaceOnUse">
<stop stop-color="#FEBBBA"/>
<stop offset="1" stop-color="#FF928E"/>
</linearGradient>
<linearGradient id="paint26_linear_460_473" x1="111.606" y1="84.9099" x2="209.099" y2="84.9099" gradientUnits="userSpaceOnUse">
<stop stop-color="#FEBBBA"/>
<stop offset="1" stop-color="#FF928E"/>
</linearGradient>
<linearGradient id="paint27_linear_460_473" x1="104.654" y1="89.8535" x2="107.295" y2="89.8535" gradientUnits="userSpaceOnUse">
<stop stop-color="#FEBBBA"/>
<stop offset="1" stop-color="#FF928E"/>
</linearGradient>
<linearGradient id="paint28_linear_460_473" x1="104.81" y1="53.5176" x2="195.261" y2="53.5176" gradientUnits="userSpaceOnUse">
<stop stop-color="#FF928E"/>
<stop offset="1" stop-color="#FE7062"/>
</linearGradient>
<linearGradient id="paint29_linear_460_473" x1="184.737" y1="87.4788" x2="187.297" y2="87.4788" gradientUnits="userSpaceOnUse">
<stop stop-color="#FEBBBA"/>
<stop offset="1" stop-color="#FF928E"/>
</linearGradient>
<linearGradient id="paint30_linear_460_473" x1="192.317" y1="102.178" x2="221.681" y2="102.178" gradientUnits="userSpaceOnUse">
<stop stop-color="#FEBBBA"/>
<stop offset="1" stop-color="#FF928E"/>
</linearGradient>
<linearGradient id="paint31_linear_460_473" x1="216.583" y1="123.585" x2="218.36" y2="123.585" gradientUnits="userSpaceOnUse">
<stop stop-color="#FEBBBA"/>
<stop offset="1" stop-color="#FF928E"/>
</linearGradient>
<linearGradient id="paint32_linear_460_473" x1="198.291" y1="135.116" x2="200.888" y2="135.116" gradientUnits="userSpaceOnUse">
<stop stop-color="#FEBBBA"/>
<stop offset="1" stop-color="#FF928E"/>
</linearGradient>
<linearGradient id="paint33_linear_460_473" x1="166.108" y1="119.306" x2="193.314" y2="119.306" gradientUnits="userSpaceOnUse">
<stop stop-color="#FEBBBA"/>
<stop offset="1" stop-color="#FF928E"/>
</linearGradient>
<linearGradient id="paint34_linear_460_473" x1="170.129" y1="97.5277" x2="171.974" y2="97.5277" gradientUnits="userSpaceOnUse">
<stop stop-color="#FEBBBA"/>
<stop offset="1" stop-color="#FF928E"/>
</linearGradient>
<linearGradient id="paint35_linear_460_473" x1="172.97" y1="111.049" x2="215.313" y2="111.049" gradientUnits="userSpaceOnUse">
<stop stop-color="#FF928E"/>
<stop offset="1" stop-color="#FE7062"/>
</linearGradient>
<linearGradient id="paint36_linear_460_473" x1="106.559" y1="121.046" x2="89.6001" y2="171.031" gradientUnits="userSpaceOnUse">
<stop stop-color="#FEBBBA"/>
<stop offset="1" stop-color="#FF928E"/>
</linearGradient>
<linearGradient id="paint37_linear_460_473" x1="82.4957" y1="60.1011" x2="88.1451" y2="102.828" gradientUnits="userSpaceOnUse">
<stop stop-color="#4F52FF"/>
<stop offset="1" stop-color="#4042E2"/>
</linearGradient>
<linearGradient id="paint38_linear_460_473" x1="66.1394" y1="217.961" x2="86.4698" y2="217.961" gradientUnits="userSpaceOnUse">
<stop stop-color="#09005D"/>
<stop offset="1" stop-color="#1A0F91"/>
</linearGradient>
<linearGradient id="paint39_linear_460_473" x1="76.3047" y1="180.912" x2="76.3047" y2="218.748" gradientUnits="userSpaceOnUse">
<stop stop-color="#4F52FF"/>
<stop offset="1" stop-color="#4042E2"/>
</linearGradient>
<linearGradient id="paint40_linear_460_473" x1="30.4259" y1="218.007" x2="39.9453" y2="218.007" gradientUnits="userSpaceOnUse">
<stop stop-color="#09005D"/>
<stop offset="1" stop-color="#1A0F91"/>
</linearGradient>
<linearGradient id="paint41_linear_460_473" x1="31.688" y1="189.825" x2="35.1534" y2="230.296" gradientUnits="userSpaceOnUse">
<stop stop-color="#4F52FF"/>
<stop offset="1" stop-color="#4042E2"/>
</linearGradient>
<linearGradient id="paint42_linear_460_473" x1="34.4518" y1="212.107" x2="40.6284" y2="212.107" gradientUnits="userSpaceOnUse">
<stop stop-color="#FEBBBA"/>
<stop offset="1" stop-color="#FF928E"/>
</linearGradient>
<linearGradient id="paint43_linear_460_473" x1="67.1736" y1="211.743" x2="72.3216" y2="211.743" gradientUnits="userSpaceOnUse">
<stop stop-color="#FEBBBA"/>
<stop offset="1" stop-color="#FF928E"/>
</linearGradient>
<linearGradient id="paint44_linear_460_473" x1="91.1545" y1="98.5831" x2="59.3793" y2="212.247" gradientUnits="userSpaceOnUse">
<stop stop-color="#4F52FF"/>
<stop offset="1" stop-color="#4042E2"/>
</linearGradient>
<linearGradient id="paint45_linear_460_473" x1="79.9754" y1="140.582" x2="61.6266" y2="166.967" gradientUnits="userSpaceOnUse">
<stop stop-color="#09005D"/>
<stop offset="1" stop-color="#1A0F91"/>
</linearGradient>
<linearGradient id="paint46_linear_460_473" x1="120.148" y1="89.5551" x2="62.2379" y2="132.814" gradientUnits="userSpaceOnUse">
<stop stop-color="#4F52FF"/>
<stop offset="1" stop-color="#4042E2"/>
</linearGradient>
<linearGradient id="paint47_linear_460_473" x1="74.8386" y1="94.3569" x2="94.884" y2="68.8773" gradientUnits="userSpaceOnUse">
<stop stop-color="#FEBBBA"/>
<stop offset="1" stop-color="#FF928E"/>
</linearGradient>
<linearGradient id="paint48_linear_460_473" x1="77.6826" y1="82.8285" x2="62.5972" y2="95.6663" gradientUnits="userSpaceOnUse">
<stop stop-color="#FEBBBA"/>
<stop offset="1" stop-color="#FF928E"/>
</linearGradient>
<linearGradient id="paint49_linear_460_473" x1="79.2095" y1="64.9395" x2="92.1517" y2="83.4724" gradientUnits="userSpaceOnUse">
<stop stop-color="#09005D"/>
<stop offset="1" stop-color="#1A0F91"/>
</linearGradient>
<linearGradient id="paint50_linear_460_473" x1="88.6999" y1="71.4579" x2="73.6146" y2="84.2956" gradientUnits="userSpaceOnUse">
<stop stop-color="#FEBBBA"/>
<stop offset="1" stop-color="#FF928E"/>
</linearGradient>
<linearGradient id="paint51_linear_460_473" x1="7.12491" y1="138.583" x2="141.032" y2="138.583" gradientUnits="userSpaceOnUse">
<stop stop-color="#DAE3FE"/>
<stop offset="1" stop-color="#E9EFFD"/>
</linearGradient>
<linearGradient id="paint52_linear_460_473" x1="131.231" y1="117.961" x2="186.907" y2="117.961" gradientUnits="userSpaceOnUse">
<stop stop-color="#DAE3FE"/>
<stop offset="1" stop-color="#E9EFFD"/>
</linearGradient>
<linearGradient id="paint53_linear_460_473" x1="47.9365" y1="123.104" x2="28.0805" y2="155.003" gradientUnits="userSpaceOnUse">
<stop stop-color="#FEBBBA"/>
<stop offset="1" stop-color="#FF928E"/>
</linearGradient>
<linearGradient id="paint54_linear_460_473" x1="108.67" y1="74.1902" x2="50.7605" y2="117.449" gradientUnits="userSpaceOnUse">
<stop stop-color="#4F52FF"/>
<stop offset="1" stop-color="#4042E2"/>
</linearGradient>
<linearGradient id="paint55_linear_460_473" x1="120.962" y1="125.933" x2="104.003" y2="175.917" gradientUnits="userSpaceOnUse">
<stop stop-color="#FEBBBA"/>
<stop offset="1" stop-color="#FF928E"/>
</linearGradient>
<linearGradient id="paint56_linear_460_473" x1="56.759" y1="128.521" x2="36.6735" y2="160.788" gradientUnits="userSpaceOnUse">
<stop stop-color="#FEBBBA"/>
<stop offset="1" stop-color="#FF928E"/>
</linearGradient>
<linearGradient id="paint57_linear_460_473" x1="226.673" y1="345.933" x2="242.971" y2="270.054" gradientUnits="userSpaceOnUse">
<stop stop-color="#FF928E"/>
<stop offset="1" stop-color="#FE7062"/>
</linearGradient>
<linearGradient id="paint58_linear_460_473" x1="250.196" y1="339.056" x2="259.227" y2="260.798" gradientUnits="userSpaceOnUse">
<stop stop-color="#FF928E"/>
<stop offset="1" stop-color="#FE7062"/>
</linearGradient>
<linearGradient id="paint59_linear_460_473" x1="237.313" y1="276.847" x2="232.043" y2="319.136" gradientUnits="userSpaceOnUse">
<stop stop-color="#E1473D"/>
<stop offset="1" stop-color="#E9605A"/>
</linearGradient>
<linearGradient id="paint60_linear_460_473" x1="387.134" y1="-29.8899" x2="360.171" y2="45.5086" gradientUnits="userSpaceOnUse">
<stop stop-color="#FF928E"/>
<stop offset="1" stop-color="#FE7062"/>
</linearGradient>
</defs>
</svg>
