<svg width="17" height="17" viewBox="0 0 17 17" fill="none" xmlns="http://www.w3.org/2000/svg">
<path d="M14.8749 16.9997H4.95825C4.39467 16.9997 3.85416 16.7758 3.45565 16.3773C3.05713 15.9788 2.83325 15.4383 2.83325 14.8747V4.95801C2.83325 4.39442 3.05713 3.85392 3.45565 3.45541C3.85416 3.05689 4.39467 2.83301 4.95825 2.83301H14.8749C15.4385 2.83301 15.979 3.05689 16.3775 3.45541C16.776 3.85392 16.9999 4.39442 16.9999 4.95801V14.8747C16.9999 15.4383 16.776 15.9788 16.3775 16.3773C15.979 16.7758 15.4385 16.9997 14.8749 16.9997ZM4.95825 4.24967C4.77039 4.24967 4.59022 4.3243 4.45738 4.45714C4.32455 4.58998 4.24992 4.77015 4.24992 4.95801V14.8747C4.24992 15.0625 4.32455 15.2427 4.45738 15.3755C4.59022 15.5084 4.77039 15.583 4.95825 15.583H14.8749C15.0628 15.583 15.2429 15.5084 15.3758 15.3755C15.5086 15.2427 15.5833 15.0625 15.5833 14.8747V4.95801C15.5833 4.77015 15.5086 4.58998 15.3758 4.45714C15.2429 4.3243 15.0628 4.24967 14.8749 4.24967H4.95825Z" fill="#00ADEF"/>
<path d="M3.54167 14.1667H2.125C1.56142 14.1667 1.02091 13.9428 0.622398 13.5443C0.223883 13.1458 0 12.6053 0 12.0417V2.125C0 1.56142 0.223883 1.02091 0.622398 0.622398C1.02091 0.223883 1.56142 0 2.125 0H12.0417C12.6053 0 13.1458 0.223883 13.5443 0.622398C13.9428 1.02091 14.1667 1.56142 14.1667 2.125V3.54167C14.1667 3.72953 14.092 3.9097 13.9592 4.04253C13.8264 4.17537 13.6462 4.25 13.4583 4.25C13.2705 4.25 13.0903 4.17537 12.9575 4.04253C12.8246 3.9097 12.75 3.72953 12.75 3.54167V2.125C12.75 1.93714 12.6754 1.75697 12.5425 1.62413C12.4097 1.49129 12.2295 1.41667 12.0417 1.41667H2.125C1.93714 1.41667 1.75697 1.49129 1.62413 1.62413C1.49129 1.75697 1.41667 1.93714 1.41667 2.125V12.0417C1.41667 12.2295 1.49129 12.4097 1.62413 12.5425C1.75697 12.6754 1.93714 12.75 2.125 12.75H3.54167C3.72953 12.75 3.9097 12.8246 4.04253 12.9575C4.17537 13.0903 4.25 13.2705 4.25 13.4583C4.25 13.6462 4.17537 13.8264 4.04253 13.9592C3.9097 14.092 3.72953 14.1667 3.54167 14.1667Z" fill="#00ADEF"/>
<path d="M7.79159 14.1662C7.37158 14.1659 6.96109 14.041 6.61198 13.8075C6.26287 13.574 5.99079 13.2423 5.83011 12.8542C5.66943 12.4661 5.62735 12.0392 5.70919 11.6272C5.79103 11.2152 5.99311 10.8368 6.28992 10.5396L6.99826 9.83124C7.4028 9.445 7.94061 9.22949 8.49992 9.22949C9.05924 9.22949 9.59705 9.445 10.0016 9.83124C10.3995 10.2297 10.6231 10.7698 10.6231 11.3329C10.6231 11.896 10.3995 12.4361 10.0016 12.8346L9.29326 13.5429C8.89512 13.9415 8.35498 14.1657 7.79159 14.1662ZM8.49992 10.6246C8.4067 10.624 8.31429 10.6419 8.22799 10.6772C8.14169 10.7124 8.06319 10.7643 7.99701 10.83L7.28867 11.5383C7.15674 11.671 7.08269 11.8506 7.08269 12.0377C7.08269 12.2248 7.15674 12.4044 7.28867 12.5371C7.42139 12.669 7.60092 12.7431 7.78805 12.7431C7.97518 12.7431 8.15471 12.669 8.28742 12.5371L8.99576 11.8287C9.09283 11.7297 9.15871 11.6044 9.18523 11.4683C9.21175 11.3322 9.19774 11.1913 9.14495 11.0631C9.09216 10.9349 9.0029 10.825 8.88824 10.7471C8.77358 10.6691 8.63856 10.6265 8.49992 10.6246Z" fill="#00ADEF"/>
<path d="M11.3333 10.6252C10.9133 10.6249 10.5028 10.5 10.1537 10.2665C9.80462 10.033 9.53254 9.70124 9.37186 9.31317C9.21118 8.92511 9.1691 8.49814 9.25094 8.08617C9.33277 7.67421 9.53486 7.29574 9.83167 6.99856L10.54 6.29023C10.9445 5.90399 11.4824 5.68848 12.0417 5.68848C12.601 5.68848 13.1388 5.90399 13.5433 6.29023C13.9413 6.68866 14.1648 7.22876 14.1648 7.79189C14.1648 8.35502 13.9413 8.89512 13.5433 9.29356L12.835 10.0019C12.4369 10.4005 11.8967 10.6247 11.3333 10.6252ZM12.0417 7.08356C11.9484 7.08302 11.856 7.10089 11.7697 7.13614C11.6834 7.17139 11.6049 7.22333 11.5388 7.28898L10.8304 7.99731C10.6985 8.13002 10.6244 8.30955 10.6244 8.49668C10.6244 8.68381 10.6985 8.86334 10.8304 8.99606C10.9631 9.12799 11.1427 9.20204 11.3298 9.20204C11.5169 9.20204 11.6965 9.12799 11.8292 8.99606L12.5375 8.28772C12.6346 8.18872 12.7005 8.0634 12.727 7.92731C12.7535 7.79122 12.7395 7.65033 12.6867 7.52212C12.6339 7.39391 12.5447 7.28402 12.43 7.20606C12.3153 7.1281 12.1803 7.08551 12.0417 7.08356Z" fill="#00ADEF"/>
<path d="M9.2083 11.3334C9.06761 11.3342 8.92986 11.2931 8.81262 11.2153C8.69538 11.1376 8.60395 11.0266 8.55 10.8967C8.49605 10.7668 8.48201 10.6237 8.50969 10.4857C8.53736 10.3478 8.60549 10.2212 8.70539 10.1221L10.1221 8.70548C10.2576 8.58944 10.4319 8.5288 10.6101 8.53568C10.7884 8.54257 10.9575 8.61647 11.0837 8.74262C11.2098 8.86877 11.2837 9.03788 11.2906 9.21615C11.2975 9.39442 11.2368 9.56872 11.1208 9.70423L9.70414 11.1209C9.57336 11.2544 9.39514 11.3307 9.2083 11.3334Z" fill="#00ADEF"/>
</svg>
